<svg width="323" height="337" viewBox="0 0 323 337" fill="none" xmlns="http://www.w3.org/2000/svg">
<rect x="0.5" y="0.5" width="322" height="336" rx="7.5" fill="white"/>
<rect x="0.5" y="0.5" width="322" height="336" rx="7.5" fill="black" fill-opacity="0.1"/>
<rect x="0.5" y="0.5" width="322" height="336" rx="7.5" stroke="#E0E8ED"/>
<path d="M176.82 59.3698C176.674 56.245 173.42 54.424 167.693 54.9448C161.966 55.4656 128.514 56.6365 110.031 57.2885C91.5477 57.9385 84.9101 58.3732 83.4339 58.6336C81.9576 58.894 80.9628 60.4321 80.5694 64.1002C80.5694 64.1002 77.6187 91.6939 77.2722 94.4722C76.9256 97.2505 79.8313 97.7694 85.2998 98.0298C90.7665 98.2902 146.538 98.5507 165.642 96.207C177.716 94.7757 176.805 93.7341 176.805 90.0884C176.804 86.4446 176.967 62.4928 176.82 59.3698ZM162.837 93.7697C145.122 95.8248 93.4024 95.5963 88.3329 95.3677C83.2634 95.1391 80.5675 94.682 80.8897 92.2484C81.212 89.813 83.9472 65.6177 83.9472 65.6177C84.3107 62.401 85.2342 61.0522 86.6018 60.8236C87.9694 60.5951 94.1255 60.2148 111.266 59.6452C128.405 59.0738 159.428 58.0472 164.739 57.5901C170.05 57.1329 173.068 58.731 173.203 61.4699C173.338 64.2089 173.188 85.21 173.188 88.406C173.19 91.6002 174.035 92.5145 162.837 93.7697Z" fill="#636163"/>
<path d="M87.8589 55.9414C87.8589 55.9414 101.569 53.3823 124.739 52.7304C146.081 52.1309 170.644 50.561 180.363 52.1234C190.082 53.6858 198.239 55.5949 199.279 69.1322C200.321 82.6696 202.055 129.528 202.055 129.528C202.055 129.528 202.814 128.291 207.957 128.617C209.965 128.745 216.756 129.708 216.756 129.708C216.756 129.708 215.853 60.8873 213.249 54.8567C210.647 48.8281 203.444 42.3685 197.37 42.0219C191.296 41.6753 103.131 45.5308 92.8928 47.6122C88.3778 48.5302 87.8589 55.9414 87.8589 55.9414Z" fill="#636163"/>
<path d="M181.491 93.4718C181.491 93.4718 181.101 61.4512 181.491 58.5886C181.881 55.7241 183.898 56.376 186.242 56.8969C188.586 57.4177 191.774 58.6541 192.49 59.2405C193.205 59.8269 193.076 83.5876 192.945 85.7645C192.816 87.9414 191.514 89.7642 187.673 91.5215C183.833 93.2769 181.51 95.0979 181.491 93.4718Z" fill="#636163"/>
<path d="M76.2324 100.023C76.2324 100.023 74.7561 110.913 75.2769 122.888C75.7977 134.863 74.6268 142.413 71.8935 146.057C71.2434 155.167 71.2434 163.238 76.8394 166.753C89.8559 166.753 169.516 166.492 180.189 164.93C186.176 163.888 188.26 147.488 188.26 147.488C188.26 147.488 184.616 158.768 175.678 160.591C166.739 162.414 85.6051 162.5 81.6129 161.979C77.6206 161.458 75.365 154.429 74.758 150.178C74.151 145.926 76.4928 145.579 77.6225 137.857C78.7484 130.135 75.7116 104.796 76.2324 100.023Z" fill="#636163"/>
<path d="M81.0902 115.297L167.693 114.256L164.819 123.454L84.2151 124.322L81.0902 115.297Z" fill="#636163"/>
<path d="M85.429 127.487L163.785 126.577L161.271 135.429L87.8588 136.643L85.429 127.487Z" fill="#636163"/>
<path d="M88.8143 139.073L160.317 138.119L157.627 145.407L90.8095 146.362L88.8143 139.073Z" fill="#636163"/>
<path d="M165.642 139.94C165.642 139.94 165.091 124.147 182.272 122.238C181.058 135.081 181.23 136.231 180.254 137.533C179.278 138.835 165.642 139.94 165.642 139.94Z" fill="#636163"/>
<path d="M83.3477 139.94C83.3477 139.94 84.7809 131.697 75.3856 126.577C74.2353 134.559 74.7318 138.188 74.5801 138.945C74.4283 139.702 83.3477 139.94 83.3477 139.94Z" fill="#636163"/>
<path d="M92.5893 158.815H155.718L150.381 152.175H96.2331L92.5893 158.815Z" fill="#636163"/>
<path d="M73.6283 148.446L90.4629 148.792L84.5617 157.556L75.7116 157.991L83.4245 156.515L86.1241 150.876L73.1937 151.222L73.6283 148.446Z" fill="#636163"/>
<path d="M158.06 148.445L162.876 156.212H177.585L183.312 146.364L158.06 148.445ZM176.631 155.495L164.819 154.605L162.876 150.744L178.495 149.573L176.631 155.495Z" fill="#636163"/>
<path d="M193.046 152.176C193.046 152.176 193.031 136.297 202.055 129.528C202.055 125.015 203.269 120.85 203.269 120.85C203.269 120.85 187.244 115.644 186.058 152.176C190.601 152.264 193.046 152.176 193.046 152.176Z" fill="#636163"/>
<path d="M176.88 100.85C176.88 100.85 170.816 119.591 167.691 127.488C172.247 120.678 178.484 104.016 178.484 104.016L201.447 92.4753V88.8877L176.88 100.85Z" fill="#636163"/>
<path d="M93.3686 167.405C93.3686 167.405 102.61 177.817 106.254 180.421C145.564 180.421 178.235 180.421 178.235 180.421C178.235 180.421 176.907 174.432 178.235 166.755C164.96 167.145 102.739 168.068 93.3686 167.405Z" fill="#636163"/>
<path d="M105.561 181.594L95.2476 171.542C95.257 173.389 95.4013 177.767 96.4279 183.116C97.7936 190.235 101.634 188.882 101.634 188.882C101.634 188.882 99.4872 192.331 96.2968 187.58C93.5466 183.485 93.363 172.623 93.363 169.704L91.8493 168.228H80.5694C80.5694 168.228 80.7436 183.153 83.6062 189.575C86.4707 195.997 91.2423 198.948 99.313 197.732C107.384 196.516 109.205 181.593 109.205 181.593H105.561V181.594Z" fill="#636163"/>
<path d="M136.246 181.594C136.613 183.606 137.078 185.455 137.664 186.883C140.304 193.305 144.704 196.254 152.144 195.04C157.578 194.152 159.939 185.95 160.816 181.594H136.246Z" fill="#636163"/>
<path d="M150.933 181.594C151.301 183.606 151.765 185.455 152.352 186.883C154.991 193.305 159.392 196.254 166.831 195.04C172.268 194.152 174.627 185.95 175.503 181.594H150.933Z" fill="#636163"/>
<path d="M199.388 145.799C196.405 145.799 193.987 156.989 193.987 170.79C193.987 184.592 196.405 195.782 199.388 195.782C202.37 195.782 204.789 184.592 204.789 170.79C204.789 156.987 202.372 145.799 199.388 145.799ZM201.284 184.131C200.056 184.131 199.062 178.157 199.062 170.788C199.062 163.42 200.056 157.446 201.284 157.446C202.511 157.446 203.505 163.418 203.505 170.788C203.507 178.158 202.511 184.131 201.284 184.131Z" fill="#636163"/>
<path d="M192.338 170.79C192.338 156.989 194.757 145.799 197.739 145.799H185.208C180.895 145.799 177.397 156.989 177.397 170.79C177.397 184.592 180.893 195.782 185.208 195.782H197.739C194.755 195.782 192.338 184.592 192.338 170.79Z" fill="#636163"/>
<path d="M251.175 152.215C249.168 152.215 247.542 161.093 247.542 172.045C247.542 182.997 249.168 191.875 251.175 191.875C253.181 191.875 254.807 182.997 254.807 172.045C254.807 161.093 253.181 152.215 251.175 152.215ZM252.451 182.632C251.624 182.632 250.956 177.892 250.956 172.045C250.956 166.198 251.624 161.458 252.451 161.458C253.277 161.458 253.946 166.198 253.946 172.045C253.944 177.892 253.275 182.632 252.451 182.632Z" fill="#636163"/>
<path d="M237.411 150.223C235.337 150.223 233.654 159.849 233.654 171.723C233.654 183.596 235.337 193.222 237.411 193.222C239.485 193.222 241.167 183.596 241.167 171.723C241.165 159.849 239.485 150.223 237.411 150.223ZM238.728 183.199C237.875 183.199 237.182 178.06 237.182 171.723C237.182 165.383 237.873 160.246 238.728 160.246C239.582 160.246 240.273 165.385 240.273 171.723C240.273 178.06 239.582 183.199 238.728 183.199Z" fill="#636163"/>
<path d="M237.411 150.223C235.337 150.223 233.654 159.849 233.654 171.723C233.654 183.596 235.337 193.222 237.411 193.222C239.485 193.222 241.167 183.596 241.167 171.723C241.165 159.849 239.485 150.223 237.411 150.223ZM238.728 183.199C237.875 183.199 237.182 178.06 237.182 171.723C237.182 165.383 237.873 160.246 238.728 160.246C239.582 160.246 240.273 165.385 240.273 171.723C240.273 178.06 239.582 183.199 238.728 183.199Z" fill="#636163"/>
<path d="M246.433 172.045C246.433 161.093 248.059 152.215 250.066 152.215H241.637C241.186 152.215 240.064 152.215 240.064 152.215C241.768 155.658 243.224 163.888 243.224 172.718C243.224 180.775 242.235 187.795 240.766 191.581C241.049 191.761 241.339 191.875 241.637 191.875H250.066C248.059 191.875 246.433 182.997 246.433 172.045Z" fill="#636163"/>
<path d="M232.508 171.723C232.508 159.849 234.19 150.223 236.264 150.223H227.551C224.552 150.223 222.12 159.849 222.12 171.723C222.12 183.596 224.552 193.222 227.551 193.222H236.264C234.188 193.22 232.508 183.596 232.508 171.723Z" fill="#636163"/>
<path d="M220.106 171.723C220.106 159.849 222.899 150.223 224.973 150.223H213.077C210.077 150.223 207.646 159.849 207.646 171.723C207.646 183.596 210.077 193.222 213.077 193.222H224.973C222.897 193.22 220.106 183.596 220.106 171.723Z" fill="#636163"/>
<path d="M201.926 133.389L251.778 139.354V136.924L205.699 130.241C205.699 130.241 204.008 130.807 201.926 133.389Z" fill="#636163"/>
<path d="M198.237 141.416L251.778 144.496V142.066L200.379 136.528C200.379 136.528 198.953 138.726 198.237 141.416Z" fill="#636163"/>
<path d="M251.778 146.557L199.952 144.056C201.795 144.952 202.76 147.138 203.045 148.507L251.78 148.987V146.557H251.778Z" fill="#636163"/>
<path d="M195.287 93.3426V63.7949L197.63 92.0406L195.287 93.3426Z" fill="#636163"/>
<path d="M183.312 147.49C183.312 147.49 184.187 135.6 187.566 127.488C190.948 119.376 197.153 118.254 199.386 118.248C195.459 117.987 187.649 119.376 184.569 129.095C181.489 138.814 180.794 147.492 180.794 147.492H183.312V147.49Z" fill="#636163"/>
<path d="M176.88 100.849C176.88 100.849 125.389 105.188 86.8604 103.236C96.8832 105.059 151.184 105.156 176.88 103.742C178.497 102.713 176.88 100.849 176.88 100.849Z" fill="#636163"/>
<path d="M74.5782 80.0659H65.2091C63.4369 80.0659 62 81.1675 62 82.5257V102.513C62 103.692 63.0903 104.703 64.5984 104.928L73.6284 106.271L74.5782 80.0659Z" fill="#636163"/>
<path d="M224.973 118.22L260.89 121.249V115.991L224.973 107.53L260.89 112.545V107.761L224.973 97.1869L260.89 104.317V100.286L224.973 87.1622L260.89 96.8404V90.3058L217.449 75.5039L218.871 130.03L251.866 135.081L260.89 127.488V124.694L224.973 118.22Z" fill="#636163"/>
<path d="M114.648 281.216C113.336 281.216 112.144 281.016 111.072 280.616C110.016 280.2 109.104 279.608 108.336 278.84C107.568 278.072 106.976 277.136 106.56 276.032C106.16 274.912 105.96 273.648 105.96 272.24C105.96 270.832 106.16 269.576 106.56 268.472C106.976 267.368 107.568 266.432 108.336 265.664C109.104 264.896 110.016 264.312 111.072 263.912C112.144 263.496 113.336 263.288 114.648 263.288C116.12 263.288 117.432 263.544 118.584 264.056C119.736 264.568 120.672 265.288 121.392 266.216C122.112 267.128 122.552 268.208 122.712 269.456H119.472C119.328 268.768 119.04 268.168 118.608 267.656C118.176 267.144 117.624 266.744 116.952 266.456C116.28 266.168 115.512 266.024 114.648 266.024C113.544 266.024 112.584 266.264 111.768 266.744C110.968 267.208 110.344 267.904 109.896 268.832C109.448 269.76 109.224 270.896 109.224 272.24C109.224 273.248 109.352 274.144 109.608 274.928C109.864 275.712 110.224 276.368 110.688 276.896C111.168 277.424 111.736 277.824 112.392 278.096C113.064 278.352 113.816 278.48 114.648 278.48C115.496 278.48 116.256 278.336 116.928 278.048C117.6 277.76 118.16 277.36 118.608 276.848C119.056 276.32 119.344 275.712 119.472 275.024H122.712C122.568 276.256 122.128 277.344 121.392 278.288C120.672 279.216 119.736 279.936 118.584 280.448C117.432 280.96 116.12 281.216 114.648 281.216ZM131.493 281.216C130.533 281.216 129.669 281.072 128.901 280.784C128.133 280.48 127.461 280.04 126.885 279.464C126.325 278.888 125.893 278.192 125.589 277.376C125.301 276.56 125.157 275.64 125.157 274.616C125.157 273.304 125.405 272.152 125.901 271.16C126.413 270.168 127.141 269.392 128.085 268.832C129.029 268.272 130.165 267.992 131.493 267.992C132.437 267.992 133.293 268.144 134.061 268.448C134.829 268.752 135.485 269.192 136.029 269.768C136.589 270.344 137.021 271.04 137.325 271.856C137.629 272.656 137.781 273.576 137.781 274.616C137.781 275.912 137.525 277.056 137.013 278.048C136.517 279.04 135.797 279.816 134.853 280.376C133.925 280.936 132.805 281.216 131.493 281.216ZM131.469 278.744C132.125 278.744 132.701 278.592 133.197 278.288C133.693 277.968 134.077 277.504 134.349 276.896C134.621 276.272 134.757 275.512 134.757 274.616C134.757 273.944 134.677 273.352 134.517 272.84C134.373 272.312 134.157 271.872 133.869 271.52C133.581 271.168 133.237 270.904 132.837 270.728C132.437 270.552 131.989 270.464 131.493 270.464C130.837 270.464 130.253 270.624 129.741 270.944C129.245 271.248 128.861 271.712 128.589 272.336C128.317 272.944 128.181 273.704 128.181 274.616C128.181 275.288 128.253 275.888 128.397 276.416C128.557 276.928 128.781 277.36 129.069 277.712C129.357 278.048 129.701 278.304 130.101 278.48C130.517 278.656 130.973 278.744 131.469 278.744ZM141.067 281V268.232H143.971L144.067 270.656H144.211C144.563 269.76 145.107 269.096 145.843 268.664C146.579 268.216 147.387 267.992 148.267 267.992C149.195 267.992 150.027 268.216 150.763 268.664C151.499 269.112 152.035 269.864 152.371 270.92H152.563C152.899 269.944 153.459 269.216 154.243 268.736C155.027 268.24 155.915 267.992 156.907 267.992C157.755 267.992 158.507 268.168 159.163 268.52C159.835 268.872 160.363 269.44 160.747 270.224C161.131 271.008 161.323 272.048 161.323 273.344V281H158.323V273.992C158.323 273.192 158.235 272.536 158.059 272.024C157.883 271.496 157.603 271.104 157.219 270.848C156.835 270.592 156.347 270.464 155.755 270.464C155.115 270.464 154.563 270.624 154.099 270.944C153.651 271.264 153.307 271.688 153.067 272.216C152.827 272.744 152.707 273.328 152.707 273.968V281H149.683V273.992C149.683 273.192 149.595 272.536 149.419 272.024C149.243 271.496 148.963 271.104 148.579 270.848C148.211 270.592 147.731 270.464 147.139 270.464C146.499 270.464 145.947 270.624 145.483 270.944C145.035 271.264 144.683 271.688 144.427 272.216C144.187 272.744 144.067 273.328 144.067 273.968V281H141.067ZM165.117 285.008V268.232H167.973L168.093 270.56H168.261C168.533 269.792 169.037 269.176 169.773 268.712C170.509 268.232 171.381 267.992 172.389 267.992C173.173 267.992 173.885 268.144 174.525 268.448C175.165 268.752 175.717 269.192 176.181 269.768C176.645 270.328 176.997 271.016 177.237 271.832C177.493 272.648 177.621 273.576 177.621 274.616C177.621 275.992 177.397 277.176 176.949 278.168C176.517 279.16 175.909 279.92 175.125 280.448C174.341 280.976 173.429 281.24 172.389 281.24C171.717 281.24 171.101 281.136 170.541 280.928C169.981 280.704 169.501 280.4 169.101 280.016C168.717 279.632 168.437 279.192 168.261 278.696H168.117V285.008H165.117ZM171.261 278.792C171.965 278.792 172.565 278.624 173.061 278.288C173.557 277.952 173.925 277.472 174.165 276.848C174.421 276.208 174.549 275.464 174.549 274.616C174.549 273.752 174.429 273.008 174.189 272.384C173.949 271.76 173.589 271.28 173.109 270.944C172.629 270.608 172.037 270.44 171.333 270.44C170.629 270.44 170.037 270.6 169.557 270.92C169.077 271.224 168.717 271.648 168.477 272.192C168.237 272.72 168.117 273.304 168.117 273.944V275.312C168.117 275.968 168.245 276.56 168.501 277.088C168.757 277.6 169.117 278.016 169.581 278.336C170.045 278.64 170.605 278.792 171.261 278.792ZM185.923 281.216C185.139 281.216 184.427 281.072 183.787 280.784C183.147 280.48 182.595 280.048 182.131 279.488C181.667 278.912 181.307 278.216 181.051 277.4C180.811 276.568 180.691 275.64 180.691 274.616C180.691 273.224 180.907 272.032 181.339 271.04C181.787 270.048 182.403 269.296 183.187 268.784C183.971 268.256 184.883 267.992 185.923 267.992C186.595 267.992 187.203 268.096 187.747 268.304C188.307 268.512 188.779 268.808 189.163 269.192C189.563 269.576 189.859 270.024 190.051 270.536H190.219L190.339 268.232H193.171V281H190.339L190.219 278.672H190.051C189.779 279.44 189.275 280.056 188.539 280.52C187.803 280.984 186.931 281.216 185.923 281.216ZM186.979 278.768C187.683 278.768 188.267 278.616 188.731 278.312C189.211 277.992 189.571 277.568 189.811 277.04C190.051 276.512 190.171 275.928 190.171 275.288V273.92C190.171 273.264 190.043 272.672 189.787 272.144C189.547 271.616 189.187 271.2 188.707 270.896C188.243 270.592 187.691 270.44 187.051 270.44C186.331 270.44 185.723 270.608 185.227 270.944C184.747 271.264 184.379 271.736 184.123 272.36C183.867 272.984 183.739 273.736 183.739 274.616C183.739 275.464 183.859 276.2 184.099 276.824C184.355 277.448 184.723 277.928 185.203 278.264C185.683 278.6 186.275 278.768 186.979 278.768ZM197.186 281V268.232H199.898L200.042 270.368H200.138C200.426 269.552 200.89 268.968 201.53 268.616C202.186 268.248 202.93 268.064 203.762 268.064C203.906 268.064 204.034 268.064 204.146 268.064C204.274 268.064 204.394 268.064 204.506 268.064V270.896C204.41 270.896 204.29 270.896 204.146 270.896C204.018 270.88 203.874 270.872 203.714 270.872C202.946 270.872 202.306 271 201.794 271.256C201.282 271.496 200.89 271.848 200.618 272.312C200.362 272.776 200.218 273.344 200.186 274.016V281H197.186ZM212.314 281.216C211.018 281.216 209.914 280.952 209.002 280.424C208.106 279.88 207.418 279.12 206.938 278.144C206.458 277.152 206.218 276 206.218 274.688C206.218 273.328 206.458 272.152 206.938 271.16C207.418 270.152 208.106 269.376 209.002 268.832C209.898 268.288 210.962 268.016 212.194 268.016C213.602 268.016 214.754 268.328 215.65 268.952C216.562 269.56 217.218 270.408 217.618 271.496C218.018 272.584 218.154 273.832 218.026 275.24H209.146C209.146 276.056 209.274 276.744 209.53 277.304C209.802 277.848 210.17 278.264 210.634 278.552C211.114 278.824 211.674 278.96 212.314 278.96C213.066 278.96 213.674 278.8 214.138 278.48C214.618 278.16 214.938 277.736 215.098 277.208H217.93C217.802 278.04 217.482 278.76 216.97 279.368C216.458 279.96 215.802 280.416 215.002 280.736C214.202 281.056 213.306 281.216 212.314 281.216ZM209.146 273.632L208.882 273.32H215.386L215.098 273.656C215.13 272.872 215.026 272.232 214.786 271.736C214.546 271.24 214.202 270.872 213.754 270.632C213.306 270.392 212.786 270.272 212.194 270.272C211.586 270.272 211.058 270.4 210.61 270.656C210.162 270.912 209.81 271.296 209.554 271.808C209.298 272.304 209.162 272.912 209.146 273.632Z" fill="black"/>
</svg>
