<svg width="16" height="19" viewBox="0 0 16 19" fill="none" xmlns="http://www.w3.org/2000/svg">
<g clip-path="url(#clip0_48_2844)">
<g clip-path="url(#clip1_48_2844)">
<g clip-path="url(#clip2_48_2844)">
<mask id="mask0_48_2844" style="mask-type:luminance" maskUnits="userSpaceOnUse" x="0" y="0" width="16" height="17">
<path d="M15.5833 0.708344H0V16.2917H15.5833V0.708344Z" fill="white"/>
</mask>
<g mask="url(#mask0_48_2844)">
<mask id="mask1_48_2844" style="mask-type:alpha" maskUnits="userSpaceOnUse" x="0" y="0" width="16" height="17">
<path d="M15.5833 0.708344H0V16.2917H15.5833V0.708344Z" fill="#D9D9D9"/>
</mask>
<g mask="url(#mask1_48_2844)">
<path d="M2.87665 7.66876C3.41802 7.66876 3.94788 7.66876 4.48926 7.66876C5.12277 7.23004 5.75631 6.77978 6.38982 6.34106C8.32492 6.34106 10.2601 6.34106 12.1952 6.34106C12.1952 6.94141 12.1952 7.55331 12.1952 8.15371C12.5062 8.15371 12.8056 8.15371 13.1167 8.15371C13.1167 7.78425 13.1167 7.4148 13.1167 7.0453C13.4507 7.0453 13.7963 7.0453 14.1303 7.0453C14.1648 8.92724 14.1994 10.7976 14.234 12.6796C13.8654 12.6796 13.4853 12.6796 13.1167 12.6796C13.1167 12.3447 13.1167 12.0099 13.1167 11.6751C12.8056 11.6751 12.5062 11.6751 12.1952 11.6751C12.1952 12.1831 12.1952 12.6796 12.1952 13.1876C11.8266 13.5224 11.4465 13.8572 11.0779 14.192C9.54592 14.192 8.02546 14.192 6.4935 14.192C5.89453 13.4416 5.30709 12.6911 4.71964 11.9406C4.10913 11.9406 3.48714 11.9406 2.87665 11.9406C2.87665 10.5205 2.87665 9.08887 2.87665 7.66876Z" stroke="#FA7436" stroke-width="0.727222" stroke-miterlimit="10" stroke-linecap="round" stroke-linejoin="round"/>
<path d="M11.2968 4.14541C10.8821 4.14541 10.4675 4.14541 10.0413 4.14541C9.06219 4.14541 8.08312 4.14541 7.11557 4.14541C7.10406 4.14541 7.04644 4.14541 7.00038 4.09922C6.97732 4.07612 6.95428 4.02996 6.95428 3.98377V3.03704C6.95428 2.94467 7.02341 2.8754 7.10406 2.8754H11.2853C11.3659 2.8754 11.435 2.94467 11.435 3.03704V3.98377C11.4581 4.07613 11.389 4.14541 11.2968 4.14541Z" stroke="#FA7436" stroke-width="0.727222" stroke-miterlimit="10" stroke-linecap="round" stroke-linejoin="round"/>
<path d="M2.07783 7.98056H1.03894V12.1361H2.07783V7.98056Z" stroke="#FA7436" stroke-width="0.727222" stroke-miterlimit="10" stroke-linecap="round" stroke-linejoin="round"/>
<path d="M8.4173 4.26328C8.4173 4.95601 8.4173 5.64873 8.4173 6.34145" stroke="#FA7436" stroke-width="0.727222" stroke-miterlimit="10" stroke-linecap="round" stroke-linejoin="round"/>
<path d="M10.0414 4.26328C10.0414 4.95601 10.0414 5.64873 10.0414 6.34145" stroke="#FA7436" stroke-width="0.727222" stroke-miterlimit="10" stroke-linecap="round" stroke-linejoin="round"/>
<path d="M2.1048 9.22235C2.34669 9.22235 2.57707 9.22235 2.81895 9.22235" stroke="#FA7436" stroke-width="0.727222" stroke-miterlimit="10" stroke-linecap="round" stroke-linejoin="round"/>
<path d="M2.00122 10.7239C2.27767 10.7239 2.5426 10.7239 2.81903 10.7239" stroke="#FA7436" stroke-width="0.727222" stroke-miterlimit="10" stroke-linecap="round" stroke-linejoin="round"/>
<path d="M7.42653 10.2316C7.64539 9.4696 7.87577 8.70758 8.09463 7.94559C8.10614 7.92248 8.12917 7.89941 8.15219 7.89941H9.74179C9.78784 7.89941 9.82243 7.95711 9.79935 8.00329C9.55747 8.51131 9.32709 9.01933 9.08521 9.51575C9.06218 9.56194 9.09672 9.61968 9.14283 9.61968L9.98367 9.5273C10.0412 9.51575 10.0758 9.59661 10.0297 9.64275C9.17737 10.6588 8.31348 11.6632 7.46112 12.6793C7.41502 12.737 7.33442 12.6677 7.35744 12.5984C7.66842 11.871 7.96793 11.1552 8.27894 10.4279C8.30197 10.3817 8.26739 10.324 8.22133 10.324H7.48415C7.43805 10.324 7.41502 10.2778 7.42653 10.2316Z" stroke="#FA7436" stroke-width="0.727222" stroke-miterlimit="10" stroke-linecap="round" stroke-linejoin="round"/>
</g>
</g>
</g>
</g>
</g>
<defs>
<clipPath id="clip0_48_2844">
<rect width="16" height="19" fill="white"/>
</clipPath>
<clipPath id="clip1_48_2844">
<rect width="15.5833" height="28.3333" fill="white" transform="translate(0 -5.66666)"/>
</clipPath>
<clipPath id="clip2_48_2844">
<rect width="15.5833" height="15.5833" fill="white" transform="translate(0 0.708344)"/>
</clipPath>
</defs>
</svg>
