<svg width="34" height="34" viewBox="0 0 34 34" fill="none" xmlns="http://www.w3.org/2000/svg">
<path d="M15.4663 8.84967C15.4096 8.73634 15.2963 8.66635 15.1696 8.66635H13.0596L15.1297 4.82297C15.1863 4.71969 15.1831 4.5963 15.123 4.49303C15.0631 4.39627 14.953 4.33295 14.8364 4.33295H11.8364C11.713 4.33295 11.5996 4.39967 11.543 4.5096L8.54306 10.1762C8.48965 10.2796 8.49305 10.4029 8.55298 10.5029C8.61304 10.6029 8.72297 10.6628 8.83971 10.6628H11.4064L10.1864 15.2427C10.1463 15.396 10.2197 15.5594 10.363 15.6295C10.4096 15.6527 10.4597 15.6628 10.5064 15.6628C10.6097 15.6628 10.7097 15.616 10.7764 15.5261L15.4433 9.19264C15.5133 9.09602 15.5229 8.963 15.4663 8.84967ZM11.2796 13.7197L12.1596 10.4196C12.1863 10.3196 12.1663 10.2129 12.103 10.1296C12.0362 10.0463 11.9396 9.99957 11.8364 9.99957H9.38965L12.0362 4.99948H14.2763L12.2062 8.84287C12.1496 8.94614 12.153 9.06953 12.2129 9.17281C12.273 9.27282 12.3829 9.33615 12.4996 9.33615H14.5063L11.2796 13.7197Z" fill="#FA7436"/>
<path d="M11.9999 22.6665C11.2632 22.6665 10.6665 23.2632 10.6665 23.9999C10.6665 24.7365 11.2632 25.3332 11.9999 25.3332C12.7365 25.3332 13.3332 24.7365 13.3332 23.9999C13.3332 23.2632 12.7365 22.6665 11.9999 22.6665ZM11.9999 24.6665C11.6332 24.6665 11.3332 24.3665 11.3332 23.9999C11.3332 23.6332 11.6332 23.3332 11.9999 23.3332C12.3665 23.3332 12.6665 23.6332 12.6665 23.9999C12.6665 24.3665 12.3665 24.6665 11.9999 24.6665Z" fill="#FA7436"/>
<path d="M8.33423 23.6667H3.00081C2.81749 23.6667 2.66748 23.8166 2.66748 24C2.66748 24.1833 2.81749 24.3332 3.00081 24.3332H8.33423C8.51754 24.3332 8.66757 24.1833 8.66757 24C8.66757 23.8166 8.51754 23.6667 8.33423 23.6667Z" fill="#FA7436"/>
<path d="M12.0015 17.3333C11.4515 17.3333 11.0015 17.7832 11.0015 18.3333C11.0015 18.8832 11.4515 19.3333 12.0015 19.3333C12.5516 19.3333 13.0015 18.8832 13.0015 18.3333C13.0015 17.7832 12.5516 17.3333 12.0015 17.3333ZM12.0015 18.6665C11.8182 18.6665 11.6681 18.5166 11.6681 18.3331C11.6681 18.1498 11.8182 17.9998 12.0015 17.9998C12.1848 17.9998 12.3348 18.1498 12.3348 18.3331C12.3348 18.5166 12.1848 18.6665 12.0015 18.6665Z" fill="#FA7436"/>
<path d="M8.66457 17.3333C8.11448 17.3333 7.66455 17.7832 7.66455 18.3333C7.66455 18.8832 8.11448 19.3333 8.66457 19.3333C9.21451 19.3333 9.66458 18.8832 9.66458 18.3333C9.66458 17.7832 9.21451 17.3333 8.66457 17.3333ZM8.66457 18.6665C8.48111 18.6665 8.33123 18.5166 8.33123 18.3331C8.33123 18.1498 8.48111 17.9998 8.66457 17.9998C8.84788 17.9998 8.99791 18.1498 8.99791 18.3331C8.99791 18.5166 8.84788 18.6665 8.66457 18.6665Z" fill="#FA7436"/>
<path d="M5.33302 17.3333C4.78294 17.3333 4.33301 17.7832 4.33301 18.3333C4.33301 18.8832 4.78294 19.3333 5.33302 19.3333C5.88297 19.3333 6.33304 18.8832 6.33304 18.3333C6.33304 17.7832 5.88297 17.3333 5.33302 17.3333ZM5.33302 18.6665C5.14971 18.6665 4.99968 18.5166 4.99968 18.3331C4.99968 18.1498 5.14971 17.9998 5.33302 17.9998C5.51634 17.9998 5.66636 18.1498 5.66636 18.3331C5.66636 18.5166 5.51634 18.6665 5.33302 18.6665Z" fill="#FA7436"/>
<path d="M15.3325 17.3333C14.7824 17.3333 14.3325 17.7832 14.3325 18.3333C14.3325 18.8832 14.7824 19.3333 15.3325 19.3333C15.8825 19.3333 16.3326 18.8832 16.3326 18.3333C16.3326 17.7832 15.8825 17.3333 15.3325 17.3333ZM15.3325 18.6665C15.1492 18.6665 14.9992 18.5166 14.9992 18.3331C14.9992 18.1498 15.1492 17.9998 15.3325 17.9998C15.5158 17.9998 15.6659 18.1498 15.6659 18.3331C15.6659 18.5166 15.5158 18.6665 15.3325 18.6665Z" fill="#FA7436"/>
<path d="M18.6695 17.3333C18.1194 17.3333 17.6694 17.7832 17.6694 18.3333C17.6694 18.8832 18.1194 19.3333 18.6695 19.3333C19.2194 19.3333 19.6695 18.8832 19.6695 18.3333C19.6695 17.7832 19.2194 17.3333 18.6695 17.3333ZM18.6695 18.6665C18.486 18.6665 18.3361 18.5166 18.3361 18.3331C18.3361 18.1498 18.486 17.9998 18.6695 17.9998C18.8528 17.9998 19.0028 18.1498 19.0028 18.3331C19.0028 18.5166 18.8528 18.6665 18.6695 18.6665Z" fill="#FA7436"/>
<path d="M33.6664 9.6664H32.9998V7.3098C32.9998 6.77317 32.5631 6.33316 32.0231 6.33316H30.6431C30.1031 6.33316 29.6665 6.76977 29.6665 7.3098V9.6664H28.9998C28.8163 9.6664 28.6664 9.81643 28.6664 9.99974V12.4398C28.6664 13.5364 29.3597 14.4731 30.333 14.8365V24.4899C30.333 28.6299 26.9631 32 22.8199 32C20.9499 32 19.4198 30.5167 19.3399 28.6667C19.8866 28.6633 20.3332 28.2167 20.3332 27.6667H21.6665C22.9532 27.6667 23.9998 26.6199 23.9998 25.3333V2.33336C23.9998 1.0467 22.9532 0 21.6665 0H2.33336C1.0467 0 0 1.04665 0 2.33336V25.3333C0 26.6199 1.04665 27.6667 2.33336 27.6667H16.3332C16.3332 28.2167 16.7833 28.6667 17.3332 28.6667H17.3499C17.5066 31.6333 19.9598 34 22.9665 34H23.3965C28.3232 34 32.333 29.99 32.333 25.0601V14.8366C33.3064 14.4734 33.9997 13.5367 33.9997 12.4401V10C33.9997 9.81671 33.8498 9.6664 33.6664 9.6664ZM30.3331 7.3098C30.3331 7.1398 30.4731 6.99983 30.6431 6.99983H32.0231C32.1931 6.99983 32.3332 7.1398 32.3332 7.3098V9.6664H30.3331V7.3098ZM0.666479 2.33313C0.666479 1.41314 1.41314 0.666479 2.33313 0.666479H21.6663C22.5863 0.666479 23.3329 1.41314 23.3329 2.33313V20.3334H21.6663V3.66687C21.6663 2.93021 21.0696 2.33356 20.333 2.33356H3.66645C2.92978 2.33356 2.33313 2.93021 2.33313 3.66687V20.3334H0.666479V2.33313ZM20.9998 3.66645V20.333H2.99948V3.66645C2.99948 3.29981 3.29953 2.99977 3.66616 2.99977H20.3327C20.6993 2.99977 20.9998 3.29981 20.9998 3.66645ZM15.6664 24.3335H16.333V27H2.33326C1.41327 27 0.666606 26.2535 0.666606 25.3335V21.0002H23.3333V25.3335C23.3333 26.2535 22.5867 27 21.6666 27H20.3334V24.3335H21.0001C21.1834 24.3335 21.3334 24.1834 21.3334 24.0001C21.3334 23.8167 21.1834 23.6668 21.0001 23.6668H15.6666C15.4833 23.6668 15.3333 23.8167 15.3333 24.0001C15.3333 24.1834 15.483 24.3335 15.6664 24.3335ZM17.3331 28C17.1497 28 16.9997 27.85 16.9997 27.6667V24.3335H19.6664V27.6667C19.6664 27.85 19.5164 28 19.3331 28H17.3331ZM31.6665 25.0601C31.6665 29.6232 27.9566 33.3336 23.3931 33.3336H22.963C20.3263 33.3336 18.1631 31.2669 18.0064 28.6667H18.6664C18.7497 30.8868 20.5797 32.6668 22.8198 32.6668C27.3297 32.6668 30.9998 28.9967 30.9998 24.4866V14.9865C31.0732 14.9932 31.1498 14.9964 31.2265 14.9964H31.4398C31.5165 14.9964 31.5898 14.9932 31.6665 14.9865V25.0601ZM33.3332 12.4401C33.3332 13.4834 32.4832 14.3334 31.4398 14.3334H31.2265C30.1831 14.3334 29.3331 13.4834 29.3331 12.4401V10.3335H33.3332V12.4401Z" fill="#FA7436"/>
</svg>
