<svg width="11" height="20" viewBox="0 0 11 20" fill="none" xmlns="http://www.w3.org/2000/svg">
<path d="M9.04219 5.76978L10.2211 9.29543H10.7885V10.0006H10.6673C10.5939 10.2099 10.491 10.4009 10.3588 10.5735C10.2266 10.7461 10.0723 10.8948 9.89604 11.0197C9.71979 11.1446 9.52881 11.24 9.32311 11.3061C9.1175 11.3722 8.9008 11.4071 8.6731 11.4108C8.44906 11.4108 8.23422 11.3778 8.02855 11.3117C7.82289 11.2455 7.63192 11.1501 7.45564 11.0252C7.27935 10.9003 7.12511 10.7516 6.9929 10.579C6.86069 10.4064 6.75602 10.2136 6.6789 10.0006H6.5577V9.29543H7.12511L8.304 5.76978H5.85258V13.5372C6.46589 13.5776 7.04615 13.7153 7.59336 13.9504C8.14057 14.1854 8.64187 14.5141 9.09727 14.9365H10.0834V15.6416H0.916674V14.9365H1.90276C2.35448 14.5178 2.85394 14.1909 3.40115 13.9559C3.94836 13.7209 4.53046 13.5813 5.14744 13.5372V5.76978H2.69603L3.87491 9.29543H4.44232V10.0006H4.32112C4.24767 10.2099 4.14484 10.4009 4.01263 10.5735C3.88042 10.7461 3.72617 10.8948 3.54989 11.0197C3.37361 11.1446 3.18263 11.24 2.97697 11.3061C2.77131 11.3722 2.55463 11.4071 2.32693 11.4108C2.10291 11.4108 1.88807 11.3778 1.6824 11.3117C1.47673 11.2455 1.28577 11.1501 1.10949 11.0252C0.933199 10.9003 0.778955 10.7516 0.646743 10.579C0.514532 10.4064 0.409865 10.2136 0.332742 10.0006H0.211548V9.29543H0.778955L1.95784 5.76978H0.211548V5.06466H5.14744V4.35953H5.85258V5.06466H10.7885V5.76978H9.04219ZM2.32693 6.88257L1.52265 9.29543H3.13122L2.32693 6.88257ZM3.38463 10.0006C3.63803 10.0006 2.81538 10.6432 3.03206 10.5184C3.24874 10.3935 3.25609 10.5735 3.38463 10.3531C2.73117 11.4733 1.26924 10.7057 1.10398 10.0006C1.23252 10.2209 1.40512 10.3935 1.62181 10.5184C1.83848 10.6432 3.13122 10.0006 3.38463 10.0006ZM7.94592 14.9365C7.57867 14.705 7.18755 14.5306 6.77254 14.4131C6.35754 14.2956 5.93337 14.235 5.50001 14.2314C5.06665 14.2314 4.64247 14.2901 4.22747 14.4076C3.81247 14.5251 3.42135 14.7014 3.05409 14.9365H7.94592ZM8.6731 6.88257L7.8688 9.29543H9.47736L8.6731 6.88257ZM8.6731 10.7057C8.92652 10.7057 9.1615 10.6432 9.3782 10.5184C9.5949 10.3935 8.89707 10.926 9.02569 10.7057H8.6731L8.32052 11.0582C8.44906 11.2786 7.75128 10.3935 7.96795 10.5184C8.18464 10.6432 8.41968 10.7057 8.6731 10.7057Z" fill="#FA7436"/>
</svg>
