<svg width="22" height="22" viewBox="0 0 22 22" fill="none" xmlns="http://www.w3.org/2000/svg">
<g clip-path="url(#clip0_142_189)">
<g clip-path="url(#clip1_142_189)">
<g clip-path="url(#clip2_142_189)">
<mask id="mask0_142_189" style="mask-type:luminance" maskUnits="userSpaceOnUse" x="0" y="0" width="22" height="22">
<path d="M22 0H0V22H22V0Z" fill="white"/>
</mask>
<g mask="url(#mask0_142_189)">
<path d="M1.49579 11.5555V3.68275H4.82879L4.99709 3.66295C8.09139 2.94135 10.1418 2.42105 11.1637 2.09875C12.5211 1.67085 13.0271 1.56635 13.9478 1.50475C14.6364 1.45745 15.4185 1.72255 15.7749 2.08555C15.9718 2.28575 16.1192 2.69715 16.1775 3.33515C16.1895 3.46893 16.2374 3.59702 16.3159 3.70597C16.3945 3.81493 16.5009 3.90074 16.6241 3.95445C16.898 4.07324 17.1257 4.26685 17.316 4.54845C17.492 4.80585 17.6064 5.28545 17.6273 5.97955C17.631 6.10715 17.6671 6.23171 17.7324 6.34142C17.7976 6.45115 17.8899 6.5424 18.0002 6.60655C18.6404 6.97725 18.9572 7.39525 19.0232 7.88585C19.0958 8.42815 18.9198 9.03865 18.4589 9.73387C18.3507 9.89685 18.3105 10.0957 18.3466 10.288C18.3827 10.4802 18.4926 10.6508 18.6525 10.7635C19.0936 11.0737 19.3356 11.5049 19.3961 12.1165C19.4929 13.0911 18.8714 13.8116 17.4645 13.9557C16.2114 14.0796 14.9463 13.9741 13.7311 13.6444C13.5932 13.6083 13.448 13.6124 13.3124 13.6562C13.1768 13.6999 13.0564 13.7814 12.9656 13.8912C12.8749 14.001 12.8172 14.1344 12.7997 14.2759C12.7821 14.4172 12.8053 14.5607 12.8665 14.6894C13.4165 15.8532 13.7223 16.8135 13.7938 17.5571C13.8873 18.5438 13.6596 19.2588 13.1272 19.8484C12.7235 20.295 12.0778 20.5502 11.8358 20.4974C11.5168 20.4292 11.3089 20.2444 11.0383 19.5976C10.8788 19.2148 10.8018 18.8892 10.6698 18.1291C10.5433 17.4075 10.474 17.0819 10.3299 16.6551C9.89542 15.3615 8.82949 14.0206 7.39839 13.0955C6.3954 12.4478 5.30839 11.9408 4.16769 11.5885C4.09643 11.5665 4.02226 11.5554 3.94769 11.5555H1.49579ZM1.44959 2.18345C1.09429 2.17355 0.775287 2.25275 0.507987 2.43975C0.166987 2.67845 0.00638766 3.05465 0.00308766 3.48805L0.00638766 11.5434C-0.0310123 11.9724 0.0954873 12.3662 0.394687 12.6588C0.675187 12.9338 1.04149 13.0636 1.42869 13.0548H3.83219C4.80443 13.3645 5.73136 13.8018 6.58879 14.355C7.74159 15.1008 8.59079 16.17 8.91529 17.1336C9.02639 17.4658 9.08579 17.7408 9.19802 18.3876C9.34982 19.2555 9.44442 19.6592 9.66222 20.1784C10.1132 21.2586 10.705 21.7866 11.5212 21.9637C12.3242 22.1375 13.4935 21.6744 14.2327 20.856C15.0522 19.9496 15.4141 18.8155 15.2799 17.4141C15.2227 16.8113 15.0555 16.137 14.7805 15.3857C15.7196 15.5225 16.6721 15.5432 17.6163 15.4473C19.824 15.2218 21.0637 13.7841 20.8833 11.9669C20.8041 11.1837 20.5203 10.5182 20.0374 9.99567C20.4433 9.21357 20.605 8.44025 20.5038 7.68565C20.3872 6.81665 19.9032 6.09285 19.098 5.53075C19.0353 4.76845 18.8604 4.16015 18.5502 3.70475C18.3057 3.33683 17.9868 3.02429 17.6141 2.78735C17.4953 2.03495 17.2456 1.44644 16.8375 1.03285C16.161 0.344249 14.9521 -0.0660526 13.8477 0.00874754C12.7994 0.0791487 12.179 0.206749 10.716 0.668748C9.75132 0.973452 7.75369 1.47945 4.74299 2.18345H1.44849H1.44959ZM3.32069 11.8976C3.3204 11.9959 3.33954 12.0935 3.37699 12.1845C3.41445 12.2755 3.46951 12.3582 3.53899 12.4279C3.60848 12.4976 3.69104 12.5529 3.78193 12.5906C3.87282 12.6283 3.97028 12.6478 4.06869 12.6478C4.16692 12.6475 4.26412 12.6278 4.35477 12.5899C4.44541 12.5521 4.52771 12.4968 4.59696 12.4271C4.66622 12.3575 4.72107 12.2749 4.75839 12.1839C4.79572 12.0931 4.81477 11.9957 4.81449 11.8976V3.45175C4.81464 3.35352 4.79543 3.25623 4.75797 3.16541C4.72051 3.07461 4.66554 2.99207 4.59618 2.92251C4.52682 2.85295 4.44445 2.79773 4.35375 2.76001C4.26306 2.72229 4.16582 2.70279 4.06759 2.70265C3.96936 2.70279 3.87212 2.72229 3.78142 2.76001C3.69073 2.79773 3.60835 2.85295 3.53899 2.92251C3.46964 2.99207 3.41467 3.07461 3.3772 3.16541C3.33975 3.25623 3.32054 3.35352 3.32069 3.45175V11.8976Z" fill="#EBC83A"/>
</g>
</g>
</g>
</g>
<defs>
<clipPath id="clip0_142_189">
<rect width="22" height="22" fill="white"/>
</clipPath>
<clipPath id="clip1_142_189">
<rect width="22" height="22" fill="white"/>
</clipPath>
<clipPath id="clip2_142_189">
<rect width="22" height="22" fill="white"/>
</clipPath>
</defs>
</svg>
