<svg width="33" height="33" viewBox="0 0 33 33" fill="none" xmlns="http://www.w3.org/2000/svg">
<g clip-path="url(#clip0_52_27)">
<g clip-path="url(#clip1_52_27)">
<path d="M10.8281 12.375H7.73438C6.8836 12.375 6.1875 13.0711 6.1875 13.9219V15.9844C6.1875 16.8352 6.8836 17.5312 7.73438 17.5312H10.8281C11.6789 17.5312 12.375 16.8352 12.375 15.9844V13.9219C12.375 13.0711 11.6789 12.375 10.8281 12.375ZM11.3438 15.9844C11.3438 16.268 11.1117 16.5 10.8281 16.5H7.73438C7.45079 16.5 7.21875 16.268 7.21875 15.9844V13.9219C7.21875 13.6383 7.45079 13.4062 7.73438 13.4062H10.8281C11.1117 13.4062 11.3438 13.6383 11.3438 13.9219V15.9844Z" fill="#FFC1A6"/>
<path d="M18.0469 12.375H14.9531C14.1023 12.375 13.4062 13.0711 13.4062 13.9219V15.9844C13.4062 16.8352 14.1023 17.5312 14.9531 17.5312H18.0469C18.8977 17.5312 19.5938 16.8352 19.5938 15.9844V13.9219C19.5938 13.0711 18.8977 12.375 18.0469 12.375ZM18.5625 15.9844C18.5625 16.268 18.3305 16.5 18.0469 16.5H14.9531C14.6695 16.5 14.4375 16.268 14.4375 15.9844V13.9219C14.4375 13.6383 14.6695 13.4062 14.9531 13.4062H18.0469C18.3305 13.4062 18.5625 13.6383 18.5625 13.9219V15.9844Z" fill="#FFC1A6"/>
<path d="M25.2656 12.375H22.1719C21.3211 12.375 20.625 13.0711 20.625 13.9219V15.9844C20.625 16.8352 21.3211 17.5312 22.1719 17.5312H25.2656C26.1164 17.5312 26.8125 16.8352 26.8125 15.9844V13.9219C26.8125 13.0711 26.1164 12.375 25.2656 12.375ZM25.7812 15.9844C25.7812 16.268 25.5492 16.5 25.2656 16.5H22.1719C21.8883 16.5 21.6562 16.268 21.6562 15.9844V13.9219C21.6562 13.6383 21.8883 13.4062 22.1719 13.4062H25.2656C25.5492 13.4062 25.7812 13.6383 25.7812 13.9219V15.9844Z" fill="#FFC1A6"/>
<path d="M10.8281 18.5625H7.73438C6.8836 18.5625 6.1875 19.2586 6.1875 20.1094V22.1719C6.1875 23.0227 6.8836 23.7188 7.73438 23.7188H10.8281C11.6789 23.7188 12.375 23.0227 12.375 22.1719V20.1094C12.375 19.2586 11.6789 18.5625 10.8281 18.5625ZM11.3438 22.1719C11.3438 22.4555 11.1117 22.6875 10.8281 22.6875H7.73438C7.45079 22.6875 7.21875 22.4555 7.21875 22.1719V20.1094C7.21875 19.8258 7.45079 19.5938 7.73438 19.5938H10.8281C11.1117 19.5938 11.3438 19.8258 11.3438 20.1094V22.1719Z" fill="#FFC1A6"/>
<path d="M18.0469 18.5625H14.9531C14.1023 18.5625 13.4062 19.2586 13.4062 20.1094V22.1719C13.4062 23.0227 14.1023 23.7188 14.9531 23.7188H18.0469C18.8977 23.7188 19.5938 23.0227 19.5938 22.1719V20.1094C19.5938 19.2586 18.8977 18.5625 18.0469 18.5625ZM18.5625 22.1719C18.5625 22.4555 18.3305 22.6875 18.0469 22.6875H14.9531C14.6695 22.6875 14.4375 22.4555 14.4375 22.1719V20.1094C14.4375 19.8258 14.6695 19.5938 14.9531 19.5938H18.0469C18.3305 19.5938 18.5625 19.8258 18.5625 20.1094V22.1719Z" fill="#FFC1A6"/>
<path d="M25.2656 18.5625H22.1719C21.3211 18.5625 20.625 19.2586 20.625 20.1094V28.3594C20.625 29.2102 21.3211 29.9062 22.1719 29.9062H25.2656C26.1164 29.9062 26.8125 29.2102 26.8125 28.3594V20.1094C26.8125 19.2586 26.1164 18.5625 25.2656 18.5625ZM25.7812 28.3594C25.7812 28.643 25.5492 28.875 25.2656 28.875H22.1719C21.8883 28.875 21.6562 28.643 21.6562 28.3594V20.1094C21.6562 19.8258 21.8883 19.5938 22.1719 19.5938H25.2656C25.5492 19.5938 25.7812 19.8258 25.7812 20.1094V28.3594Z" fill="#FFC1A6"/>
<path d="M10.8281 24.75H7.73438C6.8836 24.75 6.1875 25.4461 6.1875 26.2969V28.3594C6.1875 29.2102 6.8836 29.9062 7.73438 29.9062H10.8281C11.6789 29.9062 12.375 29.2102 12.375 28.3594V26.2969C12.375 25.4461 11.6789 24.75 10.8281 24.75ZM11.3438 28.3594C11.3438 28.643 11.1117 28.875 10.8281 28.875H7.73438C7.45079 28.875 7.21875 28.643 7.21875 28.3594V26.2969C7.21875 26.0133 7.45079 25.7812 7.73438 25.7812H10.8281C11.1117 25.7812 11.3438 26.0133 11.3438 26.2969V28.3594Z" fill="#FFC1A6"/>
<path d="M18.0469 24.75H14.9531C14.1023 24.75 13.4062 25.4461 13.4062 26.2969V28.3594C13.4062 29.2102 14.1023 29.9062 14.9531 29.9062H18.0469C18.8977 29.9062 19.5938 29.2102 19.5938 28.3594V26.2969C19.5938 25.4461 18.8977 24.75 18.0469 24.75ZM18.5625 28.3594C18.5625 28.643 18.3305 28.875 18.0469 28.875H14.9531C14.6695 28.875 14.4375 28.643 14.4375 28.3594V26.2969C14.4375 26.0133 14.6695 25.7812 14.9531 25.7812H18.0469C18.3305 25.7812 18.5625 26.0133 18.5625 26.2969V28.3594Z" fill="#FFC1A6"/>
<path d="M26.2969 1.03125H6.70312C5.28 1.03125 4.125 2.18625 4.125 3.60938V29.3906C4.125 30.8137 5.28 31.9688 6.70312 31.9688H26.2969C27.72 31.9688 28.875 30.8137 28.875 29.3906V3.60938C28.875 2.18625 27.72 1.03125 26.2969 1.03125ZM27.8438 29.3906C27.8438 30.2414 27.1477 30.9375 26.2969 30.9375H6.70312C5.85234 30.9375 5.15625 30.2414 5.15625 29.3906V3.60938C5.15625 2.75859 5.85234 2.0625 6.70312 2.0625H26.2969C27.1477 2.0625 27.8438 2.75859 27.8438 3.60938V29.3906Z" fill="#FFC1A6"/>
<path d="M25.2656 3.09375H7.73438C6.8836 3.09375 6.1875 3.78985 6.1875 4.64062V9.79688C6.1875 10.6477 6.8836 11.3438 7.73438 11.3438H25.2656C26.1164 11.3438 26.8125 10.6477 26.8125 9.79688V4.64062C26.8125 3.78985 26.1164 3.09375 25.2656 3.09375ZM25.7812 9.79688C25.7812 10.0805 25.5492 10.3125 25.2656 10.3125H7.73438C7.45079 10.3125 7.21875 10.0805 7.21875 9.79688V4.64062C7.21875 4.35704 7.45079 4.125 7.73438 4.125H25.2656C25.5492 4.125 25.7812 4.35704 25.7812 4.64062V9.79688Z" fill="#FFC1A6"/>
<path d="M24.2344 5.15625C23.9508 5.15625 23.7188 5.38828 23.7188 5.67188V8.76562C23.7188 9.0492 23.9508 9.28125 24.2344 9.28125C24.5179 9.28125 24.75 9.0492 24.75 8.76562V5.67188C24.75 5.38828 24.5179 5.15625 24.2344 5.15625Z" fill="#FA7436"/>
<path d="M21.6562 5.15625H20.625C20.0578 5.15625 19.5938 5.62031 19.5938 6.1875V8.25C19.5938 8.81715 20.0578 9.28125 20.625 9.28125H21.6562C22.2234 9.28125 22.6875 8.81715 22.6875 8.25V6.1875C22.6875 5.62031 22.2234 5.15625 21.6562 5.15625ZM20.625 8.25V6.1875H21.6562V8.25H20.625Z" fill="#FA7436"/>
</g>
</g>
<defs>
<clipPath id="clip0_52_27">
<rect width="33" height="33" fill="white"/>
</clipPath>
<clipPath id="clip1_52_27">
<rect width="33" height="33" fill="white"/>
</clipPath>
</defs>
</svg>
