<svg width="49" height="49" viewBox="0 0 49 49" fill="none" xmlns="http://www.w3.org/2000/svg">
<g clip-path="url(#clip0_52_92)">
<path d="M43.87 29.0519H37.883C38.1474 28.8285 38.3936 28.5731 38.6035 28.2859C39.3513 27.2599 39.6021 25.9649 39.3011 24.7247C38.9911 23.4662 39.4151 22.162 40.4046 21.3277L40.4137 21.3186C41.3803 20.5024 41.9366 19.3031 41.9366 18.0355C41.9366 16.7679 41.3803 15.5732 40.4046 14.7479C39.4151 13.9089 38.991 12.6094 39.3011 11.3417C39.6021 10.1106 39.3513 8.81551 38.6035 7.7896C37.8556 6.7636 36.702 6.12076 35.4298 6.02954C34.1349 5.93373 33.0268 5.13123 32.539 3.92748C32.0602 2.75101 31.0935 1.8527 29.8852 1.46063C28.6766 1.0637 27.368 1.22326 26.2873 1.89357C26.2873 1.89816 26.2827 1.89816 26.2782 1.90266C25.1793 2.58207 23.8205 2.57748 22.7215 1.90266C22.717 1.89807 22.7125 1.89807 22.7125 1.89357C21.6318 1.22326 20.3185 1.0637 19.1147 1.46035C17.9064 1.85251 16.9397 2.75082 16.4609 3.9272C15.9685 5.13095 14.865 5.93354 13.5609 6.02926C12.2978 6.12048 11.1442 6.76341 10.3963 7.78932C9.64848 8.81523 9.3977 10.1103 9.69864 11.3505C10.0087 12.609 9.58464 13.9086 8.59061 14.7521C7.61936 15.5729 7.06305 16.7676 7.06305 18.0353C7.06305 19.3074 7.61936 20.5021 8.59511 21.3275C9.58454 22.1665 10.0087 23.466 9.69854 24.7337C9.39761 25.9648 9.64839 27.2598 10.3962 28.2858C10.606 28.573 10.8522 28.8284 11.1167 29.0518H5.12973C3.74814 29.0518 2.62183 30.1781 2.62183 31.5597V45.2484C2.62183 46.6299 3.74804 47.7563 5.12973 47.7563H43.87C45.2515 47.7563 46.3779 46.6299 46.3779 45.2484V31.5598C46.3779 30.1781 45.2516 29.0519 43.87 29.0519ZM10.5879 24.9389C10.98 23.343 10.442 21.6924 9.17889 20.6254C8.41286 19.9779 7.97504 19.0386 7.97504 18.0354C7.97504 17.0368 8.41276 16.0975 9.18798 15.4455C10.4419 14.383 10.98 12.7324 10.5833 11.1228C10.3462 10.1561 10.5468 9.13473 11.135 8.32763C11.7232 7.51604 12.6306 7.00988 13.6338 6.93685C15.2754 6.81826 16.6843 5.79685 17.3045 4.26938C17.683 3.3437 18.4445 2.63691 19.3975 2.32688C20.3459 2.01685 21.3718 2.13995 22.22 2.66429C22.2246 2.66888 22.2291 2.66888 22.2291 2.66888C23.629 3.53982 25.3707 3.53982 26.7706 2.66888C26.7706 2.66888 26.7752 2.66888 26.7797 2.66429C27.6279 2.13985 28.6538 2.01676 29.6068 2.32688C30.5553 2.63691 31.3167 3.3437 31.6952 4.26938C32.3154 5.79695 33.7197 6.81835 35.3704 6.94145C36.369 7.01438 37.2764 7.51595 37.8646 8.32763C38.4528 9.13473 38.6534 10.1561 38.4118 11.1365C38.0197 12.7324 38.5577 14.383 39.8208 15.45C40.5868 16.0975 41.0246 17.0368 41.0246 18.0354C41.0246 19.0386 40.5869 19.9779 39.8208 20.6254C39.8071 20.6345 39.798 20.6436 39.7934 20.6482C39.7934 20.6482 39.7889 20.6482 39.7843 20.6528V20.6574C38.5486 21.7152 38.0242 23.3568 38.4164 24.9481C38.6535 25.9194 38.4529 26.9408 37.8647 27.7479C37.2765 28.5594 36.3691 29.0611 35.3659 29.1386C33.7243 29.2572 32.3154 30.2786 31.6952 31.8061C31.3167 32.7318 30.5552 33.4386 29.6022 33.7486C28.6584 34.0586 27.6279 33.9355 26.7797 33.4112C26.7751 33.4066 26.7706 33.4066 26.7706 33.4021C25.3707 32.5358 23.629 32.5358 22.2291 33.4021C22.2291 33.4067 22.2245 33.4067 22.22 33.4112C21.3718 33.9356 20.3459 34.0587 19.3929 33.7486C18.4444 33.4386 17.683 32.7318 17.3045 31.8061C16.6843 30.2785 15.28 29.2571 13.6293 29.134C12.6307 29.0611 11.7233 28.5595 11.1351 27.7479C10.5469 26.9407 10.3462 25.9193 10.5879 24.9389ZM43.0082 43.5658C43.0082 44.0172 42.6388 44.3866 42.1874 44.3866H6.81236C6.36095 44.3866 5.99158 44.0172 5.99158 43.5658V33.2424C5.99158 32.7909 6.36095 32.4216 6.81236 32.4216H16.5886C17.0993 33.4612 18.0022 34.2547 19.1147 34.6149C20.323 35.0116 21.6317 34.8519 22.7125 34.1816C22.7125 34.177 22.717 34.177 22.7215 34.1725C23.8205 33.4931 25.1793 33.4931 26.2782 34.1725C26.2827 34.1771 26.2873 34.1771 26.2873 34.1816C26.9804 34.6103 27.7647 34.8292 28.5535 34.8292C29.0004 34.8292 29.4519 34.7562 29.885 34.6149C30.9976 34.2547 31.9004 33.4612 32.4111 32.4216H42.1873C42.6387 32.4216 43.0081 32.7909 43.0081 33.2424L43.0082 43.5658Z" fill="#FFC1A6"/>
<path d="M13.611 37.0355C13.611 36.0278 12.7902 35.207 11.7825 35.207H10.1227C9.87197 35.207 9.66675 35.4123 9.66675 35.663V41.1439C9.66675 41.3947 9.87197 41.5999 10.1227 41.5999H11.7825C12.7902 41.5999 13.611 40.7792 13.611 39.7714C13.611 39.2242 13.3602 38.7363 12.9772 38.4035C13.3602 38.0706 13.611 37.5827 13.611 37.0355ZM11.7825 40.6879H10.5787V38.8594H11.7825C12.2887 38.8594 12.699 39.2699 12.699 39.7714C12.6991 40.2776 12.2887 40.6879 11.7825 40.6879ZM11.7825 37.9475H10.5787V36.119H11.7825C12.2887 36.119 12.699 36.5295 12.699 37.0355C12.6991 37.5371 12.2887 37.9475 11.7825 37.9475Z" fill="#FA7436"/>
<path d="M19.68 37.0355C19.68 36.0278 18.8592 35.207 17.8515 35.207H16.4836C16.2328 35.207 16.0276 35.4123 16.0276 35.663V41.1439C16.0276 41.3947 16.2328 41.5999 16.4836 41.5999C16.7344 41.5999 16.9396 41.3947 16.9396 41.1439V38.8594H17.8516C18.3577 38.8594 18.7681 39.2699 18.7681 39.7714V41.1439C18.7681 41.3947 18.9733 41.5999 19.2241 41.5999C19.4749 41.5999 19.6801 41.3947 19.6801 41.1439V39.7714C19.6801 39.2242 19.4293 38.7363 19.0462 38.4035C19.4292 38.0706 19.68 37.5827 19.68 37.0355ZM17.8516 37.9475H16.9396V36.119H17.8516C18.3577 36.119 18.7681 36.5295 18.7681 37.0355C18.7681 37.5371 18.3577 37.9475 17.8516 37.9475Z" fill="#FA7436"/>
<path d="M24.0348 35.207C23.0271 35.207 22.2109 36.0278 22.2109 37.0355V41.1439C22.2109 41.3947 22.4116 41.5999 22.6669 41.5999C22.9177 41.5999 23.1229 41.3947 23.1229 41.1439V38.8594H24.9468V41.1439C24.9468 41.3947 25.1521 41.5999 25.4028 41.5999C25.6582 41.5999 25.8588 41.3947 25.8588 41.1439C25.8588 40.9707 25.8588 37.0264 25.8588 37.0264C25.8542 36.0232 25.038 35.207 24.0348 35.207ZM24.9467 37.9475H23.1228V37.0355C23.1228 36.5294 23.5333 36.119 24.0348 36.119C24.5364 36.119 24.9468 36.5295 24.9468 37.0355L24.9467 37.9475Z" fill="#FA7436"/>
<path d="M31.2084 35.6631V39.2102L29.333 35.4592C29.2382 35.2699 29.026 35.1718 28.8203 35.2194C28.6146 35.268 28.4692 35.4516 28.4692 35.6631V41.1416C28.4692 41.3934 28.6734 41.5976 28.9252 41.5976C29.1771 41.5976 29.3812 41.3934 29.3812 41.1416V37.5946L31.2566 41.3455C31.3352 41.5024 31.4946 41.5975 31.6642 41.5975C31.9164 41.5975 32.1204 41.3932 32.1204 41.1415V35.663C32.1204 35.4112 31.9162 35.207 31.6644 35.207C31.4126 35.2071 31.2084 35.4113 31.2084 35.6631Z" fill="#FA7436"/>
<path d="M36.1367 35.207H35.4025C35.1472 35.207 34.9465 35.4123 34.9465 35.663V41.1439C34.9465 41.3947 35.1472 41.5999 35.4025 41.5999H36.1367C37.8968 41.5999 39.3331 40.1636 39.3331 38.4035C39.3331 36.6435 37.8968 35.207 36.1367 35.207ZM36.1367 40.6879H35.8585V36.119H36.1367C37.3952 36.119 38.4212 37.145 38.4212 38.4035C38.4212 39.662 37.3952 40.6879 36.1367 40.6879Z" fill="#FA7436"/>
<path d="M24.4998 7.4375C18.6541 7.4375 13.8982 12.1888 13.8982 18.0345C13.8982 23.8802 18.6541 28.6362 24.4998 28.6362C30.3455 28.6362 35.1014 23.8802 35.1014 18.0345C35.1014 12.1888 30.3455 7.4375 24.4998 7.4375ZM31.18 16.9128L28.2298 19.7901L28.9228 23.8483C28.9548 24.0216 28.8818 24.1948 28.7404 24.2952C28.6036 24.3955 28.4167 24.4092 28.2616 24.3316L24.6138 22.4119L20.9705 24.3316C20.8154 24.4092 20.6285 24.3955 20.4871 24.2952C20.3458 24.1948 20.2774 24.0216 20.3047 23.8483L21.0024 19.7901L18.0522 16.9128C17.9291 16.7897 17.8834 16.6073 17.9382 16.4431C17.9929 16.279 18.1342 16.1604 18.3075 16.1331L22.384 15.5403L24.2079 11.8468C24.3584 11.5368 24.8691 11.5368 25.0241 11.8468L26.848 15.5403L30.9244 16.1331C31.0977 16.1605 31.239 16.279 31.2938 16.4431C31.3487 16.6073 31.3031 16.7897 31.18 16.9128Z" fill="#FA7436"/>
<path d="M27.286 19.7035L27.8696 23.0915L24.8282 21.4956C24.696 21.4226 24.5364 21.4226 24.4042 21.4956L21.3627 23.0915L21.9418 19.7035C21.9692 19.5577 21.9191 19.4071 21.8096 19.3023L19.3518 16.9038L22.7534 16.4113C22.8993 16.3885 23.027 16.2927 23.0954 16.1605L24.6139 13.0781L26.1369 16.1605C26.2007 16.2928 26.3329 16.3885 26.4789 16.4113L29.8805 16.9038L27.4182 19.3023C27.3133 19.4071 27.2632 19.5576 27.286 19.7035Z" fill="#FA7436"/>
</g>
<defs>
<clipPath id="clip0_52_92">
<rect width="48" height="48" fill="white" transform="translate(0.5 0.5)"/>
</clipPath>
</defs>
</svg>
