<svg width="35" height="36" viewBox="0 0 35 36" fill="none" xmlns="http://www.w3.org/2000/svg">
<g clip-path="url(#clip0_329_160)">
<g clip-path="url(#clip1_329_160)">
<path d="M7.65006 32.4007C7.38188 32.3443 7.10624 32.302 6.84551 32.2315C3.94018 31.4843 2.25658 28.8973 2.8004 26.0918C3.47086 22.6378 4.08917 19.1766 4.74473 15.7155C4.91607 14.8062 4.98312 13.8686 5.40774 13.0157C6.36129 11.0773 7.97784 10.0128 10.235 9.89299C11.2408 9.83659 12.2539 9.87889 13.267 9.87889C13.3713 9.87889 13.483 9.87889 13.647 9.87889C12.8424 8.63825 12.6487 7.36941 13.2223 6.04419C13.5724 5.2406 14.1535 4.61323 14.9432 4.16209C16.4926 3.2739 18.5115 3.43603 19.8673 4.57094C20.6645 5.23354 21.1486 6.05829 21.2827 7.05926C21.4242 8.06023 21.1635 8.96956 20.5676 9.85774C20.7166 9.86479 20.8208 9.87184 20.9177 9.87184C21.9085 9.87184 22.8993 9.8507 23.89 9.88594C26.557 9.97053 28.6951 11.6905 29.1718 14.1718C29.7454 17.1464 30.2893 20.1283 30.8479 23.11C31.0565 24.2167 31.2801 25.3234 31.4514 26.4301C31.9058 29.2779 29.8348 31.8932 26.8103 32.3443C26.7209 32.3584 26.639 32.3866 26.557 32.4078C20.2621 32.4007 13.9524 32.4007 7.65006 32.4007ZM17.0961 30.7019C20.0312 30.7019 22.9663 30.7089 25.894 30.7019C28.181 30.6949 29.8646 29.0312 29.7007 26.9095C29.6486 26.1834 29.4623 25.4644 29.3283 24.7454C28.7024 21.3971 28.0692 18.0488 27.4584 14.7004C27.1082 12.7902 25.6407 11.5707 23.5921 11.5707C21.3944 11.5707 19.1894 11.5707 16.9918 11.5707C14.7644 11.5707 12.5295 11.5354 10.3021 11.5848C8.87923 11.62 7.82884 12.3109 7.15093 13.5092C6.77846 14.1718 6.72632 14.9048 6.58477 15.6239C5.95156 18.9792 5.3258 22.3346 4.70003 25.697C4.55849 26.4442 4.38715 27.1844 4.57339 27.9527C4.96822 29.5881 6.47303 30.7019 8.32796 30.7019C11.2482 30.7089 14.1758 30.7019 17.0961 30.7019ZM17.0737 9.86479C18.3625 9.90708 19.4874 8.86382 19.5246 7.59499C19.5619 6.3755 18.4966 5.31814 17.1482 5.28994C15.8744 5.26174 14.7271 6.15698 14.6899 7.5386C14.6675 8.75808 15.636 9.80135 17.0737 9.86479Z" fill="url(#paint0_linear_329_160)"/>
<path d="M21.9763 22.2509C21.8342 22.2509 21.7058 22.2572 21.584 22.2509C21.1377 22.2318 20.7996 21.9017 20.7928 21.5019C20.786 21.1019 21.1309 20.7529 21.5638 20.7338C22.0033 20.7211 22.4429 20.7211 22.8824 20.7338C23.2612 20.7464 23.5925 21.0131 23.6263 21.3558C23.6872 22.0478 23.6872 22.7396 23.2679 23.3617C22.754 24.1235 22.0101 24.5424 21.0498 24.5488C20.0963 24.5551 19.3389 24.1488 18.8182 23.3871C18.5409 22.9808 18.4192 22.5239 18.4192 22.0414C18.4192 21.5272 18.4125 21.0131 18.4192 20.4989C18.4462 19.0389 19.677 17.9217 21.1715 18.0042C21.9357 18.0423 22.5714 18.3534 23.0583 18.9056C23.3558 19.2484 23.322 19.6991 22.9974 19.9784C22.666 20.2577 22.1791 20.2513 21.8613 19.9276C21.5638 19.6293 21.2256 19.4579 20.786 19.5658C20.4141 19.6547 20.0963 19.9594 20.0828 20.3148C20.0625 20.956 20.0558 21.597 20.0828 22.2382C20.1031 22.6825 20.5358 23.0126 21.016 23.019C21.5029 23.0253 21.9019 22.727 21.9763 22.2509Z" fill="url(#paint1_linear_329_160)"/>
<path d="M13.4713 22.1254C13.4713 22.7146 13.4779 23.2468 13.4713 23.7853C13.4646 24.3048 12.9977 24.6406 12.4773 24.5265C12.1105 24.4442 11.8703 24.1465 11.8703 23.7346C11.8637 22.7399 11.8703 21.7452 11.8703 20.7504C11.8703 20.1106 11.8703 19.4706 11.8703 18.8307C11.8703 18.3429 12.2038 18.0007 12.6707 18.0007C13.131 18.0007 13.4713 18.3429 13.4713 18.8307C13.4779 19.3439 13.4713 19.8571 13.4713 20.4337C13.578 20.3386 13.6447 20.2816 13.7048 20.2182C14.3584 19.5783 15.0121 18.9385 15.6659 18.2922C15.886 18.0705 16.1461 17.95 16.4731 18.0198C17.1001 18.1528 17.3135 18.8497 16.8666 19.3122C16.3263 19.8634 15.7726 20.3957 15.2189 20.9279C15.1056 21.0355 14.9655 21.1179 14.8254 21.2193C14.9522 21.346 15.0121 21.4157 15.0788 21.4791C15.6726 22.062 16.2663 22.6385 16.8532 23.2214C17.0934 23.4622 17.1734 23.7473 17.0467 24.0577C16.9266 24.3555 16.6932 24.5139 16.3596 24.5392C16.0728 24.5646 15.8527 24.4442 15.6526 24.2478C14.9988 23.6016 14.3451 22.9617 13.6914 22.3217C13.638 22.271 13.578 22.2203 13.4713 22.1254Z" fill="url(#paint2_linear_329_160)"/>
</g>
</g>
<defs>
<linearGradient id="paint0_linear_329_160" x1="17.1064" y1="3.59277" x2="17.1064" y2="32.4078" gradientUnits="userSpaceOnUse">
<stop stop-color="#F4824C"/>
<stop offset="1" stop-color="#F05C2F"/>
</linearGradient>
<linearGradient id="paint1_linear_329_160" x1="21.0357" y1="17.9999" x2="21.0357" y2="24.5488" gradientUnits="userSpaceOnUse">
<stop stop-color="#F4824C"/>
<stop offset="1" stop-color="#F05C2F"/>
</linearGradient>
<linearGradient id="paint2_linear_329_160" x1="14.4869" y1="18" x2="14.4869" y2="24.5488" gradientUnits="userSpaceOnUse">
<stop stop-color="#F4824C"/>
<stop offset="1" stop-color="#F05C2F"/>
</linearGradient>
<clipPath id="clip0_329_160">
<rect width="35" height="36" fill="white"/>
</clipPath>
<clipPath id="clip1_329_160">
<rect width="35" height="36" fill="white"/>
</clipPath>
</defs>
</svg>
