<svg width="22" height="22" viewBox="0 0 22 22" fill="none" xmlns="http://www.w3.org/2000/svg">
<g clip-path="url(#clip0_142_176)">
<g clip-path="url(#clip1_142_176)">
<path d="M1.49579 10.4445V18.3172H4.82879L4.99709 18.337C8.09139 19.0586 10.1418 19.5789 11.1637 19.9012C12.5211 20.3291 13.0271 20.4336 13.9478 20.4952C14.6364 20.5425 15.4185 20.2774 15.7749 19.9144C15.9718 19.7142 16.1192 19.3028 16.1775 18.6648C16.1895 18.5311 16.2374 18.403 16.3159 18.294C16.3945 18.185 16.5009 18.0992 16.6241 18.0455C16.898 17.9267 17.1257 17.7331 17.316 17.4515C17.492 17.1941 17.6064 16.7145 17.6273 16.0204C17.631 15.8928 17.6671 15.7682 17.7324 15.6585C17.7976 15.5489 17.8899 15.4576 18.0002 15.3934C18.6404 15.0227 18.9572 14.6047 19.0232 14.1141C19.0958 13.5718 18.9198 12.9613 18.4589 12.2661C18.3507 12.1031 18.3105 11.9043 18.3466 11.712C18.3827 11.5197 18.4926 11.3492 18.6525 11.2365C19.0936 10.9263 19.3356 10.4951 19.3961 9.8835C19.4929 8.90892 18.8714 8.18842 17.4645 8.04432C16.2114 7.92039 14.9463 8.02588 13.7311 8.35562C13.5932 8.39164 13.448 8.38755 13.3124 8.34381C13.1768 8.30008 13.0564 8.21853 12.9656 8.10875C12.8749 7.99897 12.8172 7.86554 12.7997 7.72414C12.7821 7.58276 12.8053 7.43928 12.8665 7.31062C13.4165 6.14682 13.7223 5.18652 13.7938 4.44292C13.8873 3.45622 13.6596 2.74122 13.1272 2.15162C12.7235 1.70502 12.0778 1.44982 11.8358 1.50262C11.5168 1.57082 11.3089 1.75562 11.0383 2.40242C10.8788 2.78522 10.8018 3.11082 10.6698 3.87092C10.5433 4.59252 10.474 4.91812 10.3299 5.34492C9.89542 6.63852 8.82949 7.97942 7.39839 8.90452C6.3954 9.55212 5.30839 10.0591 4.16769 10.4115C4.09643 10.4335 4.02226 10.4446 3.94769 10.4445H1.49579ZM1.44959 19.8165C1.09429 19.8264 0.775287 19.7472 0.507987 19.5602C0.166987 19.3215 0.00638766 18.9453 0.00308766 18.5119L0.00638766 10.4566C-0.0310123 10.0276 0.0954873 9.6338 0.394687 9.3412C0.675187 9.06622 1.04149 8.93642 1.42869 8.94522H3.83219C4.80443 8.63543 5.73136 8.19823 6.58879 7.64502C7.74159 6.89922 8.59079 5.83002 8.91529 4.86642C9.02639 4.53422 9.08579 4.25922 9.19802 3.61242C9.34982 2.74452 9.44442 2.34082 9.66222 1.82162C10.1132 0.74142 10.705 0.21342 11.5212 0.0363202C12.3242 -0.13748 13.4935 0.32562 14.2327 1.14402C15.0522 2.05042 15.4141 3.18452 15.2799 4.58592C15.2227 5.18872 15.0555 5.86302 14.7805 6.61432C15.7196 6.47745 16.6721 6.45676 17.6163 6.55272C19.824 6.77822 21.0637 8.21592 20.8833 10.0331C20.8041 10.8163 20.5203 11.4818 20.0374 12.0043C20.4433 12.7864 20.605 13.5597 20.5038 14.3143C20.3872 15.1833 19.9032 15.9071 19.098 16.4692C19.0353 17.2315 18.8604 17.8398 18.5502 18.2952C18.3057 18.6632 17.9868 18.9756 17.6141 19.2126C17.4953 19.965 17.2456 20.5535 16.8375 20.9671C16.161 21.6557 14.9521 22.066 13.8477 21.9912C12.7994 21.9208 12.179 21.7932 10.716 21.3312C9.75132 21.0265 7.75369 20.5205 4.74299 19.8165H1.44849H1.44959ZM3.32069 10.1024C3.3204 10.004 3.33954 9.90651 3.37699 9.81548C3.41445 9.72446 3.46951 9.64177 3.53899 9.57211C3.60848 9.50235 3.69104 9.44707 3.78193 9.4094C3.87282 9.37163 3.97028 9.3522 4.06869 9.3522C4.16692 9.35248 4.26412 9.37218 4.35477 9.41004C4.44541 9.4479 4.52771 9.50317 4.59696 9.57284C4.66622 9.64251 4.72107 9.7251 4.75839 9.81603C4.79572 9.90687 4.81477 10.0042 4.81449 10.1024V18.5482C4.81464 18.6465 4.79543 18.7437 4.75797 18.8346C4.72051 18.9253 4.66554 19.0079 4.59618 19.0775C4.52682 19.1471 4.44445 19.2022 4.35375 19.24C4.26306 19.2777 4.16582 19.2972 4.06759 19.2973C3.96936 19.2972 3.87212 19.2777 3.78142 19.24C3.69073 19.2022 3.60835 19.1471 3.53899 19.0775C3.46964 19.0079 3.41467 18.9253 3.3772 18.8346C3.33975 18.7437 3.32054 18.6465 3.32069 18.5482V10.1024Z" fill="#43D72F"/>
</g>
</g>
<defs>
<clipPath id="clip0_142_176">
<rect width="22" height="22" fill="white"/>
</clipPath>
<clipPath id="clip1_142_176">
<rect width="22" height="22" fill="white"/>
</clipPath>
</defs>
</svg>
