<svg width="49" height="51" viewBox="0 0 49 51" fill="none" xmlns="http://www.w3.org/2000/svg">
<g clip-path="url(#clip0_52_78)">
<g clip-path="url(#clip1_52_78)">
<g clip-path="url(#clip2_52_78)">
<path d="M34.3985 27.0234C41.1542 27.0234 46.6308 21.3087 46.6308 14.2593C46.6308 7.20973 41.1542 1.495 34.3985 1.495C27.6427 1.495 22.166 7.20973 22.166 14.2593C22.166 21.3087 27.6427 27.0234 34.3985 27.0234Z" stroke="#FA7436" stroke-width="1.92" stroke-miterlimit="10" stroke-linecap="round"/>
<path d="M29.6929 25.9597C26.568 25.9597 23.5712 24.6726 21.3616 22.3814C19.1519 20.0902 17.9106 16.9828 17.9106 13.7425C17.9106 6.99252 24.2926 1.01626 30.6748 1.52532" stroke="#FA7436" stroke-width="1.92" stroke-miterlimit="10" stroke-linecap="round"/>
<path d="M1.46 47.6377V36.7196H6.42265C6.63017 36.7228 6.83454 36.6681 7.01355 36.5618C7.19255 36.4554 7.33932 36.3013 7.43787 36.1162C8.29996 34.5475 10.9656 30.4101 15.4461 29.8412H15.8375H28.1165C28.1165 29.8412 30.9524 29.8412 30.9524 32.1398C30.9524 35.0129 27.5494 35.0129 27.5494 35.0129H24.7136C24.1205 35.0005 23.5341 35.1417 23.0101 35.4234C22.4859 35.705 22.0415 36.1175 21.719 36.622C21.2836 37.3442 21.1432 38.21 21.3277 39.0354C21.4866 39.6803 21.8501 40.2546 22.3624 40.6699C22.8747 41.0852 23.5076 41.3185 24.1634 41.3339H36.0739C36.4409 41.3318 36.7942 41.1927 37.0664 40.9432L42.2559 36.1565C42.7439 35.7144 43.371 35.4619 44.0254 35.4439C44.4317 35.4041 44.8418 35.4471 45.2315 35.5706C45.6211 35.6939 45.9824 35.895 46.2941 36.1622C47.9955 37.8861 46.8612 39.6101 45.5624 41.0639C45.2547 41.2875 44.9714 41.5436 44.7173 41.8281L39.4598 47.6377C38.6832 48.3563 37.6755 48.7647 36.6239 48.7869H1.46V47.6377Z" stroke="#FFC1A6" stroke-width="1.92" stroke-miterlimit="10" stroke-linecap="round"/>
<path d="M28.5493 7.87939H39.1862" stroke="#FA7436" stroke-width="1.92" stroke-miterlimit="10" stroke-linecap="round"/>
<path d="M32.8029 11.0688H39.1851" stroke="#FA7436" stroke-width="1.92" stroke-miterlimit="10" stroke-linecap="round"/>
<path d="M31.9968 7.87939H33.2454C33.5622 7.88113 33.8758 7.95092 34.1696 8.08504C34.8126 8.39332 35.3411 8.94362 35.6651 9.64227C35.9892 10.3409 36.0887 11.1447 35.9469 11.9169C35.698 13.4216 34.8271 14.4247 31.948 14.2091C31.9084 14.2076 31.8693 14.2195 31.8357 14.2433C31.8021 14.2671 31.7755 14.3016 31.7592 14.3424C31.7431 14.3833 31.738 14.4287 31.7447 14.4728C31.7515 14.5169 31.7696 14.5577 31.797 14.5902L38.1239 21.7072" stroke="#FA7436" stroke-width="1.92" stroke-miterlimit="10" stroke-linecap="round"/>
</g>
</g>
</g>
<defs>
<clipPath id="clip0_52_78">
<rect width="48" height="49.91" fill="white" transform="translate(0.5 0.540039)"/>
</clipPath>
<clipPath id="clip1_52_78">
<rect width="48" height="49.91" fill="white" transform="translate(0.5 0.540039)"/>
</clipPath>
<clipPath id="clip2_52_78">
<rect width="48" height="49.92" fill="white" transform="translate(0.5 0.535034)"/>
</clipPath>
</defs>
</svg>
