<svg width="49" height="49" viewBox="0 0 49 49" fill="none" xmlns="http://www.w3.org/2000/svg">
<g clip-path="url(#clip0_52_62)">
<g clip-path="url(#clip1_52_62)">
<path d="M46.8799 22.8981C46.6831 17.3253 44.4431 12.2653 40.8839 8.44531L35.7983 13.5309C38.0983 16.0813 39.4887 19.3677 39.6727 22.8981H46.8799Z" fill="#FFC1A6"/>
<path d="M9.33681 24.5H2.11841C2.30721 29.8456 4.37921 34.9192 8.00801 38.8616C8.03121 38.8864 8.06081 38.8992 8.09761 38.9C8.10721 38.9016 8.17041 38.8984 8.21361 38.8544L13.1016 33.9664C13.156 33.912 13.164 33.828 13.1192 33.7768C10.8352 31.2008 9.51601 27.9304 9.33521 24.5H9.33681Z" fill="#FFC1A6"/>
<path d="M39.6632 24.5C39.4824 27.9304 38.1632 31.2016 35.8736 33.7832C35.8344 33.8288 35.8424 33.912 35.8968 33.9664L40.7848 38.8544C40.8288 38.8984 40.8864 38.9008 40.9008 38.9C40.9376 38.9 40.9672 38.8864 40.9888 38.8632C44.62 34.9192 46.6912 29.8456 46.88 24.5H39.6632Z" fill="#FFC1A6"/>
<path d="M29.3385 19.5307C28.5673 21.9283 27.8841 23.9203 27.4225 25.0091C26.9177 26.1955 25.7505 26.9067 24.5161 26.9067C24.0945 26.9067 23.6649 26.8235 23.2505 26.6483C21.6273 25.9587 20.8553 24.1019 21.5305 22.5083C21.9921 21.4203 22.9521 19.5435 24.1417 17.3203C20.7801 17.5083 18.1001 20.2947 18.1001 23.7019C18.1001 27.2307 20.9713 30.1019 24.5001 30.1019C28.0289 30.1019 30.9001 27.2307 30.9001 23.7019C30.9001 22.1443 30.3369 20.6795 29.3385 19.5307Z" fill="#FA7436"/>
<path d="M23.8752 25.1716C24.6888 25.5188 25.6176 25.162 25.9488 24.3812C26.8024 22.3692 28.6848 16.4812 31.2568 7.78125C28.048 13.4444 24.0888 20.5724 23.004 23.1308C22.6728 23.9124 23.064 24.8276 23.876 25.1724L23.8752 25.1716Z" fill="#FA7436"/>
<path d="M2.11994 22.8981H9.33994C9.52794 19.3109 10.9591 16.0557 13.2175 13.5477L8.11514 8.44531C4.55674 12.2653 2.31754 17.3245 2.11994 22.8981Z" fill="#FFC1A6"/>
<path d="M30.0425 6.67791C30.4345 5.98591 31.2577 5.70991 32.0009 6.02591C32.7433 6.34111 33.1177 7.12351 32.8929 7.88751C32.6393 8.74751 32.3737 9.64111 32.1025 10.5491C33.0297 11.0843 33.8857 11.7067 34.6633 12.4051L39.7521 7.31631C35.9321 3.75791 30.8729 1.51791 25.2993 1.32031V8.53231C26.4553 8.59231 27.5841 8.78191 28.6753 9.09791C29.1401 8.27151 29.5993 7.45951 30.0417 6.67871L30.0425 6.67791Z" fill="#FFC1A6"/>
<path d="M23.7001 8.54111V1.32031C18.1273 1.51711 13.0673 3.75711 9.24731 7.31631L14.3497 12.4187C16.8577 10.1595 20.1129 8.72911 23.7001 8.54111Z" fill="#FFC1A6"/>
</g>
</g>
<defs>
<clipPath id="clip0_52_62">
<rect width="48" height="48" fill="white" transform="translate(0.5 0.5)"/>
</clipPath>
<clipPath id="clip1_52_62">
<rect width="48" height="48" fill="white" transform="translate(0.5 0.5)"/>
</clipPath>
</defs>
</svg>
