<svg width="32" height="32" viewBox="0 0 32 32" fill="none" xmlns="http://www.w3.org/2000/svg">
<mask id="mask0_205_469" style="mask-type:luminance" maskUnits="userSpaceOnUse" x="0" y="0" width="32" height="32">
<path d="M1.15 1H1V1.15V31.15V31.3H1.15H31.15H31.3V31.15V1.15V1H31.15H1.15Z" fill="white" stroke="white" stroke-width="0.3"/>
</mask>
<g mask="url(#mask0_205_469)">
<path d="M16.3001 0.96977V0.96875H16.1501C7.77906 0.96875 0.967773 7.77884 0.967773 16.1511C0.967773 24.5234 7.77877 31.3326 16.1501 31.3326C24.5212 31.3326 31.3331 24.5231 31.3331 16.1508C31.3331 7.8286 24.6027 1.05053 16.3001 0.96977ZM16.1501 30.0314C8.4968 30.0314 2.27071 23.8045 2.27071 16.1508C2.27071 8.4975 8.4965 2.27022 16.1501 2.27022C23.8034 2.27022 30.0298 8.4972 30.0298 16.1508C30.0298 23.8042 23.8034 30.0314 16.1501 30.0314Z" fill="url(#paint0_linear_205_469)" stroke="url(#paint1_linear_205_469)" stroke-width="0.3"/>
<path d="M16.6198 6.82561C16.9057 6.82561 17.1381 6.59414 17.1381 6.30708V4.43208C17.1381 4.2946 17.0835 4.16275 16.9863 4.06553C16.889 3.96832 16.7572 3.9137 16.6197 3.9137C16.4822 3.9137 16.3504 3.96832 16.2531 4.06553C16.1559 4.16275 16.1013 4.2946 16.1013 4.43208V6.30708C16.1013 6.59414 16.3337 6.82561 16.6198 6.82561ZM6.30723 15.1635H4.43223C4.29471 15.1635 4.16282 15.2182 4.06558 15.3154C3.96833 15.4126 3.9137 15.5445 3.9137 15.6821C3.9137 15.8196 3.96833 15.9515 4.06558 16.0487C4.16282 16.146 4.29471 16.2006 4.43223 16.2006H6.30723C6.44471 16.2006 6.57657 16.146 6.67378 16.0488C6.771 15.9515 6.82561 15.8197 6.82561 15.6822C6.82561 15.5447 6.771 15.4129 6.67378 15.3156C6.57657 15.2184 6.44471 15.1635 6.30723 15.1635ZM25.4763 15.6821C25.4763 15.9691 25.7087 16.2006 25.9948 16.2006H27.8698C28.0073 16.2006 28.1392 16.146 28.2364 16.0488C28.3336 15.9515 28.3882 15.8197 28.3882 15.6822C28.3882 15.5447 28.3336 15.4129 28.2364 15.3156C28.1392 15.2184 28.0073 15.1638 27.8698 15.1638H25.9948C25.709 15.1638 25.4763 15.3953 25.4763 15.6821ZM9.18963 10.6465C9.29223 10.6469 9.39263 10.6168 9.47813 10.56C9.56363 10.5032 9.63023 10.4222 9.66953 10.3274C9.70883 10.2326 9.71903 10.1282 9.69883 10.0276C9.67863 9.92703 9.62893 9.83463 9.55603 9.76233L8.07958 8.28503C8.03166 8.23673 7.97463 8.19833 7.91181 8.17223C7.84899 8.14603 7.78161 8.13255 7.71355 8.13255C7.6455 8.13255 7.57812 8.14603 7.5153 8.17223C7.45247 8.19833 7.39545 8.23673 7.34753 8.28503C7.29934 8.33303 7.26112 8.39013 7.23503 8.45293C7.20895 8.51583 7.19552 8.58313 7.19552 8.65123C7.19552 8.71923 7.20895 8.78663 7.23503 8.84943C7.26112 8.91223 7.29934 8.96933 7.34753 9.01733L8.82403 10.4938C8.92433 10.5959 9.05723 10.6465 9.18963 10.6465ZM23.5484 20.9412C23.5004 20.8928 23.4434 20.8544 23.3806 20.8282C23.3177 20.802 23.2503 20.7886 23.1822 20.7886C23.1141 20.7886 23.0467 20.802 22.9838 20.8282C22.921 20.8544 22.864 20.8928 22.816 20.9412C22.7678 20.9892 22.7296 21.0463 22.7035 21.1091C22.6774 21.1719 22.664 21.2393 22.664 21.3073C22.664 21.3754 22.6774 21.4427 22.7035 21.5056C22.7296 21.5684 22.7678 21.6255 22.816 21.6735L24.2225 23.0797C24.3237 23.1809 24.456 23.2315 24.589 23.2315C24.6916 23.2319 24.7921 23.2018 24.8775 23.145C24.963 23.0882 25.0296 23.0072 25.0689 22.9124C25.1082 22.8176 25.1184 22.7132 25.0982 22.6126C25.078 22.512 25.0283 22.4196 24.9554 22.3473L23.5484 20.9412ZM24.486 8.54853C24.689 8.34593 24.689 8.01885 24.486 7.8162C24.4381 7.76789 24.3811 7.72954 24.3183 7.70337C24.2554 7.6772 24.188 7.66373 24.12 7.66373C24.0519 7.66373 23.9846 7.6772 23.9217 7.70337C23.8589 7.72954 23.8019 7.76789 23.754 7.8162L22.2775 9.29263C22.2293 9.34073 22.1911 9.39773 22.165 9.46063C22.1389 9.52343 22.1255 9.59083 22.1255 9.65883C22.1255 9.72693 22.1389 9.79423 22.165 9.85713C22.1911 9.91993 22.2293 9.97703 22.2775 10.025C22.3787 10.1262 22.5107 10.1771 22.644 10.1771C22.7772 10.1771 22.9093 10.1262 23.0104 10.025L24.486 8.54853ZM9.22193 21.4094L7.81576 22.8156C7.76758 22.8636 7.72935 22.9207 7.70327 22.9835C7.67718 23.0464 7.66376 23.1137 7.66376 23.1818C7.66376 23.2498 7.67718 23.3172 7.70327 23.38C7.72935 23.4428 7.76758 23.4999 7.81576 23.5479C7.91694 23.6491 8.04929 23.6997 8.18223 23.6997C8.31543 23.6997 8.44753 23.6491 8.54903 23.5476L9.95483 22.1418C10.0493 22.044 10.1016 21.913 10.1004 21.7771C10.0992 21.6411 10.0446 21.5111 9.94843 21.415C9.85223 21.3189 9.72213 21.2645 9.58613 21.2635C9.45023 21.2624 9.31963 21.3148 9.22193 21.4094ZM16.1507 18.6523C16.8184 18.6523 17.4466 18.3926 17.9181 17.9203C18.7722 17.0662 18.8781 15.7453 18.2369 14.775L20.724 12.2876C20.8177 12.1935 20.8703 12.0661 20.8703 11.9332C20.8703 11.8004 20.8177 11.673 20.724 11.5788C20.6774 11.5322 20.6222 11.4953 20.5614 11.4701C20.5006 11.4449 20.4354 11.4319 20.3696 11.4319C20.3037 11.4319 20.2385 11.4449 20.1777 11.4701C20.1169 11.4953 20.0617 11.5322 20.0151 11.5788L17.5251 14.0691C16.5643 13.455 15.2069 13.56 14.384 14.3838C13.4087 15.3591 13.4087 16.9444 14.384 17.9191C14.6151 18.1524 14.8904 18.3374 15.1937 18.4633C15.497 18.5892 15.8223 18.6533 16.1507 18.6523ZM15.2678 15.2694C15.3833 15.1528 15.5208 15.0603 15.6724 14.9973C15.824 14.9342 15.9866 14.902 16.1507 14.9023C16.3978 14.9026 16.6393 14.976 16.8447 15.1134C17.0501 15.2508 17.2102 15.4459 17.3048 15.6742C17.3994 15.9025 17.4243 16.1537 17.3762 16.3961C17.3282 16.6385 17.2094 16.8612 17.0348 17.0362C16.5631 17.5088 15.7398 17.5088 15.2672 17.0362C15.0331 16.8017 14.9017 16.4839 14.9017 16.1526C14.9017 15.8213 15.0337 15.5039 15.2678 15.2694ZM12.9154 24.3871H20.8566V25.2694H12.9154V24.3871Z" fill="url(#paint2_linear_205_469)"/>
<mask id="mask1_205_469" style="mask-type:luminance" maskUnits="userSpaceOnUse" x="2" y="2" width="27" height="24">
<path d="M28.9137 2.9137H2.9137V25.9137H28.9137V2.9137Z" fill="white"/>
<path d="M16.6198 6.82561C16.9057 6.82561 17.1381 6.59414 17.1381 6.30708V4.43208C17.1381 4.2946 17.0835 4.16275 16.9863 4.06553C16.889 3.96832 16.7572 3.9137 16.6197 3.9137C16.4822 3.9137 16.3504 3.96832 16.2531 4.06553C16.1559 4.16275 16.1013 4.2946 16.1013 4.43208V6.30708C16.1013 6.59414 16.3337 6.82561 16.6198 6.82561ZM6.30723 15.1635H4.43223C4.29471 15.1635 4.16282 15.2182 4.06558 15.3154C3.96833 15.4126 3.9137 15.5445 3.9137 15.6821C3.9137 15.8196 3.96833 15.9515 4.06558 16.0487C4.16282 16.146 4.29471 16.2006 4.43223 16.2006H6.30723C6.44471 16.2006 6.57657 16.146 6.67378 16.0488C6.771 15.9515 6.82561 15.8197 6.82561 15.6822C6.82561 15.5447 6.771 15.4129 6.67378 15.3156C6.57657 15.2184 6.44471 15.1635 6.30723 15.1635ZM25.4763 15.6821C25.4763 15.9691 25.7087 16.2006 25.9948 16.2006H27.8698C28.0073 16.2006 28.1392 16.146 28.2364 16.0488C28.3336 15.9515 28.3882 15.8197 28.3882 15.6822C28.3882 15.5447 28.3336 15.4129 28.2364 15.3156C28.1392 15.2184 28.0073 15.1638 27.8698 15.1638H25.9948C25.709 15.1638 25.4763 15.3953 25.4763 15.6821ZM9.18963 10.6465C9.29223 10.6469 9.39263 10.6168 9.47813 10.56C9.56363 10.5032 9.63023 10.4222 9.66953 10.3274C9.70883 10.2326 9.71903 10.1282 9.69883 10.0276C9.67863 9.92703 9.62893 9.83463 9.55603 9.76233L8.07958 8.28503C8.03166 8.23673 7.97463 8.19833 7.91181 8.17223C7.84899 8.14603 7.78161 8.13255 7.71355 8.13255C7.6455 8.13255 7.57812 8.14603 7.5153 8.17223C7.45247 8.19833 7.39545 8.23673 7.34753 8.28503C7.29934 8.33303 7.26112 8.39013 7.23503 8.45293C7.20895 8.51583 7.19552 8.58313 7.19552 8.65123C7.19552 8.71923 7.20895 8.78663 7.23503 8.84943C7.26112 8.91223 7.29934 8.96933 7.34753 9.01733L8.82403 10.4938C8.92433 10.5959 9.05723 10.6465 9.18963 10.6465ZM23.5484 20.9412C23.5004 20.8928 23.4434 20.8544 23.3806 20.8282C23.3177 20.802 23.2503 20.7886 23.1822 20.7886C23.1141 20.7886 23.0467 20.802 22.9838 20.8282C22.921 20.8544 22.864 20.8928 22.816 20.9412C22.7678 20.9892 22.7296 21.0463 22.7035 21.1091C22.6774 21.1719 22.664 21.2393 22.664 21.3073C22.664 21.3754 22.6774 21.4427 22.7035 21.5056C22.7296 21.5684 22.7678 21.6255 22.816 21.6735L24.2225 23.0797C24.3237 23.1809 24.456 23.2315 24.589 23.2315C24.6916 23.2319 24.7921 23.2018 24.8775 23.145C24.963 23.0882 25.0296 23.0072 25.0689 22.9124C25.1082 22.8176 25.1184 22.7132 25.0982 22.6126C25.078 22.512 25.0283 22.4196 24.9554 22.3473L23.5484 20.9412ZM24.486 8.54853C24.689 8.34593 24.689 8.01885 24.486 7.8162C24.4381 7.76789 24.3811 7.72954 24.3183 7.70337C24.2554 7.6772 24.188 7.66373 24.12 7.66373C24.0519 7.66373 23.9846 7.6772 23.9217 7.70337C23.8589 7.72954 23.8019 7.76789 23.754 7.8162L22.2775 9.29263C22.2293 9.34073 22.1911 9.39773 22.165 9.46063C22.1389 9.52343 22.1255 9.59083 22.1255 9.65883C22.1255 9.72693 22.1389 9.79423 22.165 9.85713C22.1911 9.91993 22.2293 9.97703 22.2775 10.025C22.3787 10.1262 22.5107 10.1771 22.644 10.1771C22.7772 10.1771 22.9093 10.1262 23.0104 10.025L24.486 8.54853ZM9.22193 21.4094L7.81576 22.8156C7.76758 22.8636 7.72935 22.9207 7.70327 22.9835C7.67718 23.0464 7.66376 23.1137 7.66376 23.1818C7.66376 23.2498 7.67718 23.3172 7.70327 23.38C7.72935 23.4428 7.76758 23.4999 7.81576 23.5479C7.91694 23.6491 8.04929 23.6997 8.18223 23.6997C8.31543 23.6997 8.44753 23.6491 8.54903 23.5476L9.95483 22.1418C10.0493 22.044 10.1016 21.913 10.1004 21.7771C10.0992 21.6411 10.0446 21.5111 9.94843 21.415C9.85223 21.3189 9.72213 21.2645 9.58613 21.2635C9.45023 21.2624 9.31963 21.3148 9.22193 21.4094ZM16.1507 18.6523C16.8184 18.6523 17.4466 18.3926 17.9181 17.9203C18.7722 17.0662 18.8781 15.7453 18.2369 14.775L20.724 12.2876C20.8177 12.1935 20.8703 12.0661 20.8703 11.9332C20.8703 11.8004 20.8177 11.673 20.724 11.5788C20.6774 11.5322 20.6222 11.4953 20.5614 11.4701C20.5006 11.4449 20.4354 11.4319 20.3696 11.4319C20.3037 11.4319 20.2385 11.4449 20.1777 11.4701C20.1169 11.4953 20.0617 11.5322 20.0151 11.5788L17.5251 14.0691C16.5643 13.455 15.2069 13.56 14.384 14.3838C13.4087 15.3591 13.4087 16.9444 14.384 17.9191C14.6151 18.1524 14.8904 18.3374 15.1937 18.4633C15.497 18.5892 15.8223 18.6533 16.1507 18.6523ZM15.2678 15.2694C15.3833 15.1528 15.5208 15.0603 15.6724 14.9973C15.824 14.9342 15.9866 14.902 16.1507 14.9023C16.3978 14.9026 16.6393 14.976 16.8447 15.1134C17.0501 15.2508 17.2102 15.4459 17.3048 15.6742C17.3994 15.9025 17.4243 16.1537 17.3762 16.3961C17.3282 16.6385 17.2094 16.8612 17.0348 17.0362C16.5631 17.5088 15.7398 17.5088 15.2672 17.0362C15.0331 16.8017 14.9017 16.4839 14.9017 16.1526C14.9017 15.8213 15.0337 15.5039 15.2678 15.2694ZM12.9154 24.3871H20.8566V25.2694H12.9154V24.3871Z" fill="black"/>
</mask>
<g mask="url(#mask1_205_469)">
<path d="M16.6198 6.82561C16.9057 6.82561 17.1381 6.59414 17.1381 6.30708V4.43208C17.1381 4.2946 17.0835 4.16275 16.9863 4.06553C16.889 3.96832 16.7572 3.9137 16.6197 3.9137C16.4822 3.9137 16.3504 3.96832 16.2531 4.06553C16.1559 4.16275 16.1013 4.2946 16.1013 4.43208V6.30708C16.1013 6.59414 16.3337 6.82561 16.6198 6.82561ZM6.30723 15.1635H4.43223C4.29471 15.1635 4.16282 15.2182 4.06558 15.3154C3.96833 15.4126 3.9137 15.5445 3.9137 15.6821C3.9137 15.8196 3.96833 15.9515 4.06558 16.0487C4.16282 16.146 4.29471 16.2006 4.43223 16.2006H6.30723C6.44471 16.2006 6.57657 16.146 6.67378 16.0488C6.771 15.9515 6.82561 15.8197 6.82561 15.6822C6.82561 15.5447 6.771 15.4129 6.67378 15.3156C6.57657 15.2184 6.44471 15.1635 6.30723 15.1635ZM25.4763 15.6821C25.4763 15.9691 25.7087 16.2006 25.9948 16.2006H27.8698C28.0073 16.2006 28.1392 16.146 28.2364 16.0488C28.3336 15.9515 28.3882 15.8197 28.3882 15.6822C28.3882 15.5447 28.3336 15.4129 28.2364 15.3156C28.1392 15.2184 28.0073 15.1638 27.8698 15.1638H25.9948C25.709 15.1638 25.4763 15.3953 25.4763 15.6821ZM9.18963 10.6465C9.29223 10.6469 9.39263 10.6168 9.47813 10.56C9.56363 10.5032 9.63023 10.4222 9.66953 10.3274C9.70883 10.2326 9.71903 10.1282 9.69883 10.0276C9.67863 9.92703 9.62893 9.83463 9.55603 9.76233L8.07958 8.28503C8.03166 8.23673 7.97463 8.19833 7.91181 8.17223C7.84899 8.14603 7.78161 8.13255 7.71355 8.13255C7.6455 8.13255 7.57812 8.14603 7.5153 8.17223C7.45247 8.19833 7.39545 8.23673 7.34753 8.28503C7.29934 8.33303 7.26112 8.39013 7.23503 8.45293C7.20895 8.51583 7.19552 8.58313 7.19552 8.65123C7.19552 8.71923 7.20895 8.78663 7.23503 8.84943C7.26112 8.91223 7.29934 8.96933 7.34753 9.01733L8.82403 10.4938C8.92433 10.5959 9.05723 10.6465 9.18963 10.6465ZM23.5484 20.9412C23.5004 20.8928 23.4434 20.8544 23.3806 20.8282C23.3177 20.802 23.2503 20.7886 23.1822 20.7886C23.1141 20.7886 23.0467 20.802 22.9838 20.8282C22.921 20.8544 22.864 20.8928 22.816 20.9412C22.7678 20.9892 22.7296 21.0463 22.7035 21.1091C22.6774 21.1719 22.664 21.2393 22.664 21.3073C22.664 21.3754 22.6774 21.4427 22.7035 21.5056C22.7296 21.5684 22.7678 21.6255 22.816 21.6735L24.2225 23.0797C24.3237 23.1809 24.456 23.2315 24.589 23.2315C24.6916 23.2319 24.7921 23.2018 24.8775 23.145C24.963 23.0882 25.0296 23.0072 25.0689 22.9124C25.1082 22.8176 25.1184 22.7132 25.0982 22.6126C25.078 22.512 25.0283 22.4196 24.9554 22.3473L23.5484 20.9412ZM24.486 8.54853C24.689 8.34593 24.689 8.01885 24.486 7.8162C24.4381 7.76789 24.3811 7.72954 24.3183 7.70337C24.2554 7.6772 24.188 7.66373 24.12 7.66373C24.0519 7.66373 23.9846 7.6772 23.9217 7.70337C23.8589 7.72954 23.8019 7.76789 23.754 7.8162L22.2775 9.29263C22.2293 9.34073 22.1911 9.39773 22.165 9.46063C22.1389 9.52343 22.1255 9.59083 22.1255 9.65883C22.1255 9.72693 22.1389 9.79423 22.165 9.85713C22.1911 9.91993 22.2293 9.97703 22.2775 10.025C22.3787 10.1262 22.5107 10.1771 22.644 10.1771C22.7772 10.1771 22.9093 10.1262 23.0104 10.025L24.486 8.54853ZM9.22193 21.4094L7.81576 22.8156C7.76758 22.8636 7.72935 22.9207 7.70327 22.9835C7.67718 23.0464 7.66376 23.1137 7.66376 23.1818C7.66376 23.2498 7.67718 23.3172 7.70327 23.38C7.72935 23.4428 7.76758 23.4999 7.81576 23.5479C7.91694 23.6491 8.04929 23.6997 8.18223 23.6997C8.31543 23.6997 8.44753 23.6491 8.54903 23.5476L9.95483 22.1418C10.0493 22.044 10.1016 21.913 10.1004 21.7771C10.0992 21.6411 10.0446 21.5111 9.94843 21.415C9.85223 21.3189 9.72213 21.2645 9.58613 21.2635C9.45023 21.2624 9.31963 21.3148 9.22193 21.4094ZM16.1507 18.6523C16.8184 18.6523 17.4466 18.3926 17.9181 17.9203C18.7722 17.0662 18.8781 15.7453 18.2369 14.775L20.724 12.2876C20.8177 12.1935 20.8703 12.0661 20.8703 11.9332C20.8703 11.8004 20.8177 11.673 20.724 11.5788C20.6774 11.5322 20.6222 11.4953 20.5614 11.4701C20.5006 11.4449 20.4354 11.4319 20.3696 11.4319C20.3037 11.4319 20.2385 11.4449 20.1777 11.4701C20.1169 11.4953 20.0617 11.5322 20.0151 11.5788L17.5251 14.0691C16.5643 13.455 15.2069 13.56 14.384 14.3838C13.4087 15.3591 13.4087 16.9444 14.384 17.9191C14.6151 18.1524 14.8904 18.3374 15.1937 18.4633C15.497 18.5892 15.8223 18.6533 16.1507 18.6523ZM15.2678 15.2694C15.3833 15.1528 15.5208 15.0603 15.6724 14.9973C15.824 14.9342 15.9866 14.902 16.1507 14.9023C16.3978 14.9026 16.6393 14.976 16.8447 15.1134C17.0501 15.2508 17.2102 15.4459 17.3048 15.6742C17.3994 15.9025 17.4243 16.1537 17.3762 16.3961C17.3282 16.6385 17.2094 16.8612 17.0348 17.0362C16.5631 17.5088 15.7398 17.5088 15.2672 17.0362C15.0331 16.8017 14.9017 16.4839 14.9017 16.1526C14.9017 15.8213 15.0337 15.5039 15.2678 15.2694ZM12.9154 24.3871H20.8566V25.2694H12.9154V24.3871Z" stroke="url(#paint3_linear_205_469)" stroke-width="0.6"/>
</g>
</g>
<defs>
<linearGradient id="paint0_linear_205_469" x1="16.1504" y1="0.96875" x2="16.1504" y2="31.3326" gradientUnits="userSpaceOnUse">
<stop stop-color="#F4824C"/>
<stop offset="1" stop-color="#F05C2F"/>
</linearGradient>
<linearGradient id="paint1_linear_205_469" x1="16.1504" y1="0.96875" x2="16.1504" y2="31.3326" gradientUnits="userSpaceOnUse">
<stop stop-color="#F4824C"/>
<stop offset="1" stop-color="#F05C2F"/>
</linearGradient>
<linearGradient id="paint2_linear_205_469" x1="16.151" y1="3.9137" x2="16.151" y2="25.2694" gradientUnits="userSpaceOnUse">
<stop stop-color="#F4824C"/>
<stop offset="1" stop-color="#F05C2F"/>
</linearGradient>
<linearGradient id="paint3_linear_205_469" x1="16.151" y1="3.9137" x2="16.151" y2="25.2694" gradientUnits="userSpaceOnUse">
<stop stop-color="#F4824C"/>
<stop offset="1" stop-color="#F05C2F"/>
</linearGradient>
</defs>
</svg>
