<svg width="35" height="36" viewBox="0 0 35 36" fill="none" xmlns="http://www.w3.org/2000/svg">
<g clip-path="url(#clip0_205_420)">
<g clip-path="url(#clip1_205_420)">
<path d="M3.86896 11.2904C4.50218 10.6233 5.13538 9.98101 5.79296 9.31396C6.10956 9.31396 6.42616 9.31396 6.74278 9.31396C7.22986 8.81985 7.69259 8.32574 8.17968 7.83164C8.73983 7.83164 9.29998 7.83164 9.86009 7.83164C10.5907 7.01635 11.297 6.17636 12.0277 5.36108C12.8314 5.36108 13.635 5.36108 14.4144 5.36108C14.804 6.02814 15.2181 6.67047 15.6078 7.33752C16.1679 7.33752 16.7281 7.33752 17.2882 7.33752C17.5318 7.83164 17.7753 8.32574 18.0189 8.81985C17.5318 9.63514 17.069 10.4752 16.5819 11.2904C12.3199 11.2904 8.10662 11.2904 3.86896 11.2904Z" stroke="url(#paint0_linear_205_420)" stroke-width="0.972222" stroke-miterlimit="10" stroke-linecap="round" stroke-linejoin="round"/>
<path d="M3.38136 14.7499C3.38136 17.7887 3.38136 19.88 3.38136 22.9187C8.88545 22.9187 14.4139 22.9187 19.9179 22.9187C19.9179 18.7929 19.9179 15.664 19.9179 11.5382C22.9622 11.5382 25.9822 11.5382 29.0265 11.5382C29.6597 10.723 30.2929 9.88296 30.9505 9.06769C26.9564 9.06769 22.9622 9.06769 18.9682 9.06769C18.408 10.13 17.8479 11.2171 17.2877 12.2794C12.1733 12.2794 7.05887 12.2794 1.94446 12.2794C1.94446 13.0947 1.94446 13.9346 1.94446 14.7499C2.43154 14.7499 2.89428 14.7499 3.38136 14.7499Z" stroke="url(#paint1_linear_205_420)" stroke-width="0.972222" stroke-miterlimit="10" stroke-linecap="round" stroke-linejoin="round"/>
<path d="M10.8093 24.8783C14.1702 24.8783 17.7504 24.8783 21.1112 24.8783C21.1112 20.8513 21.1112 16.5526 21.1112 12.5255C22.7186 12.5255 24.0581 12.5255 25.6655 12.5255C26.2256 12.6985 26.7858 12.8467 27.3459 13.0197C28.2958 14.4279 29.2699 15.8114 30.2197 17.2196C30.5363 18.1337 30.853 18.529 31.1695 19.4431C31.1695 20.9995 31.1695 23.0748 31.1695 24.6312C31.4862 24.6312 31.8028 24.6312 32.1194 24.6312C32.1194 25.3724 32.1194 26.1136 32.1194 26.8547C30.9991 26.8547 29.8787 26.8547 28.7584 26.8547C27.9548 25.8665 27.5651 25.15 26.8588 24.8289C26.7614 24.7795 26.3717 24.7053 25.8846 24.6312C25.5924 24.6065 25.3489 24.5818 25.1784 24.5818C24.9836 24.5818 24.8131 24.5818 24.6669 24.6312C23.3274 24.9525 22.816 26.8547 22.7429 27.1017C19.1385 27.1017 15.5584 27.1017 11.954 27.1017C11.0285 25.1995 9.10451 24.3348 7.64325 24.8783C6.2794 25.3724 5.79231 26.8794 5.71925 27.1017C4.91556 27.1017 4.11186 27.1017 3.33252 27.1017C3.33252 26.3606 3.33252 25.6195 3.33252 24.8783C4.52588 24.8783 5.71925 24.8783 6.93697 24.8783" stroke="url(#paint2_linear_205_420)" stroke-width="0.972222" stroke-miterlimit="10" stroke-linecap="round" stroke-linejoin="round"/>
<path d="M23.0361 15.2429C24.0834 15.2429 25.1063 15.2429 26.1536 15.2429C26.7868 16.231 27.42 17.2193 28.0775 18.2075C26.3971 18.2075 24.7166 18.2075 23.0361 18.2075C23.0361 17.2193 23.0361 16.231 23.0361 15.2429Z" stroke="url(#paint3_linear_205_420)" stroke-width="0.972222" stroke-miterlimit="10" stroke-linecap="round" stroke-linejoin="round"/>
<path d="M8.95871 29.8929C10.2769 29.8929 11.3454 28.7868 11.3454 27.4223C11.3454 26.0579 10.2769 24.9518 8.95871 24.9518C7.64056 24.9518 6.57199 26.0579 6.57199 27.4223C6.57199 28.7868 7.64056 29.8929 8.95871 29.8929Z" stroke="url(#paint4_linear_205_420)" stroke-width="0.972222" stroke-miterlimit="10" stroke-linecap="round" stroke-linejoin="round"/>
<path d="M8.95856 28.5349C9.55039 28.5349 10.0301 28.0371 10.0301 27.4231C10.0301 26.8091 9.55039 26.3113 8.95856 26.3113C8.36674 26.3113 7.88696 26.8091 7.88696 27.4231C7.88696 28.0371 8.36674 28.5349 8.95856 28.5349Z" stroke="url(#paint5_linear_205_420)" stroke-width="0.972222" stroke-miterlimit="10" stroke-linecap="round" stroke-linejoin="round"/>
<path d="M25.6175 29.8929C26.9357 29.8929 28.0043 28.7868 28.0043 27.4223C28.0043 26.0579 26.9357 24.9518 25.6175 24.9518C24.2993 24.9518 23.2308 26.0579 23.2308 27.4223C23.2308 28.7868 24.2993 29.8929 25.6175 29.8929Z" stroke="url(#paint6_linear_205_420)" stroke-width="0.972222" stroke-miterlimit="10" stroke-linecap="round" stroke-linejoin="round"/>
<path d="M25.6174 28.5349C26.2092 28.5349 26.6889 28.0371 26.6889 27.4231C26.6889 26.8091 26.2092 26.3113 25.6174 26.3113C25.0255 26.3113 24.5458 26.8091 24.5458 27.4231C24.5458 28.0371 25.0255 28.5349 25.6174 28.5349Z" stroke="url(#paint7_linear_205_420)" stroke-width="0.972222" stroke-miterlimit="10" stroke-linecap="round" stroke-linejoin="round"/>
</g>
</g>
<defs>
<linearGradient id="paint0_linear_205_420" x1="10.9439" y1="5.36108" x2="10.9439" y2="11.2904" gradientUnits="userSpaceOnUse">
<stop stop-color="#F4824C"/>
<stop offset="1" stop-color="#F05C2F"/>
</linearGradient>
<linearGradient id="paint1_linear_205_420" x1="16.4475" y1="9.06769" x2="16.4475" y2="22.9187" gradientUnits="userSpaceOnUse">
<stop stop-color="#F4824C"/>
<stop offset="1" stop-color="#F05C2F"/>
</linearGradient>
<linearGradient id="paint2_linear_205_420" x1="17.726" y1="12.5255" x2="17.726" y2="27.1017" gradientUnits="userSpaceOnUse">
<stop stop-color="#F4824C"/>
<stop offset="1" stop-color="#F05C2F"/>
</linearGradient>
<linearGradient id="paint3_linear_205_420" x1="25.5568" y1="15.2429" x2="25.5568" y2="18.2075" gradientUnits="userSpaceOnUse">
<stop stop-color="#F4824C"/>
<stop offset="1" stop-color="#F05C2F"/>
</linearGradient>
<linearGradient id="paint4_linear_205_420" x1="8.95871" y1="24.9518" x2="8.95871" y2="29.8929" gradientUnits="userSpaceOnUse">
<stop stop-color="#F4824C"/>
<stop offset="1" stop-color="#F05C2F"/>
</linearGradient>
<linearGradient id="paint5_linear_205_420" x1="8.95855" y1="26.3113" x2="8.95855" y2="28.5349" gradientUnits="userSpaceOnUse">
<stop stop-color="#F4824C"/>
<stop offset="1" stop-color="#F05C2F"/>
</linearGradient>
<linearGradient id="paint6_linear_205_420" x1="25.6175" y1="24.9518" x2="25.6175" y2="29.8929" gradientUnits="userSpaceOnUse">
<stop stop-color="#F4824C"/>
<stop offset="1" stop-color="#F05C2F"/>
</linearGradient>
<linearGradient id="paint7_linear_205_420" x1="25.6174" y1="26.3113" x2="25.6174" y2="28.5349" gradientUnits="userSpaceOnUse">
<stop stop-color="#F4824C"/>
<stop offset="1" stop-color="#F05C2F"/>
</linearGradient>
<clipPath id="clip0_205_420">
<rect width="35" height="36" fill="white"/>
</clipPath>
<clipPath id="clip1_205_420">
<rect width="35" height="36" fill="white"/>
</clipPath>
</defs>
</svg>
