<svg width="17" height="16" viewBox="0 0 17 16" fill="none" xmlns="http://www.w3.org/2000/svg">
<path d="M13.7987 3.04425C14.0102 3.14989 14.0706 3.3159 14.0706 3.54227C14.0555 3.96484 14.0706 4.40248 14.0706 4.82505C14.0706 5.0967 13.9196 5.24761 13.6477 5.24761C13.3004 5.24761 12.9681 5.24761 12.6208 5.27779C12.1827 5.30798 11.8052 5.50417 11.488 5.806C11.0652 6.21346 10.6423 6.65112 10.2195 7.05859C10.2044 7.07369 10.2044 7.07369 10.1892 7.10387C10.4007 7.25478 10.3856 7.49625 10.4309 7.70753C10.5366 8.28103 10.6272 8.85445 10.7179 9.42794C10.748 9.57887 10.7027 9.69957 10.597 9.80527C9.61538 10.756 8.64882 11.737 7.66718 12.7028C6.92713 13.4272 5.80955 13.4272 5.06954 12.7028C4.78259 12.4312 4.51075 12.1444 4.2238 11.8577C4.19359 11.8275 4.16338 11.7973 4.11808 11.7521C3.93685 11.9482 3.75562 12.1142 3.6046 12.3104C3.46868 12.4916 3.42337 12.7179 3.42337 12.9443C3.42337 13.6536 3.42337 14.3629 3.42337 15.0722C3.42337 15.2986 3.36296 15.4646 3.15152 15.5702C3.09111 15.5702 3.0156 15.5702 2.95519 15.5702C2.83438 15.5098 2.74376 15.4193 2.68335 15.2986C2.68335 14.4233 2.68335 13.563 2.68335 12.7028C2.68335 12.6877 2.69845 12.6877 2.69845 12.6727C2.75886 12.2199 2.97029 11.8577 3.30255 11.5407C3.40827 11.4502 3.51398 11.3446 3.6348 11.239C3.48378 11.088 3.36296 10.9673 3.24214 10.8466C3.0307 10.6353 3.0307 10.4391 3.24214 10.2278C3.87644 9.59395 4.51075 8.96015 5.12995 8.34135C5.16015 8.31119 5.20545 8.28103 5.22056 8.26588C5.22056 8.22065 5.22056 8.22065 5.20546 8.20557C5.09974 8.02445 4.99402 7.84335 4.8883 7.66226C4.76748 7.45097 4.78258 7.30006 4.94871 7.11896C5.44709 6.62094 5.94547 6.12292 6.44385 5.6249C6.62508 5.4438 6.83652 5.4438 7.01774 5.6249C7.15367 5.76072 7.27449 5.89655 7.41041 6.03237C7.44064 6.00218 7.47079 5.97201 7.50102 5.94182C7.66718 5.77582 7.83326 5.60981 7.99942 5.4438C8.18065 5.27779 8.37697 5.27779 8.5582 5.4438C8.58843 5.45889 8.60351 5.48907 8.64882 5.51926C8.67898 5.47399 8.70921 5.4438 8.73944 5.41362C9.10191 5.05143 9.47945 4.67414 9.84192 4.31194C10.4309 3.72337 11.1256 3.33099 11.9411 3.14989C12.1374 3.10462 12.3489 3.07444 12.5754 3.04425C12.9832 3.04425 13.3909 3.04425 13.7987 3.04425ZM8.27127 6.21347C8.07488 6.40966 7.89365 6.60585 7.69734 6.78695C7.5161 6.96804 7.30469 6.96804 7.12346 6.78695C6.98754 6.65112 6.86672 6.5153 6.7459 6.39457C6.36834 6.77185 6.00588 7.13405 5.64343 7.49625C5.74914 7.67734 5.85486 7.85844 5.97568 8.03954C6.1116 8.26588 6.0965 8.41681 5.91527 8.5979C5.34137 9.17139 4.76748 9.74488 4.19359 10.3184C4.11808 10.3938 4.04257 10.4542 3.98216 10.5145C4.28421 10.8164 4.57116 11.1031 4.8732 11.405C4.8883 11.3747 4.91851 11.3295 4.94871 11.2993C5.55281 10.6805 6.17201 10.0769 6.77611 9.47325C6.97244 9.27701 7.09326 9.26193 7.3349 9.38271C7.89365 9.65434 8.45251 9.94105 9.01129 10.2128C9.08675 10.2429 9.11698 10.2429 9.17737 10.1825C9.41907 9.94105 9.66069 9.68449 9.91739 9.44302C9.97785 9.38271 9.99293 9.32232 9.97785 9.23178C9.88723 8.71867 9.81169 8.20557 9.72108 7.69243C9.706 7.63207 9.67577 7.55661 9.63046 7.51134C9.22268 7.10386 8.8149 6.6964 8.4072 6.28892C8.34674 6.27384 8.31658 6.25874 8.27127 6.21347ZM13.3155 3.78374C13.1946 3.78374 13.0738 3.78374 12.9681 3.78374C11.9261 3.76864 11.0501 4.14593 10.3101 4.88542C9.97785 5.21743 9.63046 5.56453 9.29822 5.89655C9.25291 5.94182 9.19252 5.9871 9.13206 6.03237C9.32845 6.22856 9.49453 6.39457 9.67577 6.57566C9.69085 6.54548 9.72108 6.5153 9.75131 6.48512C10.1138 6.12292 10.4913 5.74563 10.8538 5.38344C11.0652 5.17216 11.3068 4.99105 11.5787 4.85523C11.9864 4.64395 12.4244 4.53831 12.8775 4.53831C13.0134 4.53831 13.1645 4.53831 13.3004 4.53831C13.3155 4.25158 13.3155 4.0252 13.3155 3.78374ZM6.7006 10.6202C6.26263 11.0579 5.80955 11.5106 5.35648 11.9633C5.41689 12.0237 5.4924 12.0841 5.55281 12.1595C6.05119 12.6424 6.7006 12.6424 7.18387 12.1595C7.59164 11.7521 8.0145 11.3295 8.42228 10.922C8.45251 10.8919 8.46758 10.8616 8.51289 10.8315C8.15042 10.6504 7.80311 10.4693 7.42548 10.2881C7.42548 10.5598 7.42548 10.8013 7.42548 11.0579C7.42548 11.2842 7.27449 11.4502 7.06305 11.4502C6.85162 11.4502 6.7006 11.2842 6.68549 11.0579C6.7006 10.8919 6.7006 10.7409 6.7006 10.6202Z" fill="#FA7436"/>
<path d="M14.6394 8.78066C14.6234 8.85081 14.6074 8.92102 14.5754 8.99124C14.3676 9.5668 13.6959 9.95995 13.0402 9.86164C12.3047 9.76334 11.7769 9.24395 11.793 8.61222C11.793 8.33142 11.9209 8.0787 12.0648 7.85408C12.3206 7.44695 12.6085 7.03983 12.8804 6.63269C13.0402 6.40807 13.3601 6.40807 13.52 6.60462C13.9038 7.08194 14.2556 7.58734 14.5115 8.13486C14.5595 8.24716 14.5914 8.37355 14.6394 8.48582C14.6394 8.58413 14.6394 8.68236 14.6394 8.78066ZM13.2321 7.44695C13.2162 7.44695 13.2002 7.43291 13.1841 7.43291C12.9923 7.78389 12.7844 8.12082 12.6085 8.48582C12.5126 8.6964 12.6245 8.94911 12.8484 9.08947C13.0722 9.22991 13.3761 9.22991 13.6 9.08947C13.8239 8.94911 13.9198 8.71045 13.8398 8.48582C13.6959 8.10678 13.456 7.78389 13.2321 7.44695Z" fill="#FA7436"/>
</svg>
