<svg width="47" height="35" viewBox="0 0 47 35" fill="none" xmlns="http://www.w3.org/2000/svg">
<g clip-path="url(#clip0_52_47)">
<g clip-path="url(#clip1_52_47)">
<path d="M0.991041 3.46263C1.02666 3.38312 1.0623 3.30362 1.08604 3.22411C1.45419 2.05428 2.42797 1.3501 3.7224 1.33875C6.10937 1.33875 8.49633 1.33875 10.8833 1.33875C16.8566 1.33875 22.8182 1.33875 28.7915 1.33875C30.6559 1.33875 31.7485 2.37229 31.7485 4.15545C31.7485 5.8818 31.7485 7.60816 31.7485 9.34588C31.7485 9.49353 31.7485 9.65255 31.7485 9.84562C31.9504 9.84562 32.1048 9.84562 32.2591 9.84562C34.4799 9.84562 36.7006 9.85698 38.9213 9.84562C40.192 9.83426 41.0945 10.3567 41.6645 11.4471C43.1371 14.2751 44.6097 17.0918 46.0941 19.9084C46.3791 20.4423 46.5216 20.9761 46.5097 21.578C46.4741 23.0092 46.4979 24.4402 46.4979 25.8713C46.4979 26.9843 45.9991 27.7907 44.9659 28.3131C44.8472 28.3699 44.7284 28.5289 44.7284 28.6425C44.6809 29.8578 44.2415 30.9368 43.3983 31.9135C43.5409 31.9249 43.6477 31.9476 43.7547 31.9476C44.3603 31.9476 44.9659 31.9362 45.5716 31.9476C46.1059 31.959 46.4859 32.3224 46.4859 32.7995C46.4859 33.2651 46.1059 33.6172 45.5596 33.6399C45.4766 33.6399 45.3815 33.6399 45.2984 33.6399C30.9291 33.6399 16.5598 33.6399 2.19046 33.6512C1.64419 33.6512 1.24043 33.5036 0.979164 33.0493C0.979164 32.8789 0.979164 32.7086 0.979164 32.5382C1.24043 32.0725 1.64419 31.9249 2.19046 31.9362C3.82927 31.959 5.47997 31.9476 7.11878 31.9476C7.27317 31.9476 7.42754 31.9476 7.67693 31.9476C6.76252 30.9254 6.34688 29.8237 6.29938 28.5403C5.38496 28.5403 4.50618 28.5516 3.61552 28.5403C2.66549 28.5176 1.90546 28.12 1.39481 27.3478C1.20479 27.0638 1.10979 26.7344 0.979164 26.4164C0.991041 18.7727 0.991041 11.1177 0.991041 3.46263ZM29.9672 26.848C29.9672 26.6549 29.9672 26.53 29.9672 26.405C29.9672 18.9999 29.9672 11.5947 29.9672 4.17815C29.9672 3.31498 29.6822 3.04239 28.7678 3.04239C20.5025 3.04239 12.2371 3.04239 3.97178 3.04239C3.0455 3.04239 2.77236 3.30362 2.77236 4.21223C2.77236 9.32317 2.77236 14.4341 2.77236 19.5564C2.77236 19.7041 2.77236 19.8631 2.77236 20.0447C3.63927 20.0447 4.47055 20.0447 5.28997 20.0447C5.99062 20.0447 6.32312 20.3628 6.32312 21.0443C6.32312 21.8961 6.32312 22.7479 6.32312 23.5883C6.32312 25.0194 6.20437 25.1443 4.71993 25.1443C4.07867 25.1443 3.42551 25.1443 2.77236 25.1443C2.77236 25.3942 2.77236 25.576 2.77236 25.7577C2.77236 26.5413 3.08112 26.8366 3.88866 26.8366C4.66056 26.8366 5.43246 26.8253 6.20437 26.848C6.50126 26.8594 6.65564 26.7685 6.78627 26.4959C7.74818 24.5538 9.37513 23.4748 11.6196 23.4634C13.8878 23.452 15.5266 24.5311 16.5123 26.4732C16.6547 26.7685 16.8092 26.848 17.1298 26.848C21.2506 26.8366 25.3595 26.8366 29.4803 26.8366C29.6347 26.848 29.7771 26.848 29.9672 26.848ZM44.3366 26.6095C44.3959 26.6208 44.4552 26.6208 44.5147 26.6322C44.5859 26.3823 44.7166 26.1212 44.7284 25.8713C44.7521 24.5992 44.7403 23.3158 44.7403 22.0437C44.7403 21.9528 44.7166 21.862 44.7046 21.7484C44.5147 21.7484 44.3603 21.7484 44.194 21.7484C41.0233 21.7484 37.8525 21.7484 34.6818 21.7484C33.8505 21.7484 33.5417 21.4645 33.5417 20.6808C33.5417 18.5569 33.5417 16.4331 33.5417 14.3092C33.5417 13.5482 33.8505 13.253 34.6461 13.253C36.4631 13.253 38.2919 13.253 40.1088 13.253C40.2632 13.253 40.4176 13.253 40.6314 13.253C40.4295 12.8668 40.2514 12.5601 40.1088 12.2307C39.8832 11.7424 39.527 11.5379 38.9569 11.5379C36.7006 11.5607 34.4561 11.5493 32.1998 11.5493C32.0572 11.5493 31.9148 11.5493 31.7841 11.5493C31.7841 16.6829 31.7841 21.7484 31.7841 26.848C32.5323 26.848 33.2567 26.8366 33.9692 26.8594C34.2661 26.8707 34.3968 26.7798 34.5155 26.5186C35.8693 23.5316 39.7408 22.5321 42.5077 24.4175C43.3271 24.974 43.9209 25.7236 44.3366 26.6095ZM15.6691 31.9022C22.2719 31.9022 28.8034 31.9022 35.3943 31.9022C34.5037 30.9027 34.0999 29.7896 34.0524 28.5744C28.3402 28.5744 22.6756 28.5744 17.0111 28.5744C16.9517 29.835 16.5241 30.9254 15.6691 31.9022ZM35.3349 14.9452C35.3349 16.6375 35.3349 18.3297 35.3349 20.0107C38.2682 20.0107 41.1895 20.0107 44.1465 20.0107C43.2796 18.3525 42.4364 16.7283 41.5814 15.1155C41.5339 15.0248 41.3558 14.9452 41.237 14.9452C39.2895 14.9452 37.3299 14.9452 35.3349 14.9452ZM15.206 28.5744C15.2178 26.7003 13.6266 25.1557 11.6671 25.1557C9.71951 25.1443 8.11632 26.6549 8.09258 28.5062C8.06882 30.3802 9.66013 31.9362 11.6077 31.9476C13.5791 31.959 15.1941 30.437 15.206 28.5744ZM35.8337 28.5289C35.8218 30.403 37.425 31.9362 39.3844 31.9476C41.3201 31.9476 42.9233 30.437 42.9471 28.5857C42.959 26.7117 41.3795 25.1671 39.4201 25.1557C37.4487 25.133 35.8455 26.6549 35.8337 28.5289ZM4.52993 21.7711C3.92428 21.7711 3.36614 21.7711 2.79612 21.7711C2.79612 22.339 2.79612 22.8729 2.79612 23.418C3.38988 23.418 3.9599 23.418 4.52993 23.418C4.52993 22.8502 4.52993 22.3277 4.52993 21.7711Z" fill="#FFC1A6"/>
<path d="M13.6681 7.91041L14.5039 8.13167L14.5033 8.18061C14.5032 8.1806 14.5034 8.18061 14.5033 8.18061C15.8574 8.19765 17.2119 8.19553 18.5657 8.1934C19.0169 8.19269 19.468 8.19198 19.9191 8.19198C20.7858 8.19198 21.6648 8.19198 22.532 8.18062C22.8596 8.18062 23.1887 8.18188 23.5184 8.18314C24.1797 8.18567 24.8432 8.1882 25.5011 8.18062C26.0592 8.16877 26.4647 7.76332 26.4521 7.26724C26.4394 6.7828 26.0464 6.42594 25.5157 6.39052L25.5125 6.39041H25.5108H25.5091H25.5075H25.5058H25.5042H25.5025H25.5008H25.4992H25.4975H25.4958H25.4942H25.4925H25.4908H25.4892H25.4875H25.4858H25.4842H25.4825H25.4809H25.4793H25.4776H25.476H25.4743H25.4726H25.4711H25.4694H25.4677H25.4661H25.4645H25.4628H25.4612H25.4595H25.4579H25.4563H25.4546H25.453H25.4514H25.4497H25.4481H25.4465H25.4448H25.4433H25.4416H25.4399H25.4384H25.4367H25.4351H25.4335H25.4318H25.4302H25.4286H25.427H25.4253H25.4238H25.4221H25.4205H25.4189H25.4173H25.4156H25.4141H25.4124H25.4108H25.4092H25.4076H25.406H25.4044H25.4028H25.4011H25.3996H25.398H25.3963H25.3948H25.3931H25.3916H25.39H25.3883H25.3868H25.3852H25.3835H25.382H25.3804H25.3788H25.3772H25.3756H25.374H25.3724H25.3708H25.3692H25.3677H25.366H25.3644H25.3629H25.3613H25.3597H25.3581H25.3565H25.3549H25.3534H25.3518H25.3501H25.3486H25.347H25.3454H25.3439H25.3423H25.3407H25.3392H25.3375H25.3359H25.3344H25.3328H25.3312H25.3297H25.3281H25.3265H25.325H25.3234H25.3218H25.3203H25.3187H25.3171H25.3155H25.3139H25.3123H25.3108H25.3092H25.3076H25.3061H25.3045H25.3029H25.3015H25.2999H25.2983H25.2968H25.2952H25.2936H25.2921H25.2905H25.2889H25.2874H25.2858H25.2842H25.2827H25.2811H25.2795H25.278H25.2765H25.2749H25.2734H25.2718H25.2702H25.2687H25.2671H25.2655H25.2641H25.2625H25.2609H25.2594H25.2578H25.2562H25.2548H25.2532H25.2516H25.2501H25.2485H25.2469H25.2455H25.2439H25.2423H25.2408H25.2392H25.2377H25.2362H25.2346H25.233H25.2316H25.23H25.2284H25.2269H25.2253H25.2238H25.2223H25.2207H25.2191H25.2177H25.2161H25.2145H25.213H25.2115H25.2099H25.2083H25.2069H25.2053H25.2037H25.2022H25.2007H25.1991H25.1976H25.1961H25.1945H25.193H25.1915H25.1899H25.1884H25.1868H25.1853H25.1838H25.1822H25.1807H25.1792H25.1776H25.1761H25.1746H25.173H25.1715H25.17H25.1684H25.1669H25.1654H25.1638H25.1623H25.1608H25.1592H25.1577H25.1562H25.1546H25.1531H25.1516H25.15H25.1485H25.147H25.1454H25.1439H25.1424H25.1409H25.1393H25.1378H25.1363H25.1347H25.1331H25.1317H25.1301H25.1285H25.1271H25.1255H25.1239H25.1225H25.1209H25.1194H25.1179H25.1163H25.1148H25.1133H25.1117H25.1102H25.1087H25.0891H25.0694H25.0498H25.0302H25.0106H24.991H24.9713H24.9517H24.932H24.9124H24.8929H24.8732H24.8536H24.8339H24.8143H24.7947H24.7751H24.7555H24.7358H24.7162H24.6965H24.677H24.6573H24.6377H24.618H24.5984H24.5787H24.5592H24.5395H24.5199H24.5002H24.4806H24.4611H24.4414H24.4218H24.4021H24.3825H24.3628H24.3433H24.3236H24.304H24.2843H24.2647H24.245H24.2254H24.2058H24.1861H24.1665H24.1468H24.1273H24.1076H24.088H24.0683H24.0487H24.029H24.0095H23.9898H23.9702H23.9505H23.9308H23.9112H23.8916H23.872H23.8523H23.8327H23.813H23.7934H23.7738H23.7541H23.7345H23.7148H23.6952H23.6756H23.6559H23.6363H23.6166H23.597H23.5774H23.5577H23.5381H23.5184H23.4988H23.4791H23.4595H23.4399H23.4202H23.4006H23.3809H23.3612H23.3417H23.322H23.3023H23.2827H23.263H23.2435H23.2238H23.2041H23.1845H23.1648H23.1451H23.1256H23.1059H23.0862H23.0666H23.0469H23.0273H23.0077H22.988H22.9683H22.9487H22.929H22.9094H22.8898H22.8701H22.8504H22.8308H22.8112H22.7915H22.7719H22.7522H22.7325H22.7128H22.6933H22.6736H22.6539H22.6343H22.6146H22.595H22.5754H22.5557H22.536H22.5163H22.4967H22.4771H22.4574H22.4378H22.4181H22.3984H22.3788H22.3592H22.3395H22.3198H22.3001H22.2805H22.2609H22.2412H22.2215H22.2019H22.1822H22.1626H22.1429H22.1233H22.1036H22.0839H22.0642H22.0447H22.025H22.0053H21.9856H21.966H21.9464H21.9267H21.907H21.8873H21.8677H21.848H21.8284H21.8087H21.789H21.7694H21.7497H21.7301H21.7104H21.6908H21.6711H21.6514H21.6317H21.6121H21.5925H21.5728H21.5531H21.5334H21.5138H21.4941H21.4745H21.4548H21.4351H21.4154H21.3958H21.3761H21.3565H21.3368H21.3171H21.2975H21.2778H21.2581H21.2385H21.2188H21.1992H21.1795H21.1598H21.1401H21.1205H21.1008H21.0812H21.0615H21.0418H21.0221H21.0024H20.9829H20.9632H20.9435H20.9238H20.9041H20.8844H20.8648H20.8452H20.8255H20.8058H20.7861H20.7665H20.7468H20.7271H20.7074H20.6877H20.6681H20.6485H20.6288H20.6091H20.5894H20.5697H20.5501H20.5304H20.5107H20.4911H20.4714H20.4518H20.4321H20.4124H20.3927H20.373H20.3533H20.3337H20.314H20.2943H20.2747H20.255H20.2354H20.2157H20.196H20.1763H20.1566H20.137H20.1173H20.0976H20.0779H20.0582H20.0385H20.0189H19.9993H19.9796H19.9599H19.9402H19.9206H19.9009H19.8812H19.8615H19.8418H19.8221H19.8025H19.7828H19.7631H19.7434H19.7237H19.7041H19.6844H19.6647H19.645H19.6254H19.6058H19.5861H19.5664H19.5467H19.527H19.5073H19.4877H19.468H19.4483H19.4286H19.4089H19.3893H19.3696H19.3499H19.3302H19.3105H19.2909H19.2712H19.2515H19.2318H19.2121H19.1924H19.1728H19.1531H19.1334H19.1137H19.094H19.0744H19.0547H19.035H19.0153H18.9956H18.976H18.9563H18.9366H18.9169H18.8972H18.8775H18.8579H18.8382H18.8185H18.7988H18.7791H18.7595H18.7398H18.7201H18.7004H18.6807H18.6611H18.6414H18.6217H18.602H18.5823H18.5626H18.543H18.5233H18.5036H18.4839H18.4642H18.4446H18.4249H18.4052H18.3855H18.3658H18.3462H18.3265H18.3067H18.287H18.2673H18.2476H18.228H18.2083H18.1886H18.1689H18.1492H18.1296H18.1099H18.0902H18.0705H18.0508H18.0312H18.0115H17.9918H17.9721H17.9524H17.9327H17.9131H17.8934H17.8737H17.8539H17.8342H17.8146H17.7949H17.7752H17.7555H17.7358H17.7162H17.6965H17.6768H17.6571H17.6374H17.6178H17.5981H17.5784H17.5587H17.539H17.5192H17.4996H17.4799H17.4602H17.4405H17.4208H17.4012H17.3815H17.3618H17.3421H17.3224H17.3028H17.2831H17.2634H17.2436H17.2239H17.2042H17.1846H17.1649H17.1452H17.1255H17.1058H17.0862H17.0665H17.0468H17.0271H17.0074H16.9877H16.968H16.9483H16.9286H16.9089H16.8893H16.8696H16.8499H16.8302H16.8105H16.7908H16.7711H16.7514H16.7317H16.712H16.6923H16.6727H16.653H16.6333H16.6136H16.5939H16.5743H16.5545H16.5348H16.5151H16.4954H16.4757H16.4561H16.4364H16.4167H16.397H16.3773H16.3577H16.3379H16.3182H16.2985H16.2788H16.2592H16.2395H16.2198H16.2001H16.1804H16.1608H16.141H16.1213H16.1016H16.0819H16.0622H16.0426H16.0229H16.0032H15.9835H15.9638H15.9441H15.9244H15.9047H15.885H15.8653H15.8457H15.826H15.8063H15.7866H15.7668H15.7471H15.7275H15.7078H15.6881H15.6684H15.6487H15.6291H15.6094H15.5897H15.5699H15.5502H15.5306H15.5109H15.4912H15.4715H15.4518H15.4322H15.4125H15.3927H15.373H15.3533H15.3336H15.314H15.2943H15.2746H15.2549H15.2352H15.2155H15.1958H15.1761H15.1564H15.1367H15.1171H15.0974H15.0777H15.058H15.0382C14.9745 6.39041 14.9096 6.38972 14.844 6.38901C14.6437 6.38687 14.4373 6.38467 14.2384 6.40196C13.8523 6.4377 13.5744 6.64237 13.4369 7.00109L13.4365 7.00201C13.3126 7.34582 13.3721 7.70115 13.6681 7.91041Z" fill="#FA7436"/>
<path d="M14.5033 8.18061L14.5039 8.13167L13.6681 7.91041C13.3721 7.70115 13.3126 7.34582 13.4365 7.00201L13.4369 7.00109C13.5744 6.64237 13.8523 6.4377 14.2384 6.40196C14.4373 6.38467 14.6437 6.38687 14.844 6.38901C14.9096 6.38972 14.9745 6.39041 15.0382 6.39041H15.058H15.0777H15.0974H15.1171H15.1367H15.1564H15.1761H15.1958H15.2155H15.2352H15.2549H15.2746H15.2943H15.314H15.3336H15.3533H15.373H15.3927H15.4125H15.4322H15.4518H15.4715H15.4912H15.5109H15.5306H15.5502H15.5699H15.5897H15.6094H15.6291H15.6487H15.6684H15.6881H15.7078H15.7275H15.7471H15.7668H15.7866H15.8063H15.826H15.8457H15.8653H15.885H15.9047H15.9244H15.9441H15.9638H15.9835H16.0032H16.0229H16.0426H16.0622H16.0819H16.1016H16.1213H16.141H16.1608H16.1804H16.2001H16.2198H16.2395H16.2592H16.2788H16.2985H16.3182H16.3379H16.3577H16.3773H16.397H16.4167H16.4364H16.4561H16.4757H16.4954H16.5151H16.5348H16.5545H16.5743H16.5939H16.6136H16.6333H16.653H16.6727H16.6923H16.712H16.7317H16.7514H16.7711H16.7908H16.8105H16.8302H16.8499H16.8696H16.8893H16.9089H16.9286H16.9483H16.968H16.9877H17.0074H17.0271H17.0468H17.0665H17.0862H17.1058H17.1255H17.1452H17.1649H17.1846H17.2042H17.2239H17.2436H17.2634H17.2831H17.3028H17.3224H17.3421H17.3618H17.3815H17.4012H17.4208H17.4405H17.4602H17.4799H17.4996H17.5192H17.539H17.5587H17.5784H17.5981H17.6178H17.6374H17.6571H17.6768H17.6965H17.7162H17.7358H17.7555H17.7752H17.7949H17.8146H17.8342H17.8539H17.8737H17.8934H17.9131H17.9327H17.9524H17.9721H17.9918H18.0115H18.0312H18.0508H18.0705H18.0902H18.1099H18.1296H18.1492H18.1689H18.1886H18.2083H18.228H18.2476H18.2673H18.287H18.3067H18.3265H18.3462H18.3658H18.3855H18.4052H18.4249H18.4446H18.4642H18.4839H18.5036H18.5233H18.543H18.5626H18.5823H18.602H18.6217H18.6414H18.6611H18.6807H18.7004H18.7201H18.7398H18.7595H18.7791H18.7988H18.8185H18.8382H18.8579H18.8775H18.8972H18.9169H18.9366H18.9563H18.976H18.9956H19.0153H19.035H19.0547H19.0744H19.094H19.1137H19.1334H19.1531H19.1728H19.1924H19.2121H19.2318H19.2515H19.2712H19.2909H19.3105H19.3302H19.3499H19.3696H19.3893H19.4089H19.4286H19.4483H19.468H19.4877H19.5073H19.527H19.5467H19.5664H19.5861H19.6058H19.6254H19.645H19.6647H19.6844H19.7041H19.7237H19.7434H19.7631H19.7828H19.8025H19.8221H19.8418H19.8615H19.8812H19.9009H19.9206H19.9402H19.9599H19.9796H19.9993H20.0189H20.0385H20.0582H20.0779H20.0976H20.1173H20.137H20.1566H20.1763H20.196H20.2157H20.2354H20.255H20.2747H20.2943H20.314H20.3337H20.3533H20.373H20.3927H20.4124H20.4321H20.4518H20.4714H20.4911H20.5107H20.5304H20.5501H20.5697H20.5894H20.6091H20.6288H20.6485H20.6681H20.6877H20.7074H20.7271H20.7468H20.7665H20.7861H20.8058H20.8255H20.8452H20.8648H20.8844H20.9041H20.9238H20.9435H20.9632H20.9829H21.0024H21.0221H21.0418H21.0615H21.0812H21.1008H21.1205H21.1401H21.1598H21.1795H21.1992H21.2188H21.2385H21.2581H21.2778H21.2975H21.3171H21.3368H21.3565H21.3761H21.3958H21.4154H21.4351H21.4548H21.4745H21.4941H21.5138H21.5334H21.5531H21.5728H21.5925H21.6121H21.6317H21.6514H21.6711H21.6908H21.7104H21.7301H21.7497H21.7694H21.789H21.8087H21.8284H21.848H21.8677H21.8873H21.907H21.9267H21.9464H21.966H21.9856H22.0053H22.025H22.0447H22.0642H22.0839H22.1036H22.1233H22.1429H22.1626H22.1822H22.2019H22.2215H22.2412H22.2609H22.2805H22.3001H22.3198H22.3395H22.3592H22.3788H22.3984H22.4181H22.4378H22.4574H22.4771H22.4967H22.5163H22.536H22.5557H22.5754H22.595H22.6146H22.6343H22.6539H22.6736H22.6933H22.7128H22.7325H22.7522H22.7719H22.7915H22.8112H22.8308H22.8504H22.8701H22.8898H22.9094H22.929H22.9487H22.9683H22.988H23.0077H23.0273H23.0469H23.0666H23.0862H23.1059H23.1256H23.1451H23.1648H23.1845H23.2041H23.2238H23.2435H23.263H23.2827H23.3023H23.322H23.3417H23.3612H23.3809H23.4006H23.4202H23.4399H23.4595H23.4791H23.4988H23.5184H23.5381H23.5577H23.5774H23.597H23.6166H23.6363H23.6559H23.6756H23.6952H23.7148H23.7345H23.7541H23.7738H23.7934H23.813H23.8327H23.8523H23.872H23.8916H23.9112H23.9308H23.9505H23.9702H23.9898H24.0095H24.029H24.0487H24.0683H24.088H24.1076H24.1273H24.1468H24.1665H24.1861H24.2058H24.2254H24.245H24.2647H24.2843H24.304H24.3236H24.3433H24.3628H24.3825H24.4021H24.4218H24.4414H24.461H24.4806H24.5002H24.5199H24.5395H24.5592H24.5787H24.5984H24.618H24.6377H24.6573H24.677H24.6965H24.7162H24.7358H24.7555H24.7751H24.7947H24.8143H24.8339H24.8536H24.8732H24.8929H24.9124H24.932H24.9517H24.9713H24.991H25.0106H25.0302H25.0498H25.0694H25.0891H25.1087H25.1102H25.1117H25.1133H25.1148H25.1163H25.1179H25.1194H25.1209H25.1225H25.1239H25.1255H25.1271H25.1285H25.1301H25.1317H25.1331H25.1347H25.1363H25.1378H25.1393H25.1409H25.1424H25.1439H25.1454H25.147H25.1485H25.15H25.1516H25.1531H25.1546H25.1562H25.1577H25.1592H25.1608H25.1623H25.1638H25.1654H25.1669H25.1684H25.17H25.1715H25.173H25.1746H25.1761H25.1776H25.1792H25.1807H25.1822H25.1838H25.1853H25.1868H25.1884H25.1899H25.1915H25.193H25.1945H25.1961H25.1976H25.1991H25.2007H25.2022H25.2037H25.2053H25.2069H25.2083H25.2099H25.2115H25.213H25.2145H25.2161H25.2177H25.2191H25.2207H25.2223H25.2238H25.2253H25.2269H25.2284H25.23H25.2316H25.233H25.2346H25.2362H25.2377H25.2392H25.2408H25.2423H25.2439H25.2455H25.2469H25.2485H25.2501H25.2516H25.2532H25.2548H25.2562H25.2578H25.2594H25.2609H25.2625H25.2641H25.2655H25.2671H25.2687H25.2702H25.2718H25.2734H25.2749H25.2765H25.278H25.2795H25.2811H25.2827H25.2842H25.2858H25.2874H25.2889H25.2905H25.2921H25.2936H25.2952H25.2968H25.2983H25.2999H25.3015H25.3029H25.3045H25.3061H25.3076H25.3092H25.3108H25.3123H25.3139H25.3155H25.3171H25.3187H25.3203H25.3218H25.3234H25.325H25.3265H25.3281H25.3297H25.3312H25.3328H25.3344H25.3359H25.3375H25.3392H25.3407H25.3423H25.3439H25.3454H25.347H25.3486H25.3501H25.3518H25.3534H25.3549H25.3565H25.3581H25.3597H25.3613H25.3629H25.3644H25.366H25.3677H25.3692H25.3708H25.3724H25.374H25.3756H25.3772H25.3788H25.3804H25.382H25.3835H25.3852H25.3868H25.3883H25.39H25.3916H25.3931H25.3948H25.3963H25.398H25.3996H25.4011H25.4028H25.4044H25.406H25.4076H25.4092H25.4108H25.4124H25.4141H25.4156H25.4173H25.4189H25.4205H25.4221H25.4238H25.4253H25.427H25.4286H25.4302H25.4318H25.4335H25.4351H25.4367H25.4384H25.4399H25.4416H25.4433H25.4448H25.4465H25.4481H25.4497H25.4514H25.453H25.4546H25.4563H25.4579H25.4595H25.4612H25.4628H25.4645H25.4661H25.4677H25.4694H25.4711H25.4726H25.4743H25.476H25.4776H25.4793H25.4809H25.4825H25.4842H25.4858H25.4875H25.4892H25.4908H25.4925H25.4942H25.4958H25.4975H25.4992H25.5008H25.5025H25.5042H25.5058H25.5075H25.5091H25.5108H25.5125L25.5157 6.39052C26.0464 6.42594 26.4394 6.7828 26.4521 7.26724C26.4647 7.76332 26.0592 8.16877 25.5011 8.18062C24.8432 8.1882 24.1797 8.18567 23.5184 8.18314C23.1887 8.18188 22.8596 8.18062 22.532 8.18062C21.6648 8.19198 20.7858 8.19198 19.9191 8.19198C19.468 8.19198 19.0169 8.19269 18.5657 8.1934C17.2119 8.19553 15.8574 8.19765 14.5033 8.18061ZM14.5033 8.18061C14.5032 8.1806 14.5034 8.18061 14.5033 8.18061Z" stroke="#FA7436" stroke-width="0.0979167"/>
<path d="M26.4557 10.7088C26.462 10.433 26.3549 10.2026 26.1571 10.0421C25.9604 9.88269 25.6784 9.79553 25.338 9.79553H25.3309H25.3238H25.3167H25.3096H25.3025H25.2954H25.2884H25.2812H25.2741H25.267H25.26H25.2528H25.2458H25.2386H25.2316H25.2245H25.2174H25.2103H25.2032H25.1961H25.189H25.1819H25.1748H25.1677H25.1606H25.1535H25.1464H25.1393H25.1322H25.1251H25.118H25.1109H25.1038H25.0967H25.0896H25.0825H25.0754H25.0683H25.0612H25.0541H25.047H25.0399H25.0328H25.0257H25.0186H25.0115H25.0045H24.9973H24.9903H24.9831H24.9761H24.9689H24.9619H24.9547H24.9477H24.9405H24.9335H24.9264H24.9193H24.9122H24.9051H24.898H24.8909H24.8838H24.8767H24.8696H24.8625H24.8554H24.8483H24.8412H24.8341H24.827H24.8199H24.8128H24.8057H24.7986H24.7915H24.7844H24.7773H24.7703H24.7631H24.7561H24.7489H24.7419H24.7347H24.7277H24.7205H24.7135H24.7063H24.6993H24.6921H24.6851H24.6779H24.6709H24.6637H24.6567H24.6495H24.6425H24.6353H24.6283H24.6211H24.6141H24.6069H24.5999H24.5927H24.5857H24.5786H24.5715H24.5644H24.5573H24.5502H24.5431H24.5361H24.5289H24.5219H24.5147H24.5077H24.5005H24.4935H24.4863H24.4793H24.4721H24.4651H24.4579H24.4509H24.4437H24.4367H24.4295H24.4225H24.4153H24.4083H24.4011H24.3941H24.3869H24.3799H24.3727H24.3657H24.3585H24.3515H24.3443H24.3373H24.3301H24.3231H24.3159H24.3089H24.3018H24.2947H24.2876H24.2805H24.2734H24.2663H24.2592H24.2521H24.245H24.2379H24.2308H24.2237H24.2167H24.2095H24.2025H24.1953H24.1883H24.1811H24.1741H24.1669H24.1599H24.1527H24.1457H24.1385H24.1315H24.1243H24.1173H24.1101H24.1031H24.0959H24.0889H24.0817H24.0747H24.0676H24.0605H24.0534H24.0463H24.0392H24.0321H24.025H24.0179H24.0108H24.0037H23.9966H23.9895H23.9824H23.9753H23.9682H23.9611H23.954H23.9469H23.9398H23.9327H23.9256H23.9185H23.9114H23.9043H23.8972H23.8901H23.883H23.8759H23.8689H23.8617H23.8547H23.8476H23.8405H23.8334H23.8263H23.8192H23.8121H23.805H23.7979H23.7908H23.7837H23.7766H23.7695H23.7624H23.7553H23.7482H23.7411H23.734H23.7269H23.7198H23.7127H23.7056H23.6985H23.6914H23.6843H23.6772H23.6701H23.663H23.6559H23.6488H23.6417H23.6346H23.6275H23.6204H23.6134H23.6062H23.5992H23.592H23.585H23.5778H23.5708H23.5636H23.5566H23.5494H23.5424H23.5352H23.5282H23.5211H23.514H23.5069H23.4998H23.4927H23.4856H23.4785H23.4714H23.4643H23.4572H23.4501H23.443H23.4359H23.4288H23.4217H23.4146H23.4075H23.4004H23.3933H23.3862H23.3792H23.372H23.365H23.3578H23.3508H23.3436H23.3366H23.3294H23.3224H23.3152H23.3082H23.301H23.294H23.2868H23.2798H23.2726H23.2656H23.2584H23.2514H23.2442H23.2372H23.23H23.223H23.2158H23.2088H23.2016H23.1946H23.1874H23.1804H23.1733H23.1662H23.1591H23.152H23.145H23.1378H23.1308H23.1236H23.1166H23.1094H23.1024H23.0952H23.0882H23.081H23.074H23.0668H23.0598H23.0526H23.0456H23.0384H23.0314H23.0242H23.0172H23.01H23.003H22.9958H22.9888H22.9816H22.9746H22.9674H22.9604H22.9532H22.9462H22.939H22.932H22.9249H22.9178H22.9107H22.9036H22.8965H22.8894H22.8823H22.8752H22.8681H22.861H22.8539H22.8468H22.8397H22.8326H22.8255H22.8184H22.8114H22.8042H22.7972H22.79H22.783H22.7758H22.7688H22.7616H22.7546H22.7474H22.7404H22.7332H22.7262H22.719H22.712H22.7048H22.6978H22.6907H22.6836H22.6765H22.6694H22.6623H22.6552H22.6481H22.641H22.6339H22.6268H22.6197H22.6126H22.6055H22.5984H22.5913H22.5842H22.5771H22.57H22.5629H22.5558H22.5487H22.5416H22.5345H22.5274H22.5203H22.5132H22.5061H22.499H22.4919H22.4848H22.4777H22.4706H22.4636H22.4565H22.4494H22.4423H22.4352H22.4281H22.421H22.4139H22.4068H22.3997H22.3926H22.3855H22.3784H22.3713H22.3642H22.3571H22.35H22.3429H22.3358H22.3287H22.3216H22.3145H22.3074H22.3003H22.2932H22.2861H22.279H22.2719H22.2648H22.2577H22.2506H22.2435H22.2364H22.2293H22.2223H22.2151H22.2081H22.2009H22.1939H22.1867H22.1797H22.1725H22.1655H22.1583H22.1513H22.1441H22.1371H22.1299H22.1229H22.1158H22.1087H22.1016H22.0945H22.0874H22.0803H22.0732H22.0661H22.059H22.0519H22.0448H22.0377H22.0306H22.0235H22.0164H22.0093H22.0023H21.9951H21.9881H21.9809H21.9739H21.9667H21.9597H21.9525H21.9455H21.9383H21.9313H21.9241H21.9171H21.9099H21.9029H21.8957H21.8887H21.8815H21.8745H21.8673H21.8603H21.8531H21.8461H21.8389H21.8319H21.8247H21.8177H21.8105H21.8035H21.7963H21.7893H21.7821H21.7751H21.768H21.7609H21.7539H21.7467H21.7397H21.7325H21.7255H21.7183H21.7113H21.7041H21.6971H21.6899H21.6829H21.6757H21.6687H21.6615H21.6545H21.6473H21.6403H21.6331H21.6261H21.6189H21.6119H21.6047H21.5977H21.5905H21.5835H21.5763H21.5693H21.5621H21.5551H21.5479H21.5409H21.5338H21.5267H21.5196H21.5125H21.5054H21.4983H21.4912H21.4841H21.477H21.4699H21.4628H21.4557H21.4486H21.4415H21.4344H21.4273H21.4202H21.4131H21.4061H21.3989H21.3919H21.3847H21.3777H21.3705H21.3635H21.3563H21.3493H21.3421H21.3351H21.3279H21.3209H21.3137H21.3067H21.2995H21.2925H21.2853H21.2783H21.2711H21.2641H21.2569H21.2499H21.2427H21.2357H21.2285H21.2215H21.2143H21.2073H21.2001H21.1931H21.1859H21.1789H21.1717H21.1647H21.1575H21.1505H21.1433H21.1363H21.1291H21.1221H21.1149H21.1079H21.1007H21.0937H21.0865H21.0795H21.0724H21.0653H21.0582H21.0511H21.044H21.0369H21.0298H21.0227H21.0156H21.0085H21.0014H20.9943H20.9872H20.9801H20.973H20.9659H20.9588H20.9517H20.9446H20.9375H20.9304H20.9233H20.9162H20.9091H20.902H20.8949H20.8878H20.8807H20.8736H20.8664H20.8594H20.8522H20.8452H20.838H20.831H20.8238H20.8168H20.8096H20.8026H20.7954H20.7884H20.7812H20.7742H20.767H20.76H20.7529H20.7458H20.7387H20.7315H20.7245H20.7173H20.7103H20.7031H20.6961H20.6889H20.6819H20.6747H20.6677H20.6605H20.6535H20.6463H20.6392H20.6321H20.625H20.6179H20.6108H20.6037H20.5966H20.5895H20.5824H20.5752H20.5682H20.561H20.554H20.5468H20.5398H20.5326H20.5256H20.5184H20.5113H20.5042H20.4971H20.49H20.4829H20.4758H20.4687H20.4616H20.4545H20.4473H20.4403H20.4332H20.4261H20.419H20.4119H20.4048H20.3976H20.3906H20.3834H20.3764H20.3692H20.3621H20.355H20.3479H20.3408H20.3337H20.3266H20.3195H20.3123H20.3053H20.2981H20.2911H20.2839H20.2768H20.2697H20.2626H20.2555H20.2484H20.2412H20.2342H20.227H20.22H20.2128H20.2057H20.1986H20.1915H20.1844H20.1773H20.1701H20.1631H20.1559H20.1489H20.1418H20.1346H20.1276H20.1204H20.1133H20.1062H20.0991H20.092H20.0849H20.0777H20.0707H20.0635H20.0564H20.0493H20.0422H20.0351H20.028H20.0208H20.0138H20.0066H19.9995H19.9924H19.9853H19.9781H19.9711H19.9639H19.9568H19.9497H19.9426H19.9355H19.9284H19.9212H19.9142H19.907H19.8999H19.8928H19.8857H19.8786H19.8715H19.8644H19.8572H19.8502H19.843H19.8359H19.8288H19.8217H19.8145H19.8075H19.8003H19.7932H19.7861H19.779H19.7718H19.7647H19.7576H19.7505H19.7433H19.7363H19.7291H19.722H19.7149H19.7078H19.7006H19.6936H19.6864H19.6793H19.6721H19.6651H19.6579H19.6508H19.6437H19.6366H19.6295H19.6223H19.6153H19.6081H19.601H19.5939H19.5868H19.5796H19.5725H19.5654H19.5583H19.5511H19.544H19.5369H19.5298H19.5226H19.5155H19.5084H19.5013H19.4941H19.4871H19.4799H19.4728H19.4656H19.4586H19.4514H19.4443H19.4371H19.43H19.4229H19.4158H19.4086H19.4015H19.3945H19.3873H19.3802H19.373H19.366H19.3588H19.3517H19.3445H19.3374H19.3303H19.3232H19.316H19.3089H19.3017H19.2947H19.2875H19.2804H19.2732H19.2661H19.259H19.2519H19.2447H19.2376H19.2304H19.2234H19.2162H19.2091H19.2019H19.1948H19.1877H19.1806H19.1735H19.1663H19.1592H19.152H19.145H19.1378H19.1307H19.1235H19.1164H19.1092H19.1021H19.095H19.0879H19.0807H19.0736H19.0664H19.0593H19.0522H19.0451H19.0379H19.0308H19.0236H19.0165H19.0093H19.0022H18.9951H18.988H18.9809H18.9737H18.9666H18.9594H18.9523H18.9451H18.938H18.9309H18.9238H18.9166H18.9095H18.9023H18.8952H18.888H18.8809H18.8737H18.8666H18.8594H18.8524H18.8452H18.8381H18.8309H18.8238H18.8166H18.8095H18.8023H18.7952H18.7881H18.7809H18.7738H18.7666H18.7595H18.7523H18.7453H18.7381H18.731H18.7238H18.7167H18.7095H18.7024H18.6952H18.6881H18.6809H18.6738H18.6666H18.6595H18.6523H18.6452H18.638H18.6309H18.6237H18.6166H18.6095H18.6023H18.5952H18.588H18.5809H18.5737H18.5666H18.5594H18.5523H18.5451H18.538H18.5308H18.5237H18.5165H18.5094H18.5022H18.4951H18.4879H18.4808H18.4736H18.4665H18.4592H18.4521H18.445H18.4378H18.4307H18.4235H18.4164H18.4092H18.4021H18.3949H18.3878H18.3806H18.3735H18.3663H18.3592H18.3519H18.3448H18.3376H18.3305H18.3233H18.3162H18.309H18.3019H18.2947H18.2876H18.2805H18.2732H18.2661H18.2589H18.2518H18.2446H18.2375H18.2303H18.2232H18.2159H18.2088H18.2016H18.1945H18.1873H18.1802H18.173H18.1658H18.1586H18.1515H18.1443H18.1372H18.1301H18.1228H18.1157H18.1085H18.1014H18.0942H18.0871H18.0798H18.0727H18.0655H18.0584C17.7244 9.79553 17.4485 9.87679 17.2534 10.0288C17.0571 10.1817 16.9468 10.403 16.9407 10.6725C16.9344 10.9478 17.0382 11.1783 17.2347 11.339C17.4299 11.4987 17.7122 11.5857 18.0584 11.5857H18.0726H18.0869H18.1012H18.1154H18.1297H18.144H18.1582H18.1725H18.1867H18.2009H18.2152H18.2295H18.2437H18.258H18.2723H18.2865H18.3008H18.3151H18.3293H18.3436H18.3578H18.3721H18.3864H18.4006H18.4149H18.4292H18.4434H18.4577H18.4719H18.4862H18.5005H18.5147H18.529H18.5432H18.5575H18.5717H18.586H18.6002H18.6144H18.6287H18.6429H18.6572H18.6714H18.6857H18.7H18.7142H18.7285H18.7427H18.757H18.7712H18.7855H18.7997H18.814H18.8283H18.8425H18.8568H18.871H18.8853H18.8995H18.9138H18.928H18.9423H18.9565H18.9708H18.985H18.9993H19.0135H19.0278H19.042H19.0562H19.0704H19.0847H19.0989H19.1132H19.1274H19.1417H19.1559H19.1702H19.1844H19.1987H19.2129H19.2272H19.2414H19.2557H19.2699H19.2842H19.2984H19.3126H19.3269H19.3411H19.3554H19.3696H19.3839H19.3981H19.4124H19.4266H19.4408H19.4551H19.4693H19.4836H19.4978H19.512H19.5262H19.5404H19.5547H19.5689H19.5832H19.5974H19.6117H19.6259H19.6401H19.6544H19.6686H19.6829H19.6971H19.7113H19.7256H19.7398H19.7541H19.7683H19.7825H19.7968H19.811H19.8252H19.8395H19.8537H19.868H19.8822H19.8964H19.9107H19.9249H19.9391H19.9534H19.9676H19.9818H19.9961H20.0103H20.0245H20.0387H20.0529H20.0672H20.0814H20.0956H20.1099H20.1241H20.1383H20.1526H20.1668H20.181H20.1953H20.2095H20.2237H20.238H20.2522H20.2664H20.2806H20.2949H20.3091H20.3233H20.3376H20.3518H20.366H20.3803H20.3945H20.4087H20.4229H20.4372H20.4514H20.4656H20.4799H20.4941H20.5083H20.5225H20.5367H20.5509H20.5651H20.5794H20.5936H20.6078H20.622H20.6363H20.6505H20.6647H20.6789H20.6932H20.7074H20.7216H20.7359H20.7501H20.7643H20.7785H20.7928H20.807H20.8212H20.8354H20.8496H20.8639H20.8781H20.8923H20.9065H20.9208H20.935H20.9492H20.9634H20.9777H20.9919H21.0061H21.0203H21.0345H21.0488H21.063H21.0771H21.0913H21.1056H21.1198H21.134H21.1482H21.1624H21.1767H21.1909H21.2051H21.2193H21.2335H21.2478H21.262H21.2762H21.2904H21.3046H21.3189H21.3331H21.3473H21.3615H21.3757H21.3899H21.4042H21.4184H21.4326H21.4468H21.461H21.4752H21.4895H21.5037H21.5179H21.5321H21.5463H21.5605H21.5748H21.589H21.6032H21.6174H21.6316H21.6458H21.66H21.6742H21.6884H21.7026H21.7168H21.731H21.7452H21.7595H21.7737H21.7879H21.8021H21.8163H21.8305H21.8447H21.859H21.8732H21.8874H21.9016H21.9158H21.93H21.9442H21.9584H21.9727H21.9869H22.0011H22.0153H22.0295H22.0437H22.0579H22.0721H22.0863H22.1006H22.1148H22.129H22.1432H22.1574H22.1716H22.1858H22.2H22.2142H22.2285H22.2427H22.2568H22.271H22.2852H22.2994H22.3136H22.3278H22.342H22.3562H22.3704H22.3847H22.3989H22.4131H22.4273H22.4415H22.4557H22.4699H22.4841H22.4983H22.5125H22.5267H22.5409H22.5552H22.5694H22.5836H22.5978H22.612H22.6262H22.6404H22.6546H22.6688H22.683H22.6972H22.7114H22.7256H22.7398H22.754H22.7682H22.7825H22.7967H22.8109H22.8251H22.8393H22.8535H22.8677H22.8819H22.896H22.9102H22.9244H22.9386H22.9528H22.967H22.9812H22.9954H23.0096H23.0238H23.038H23.0522H23.0664H23.0807H23.0949H23.1091H23.1233H23.1375H23.1517H23.1659H23.1801H23.1943H23.2085H23.2227H23.2369H23.2511H23.2653H23.2795H23.2937H23.3079H23.3221H23.3363H23.3505H23.3647H23.3789H23.3931H23.4073H23.4215H23.4357H23.4499H23.4641H23.4783H23.4925H23.5067H23.5209H23.5351H23.5493H23.5634H23.5776H23.5918H23.606H23.6202H23.6344H23.6486H23.6628H23.677H23.6912H23.7054H23.7196H23.7338H23.748H23.7622H23.7764H23.7906H23.8048H23.819H23.8332H23.8474H23.8616H23.8758H23.89H23.9042H23.9184H23.9326H23.9468H23.961H23.9752H23.9894H24.0036H24.0178H24.032H24.0462H24.0604H24.0746H24.0888H24.103H24.1172H24.1314H24.1456H24.1598H24.174H24.1882H24.2024H24.2166H24.2308H24.2449H24.2591H24.2733H24.2875H24.3017H24.3159H24.3301H24.3443H24.3585H24.3727H24.3869H24.4011H24.4153H24.4295H24.4437H24.4579H24.4721H24.4863H24.5005H24.5147H24.5289H24.5431H24.5573H24.5715H24.5857H24.5999H24.6141H24.6283H24.6425H24.6567H24.6709H24.6851H24.6993H24.7135H24.7277H24.7419H24.756H24.7702H24.7844H24.7986H24.8128H24.827H24.8412H24.8554H24.8696H24.8838H24.898H24.9122H24.9264H24.9405H24.9547H24.9689H24.9831H24.9973H25.0115H25.0257H25.0399H25.0541H25.0683H25.0825H25.0967H25.1109H25.1251H25.1393H25.1535H25.1677H25.1819H25.1961H25.2103H25.2245H25.2386H25.2528H25.267H25.2812H25.2954H25.3096H25.3238H25.338C25.672 11.5857 25.9479 11.5045 26.143 11.3525C26.3393 11.1995 26.4495 10.9782 26.4557 10.7088Z" fill="#FA7436" stroke="url(#paint0_linear_52_47)" stroke-width="0.0979167"/>
<path d="M10.7495 8.19139L10.7507 8.1914C11.2617 8.1914 11.7021 7.78618 11.7021 7.29063C11.7021 6.80708 11.2864 6.41314 10.7875 6.40121C10.2875 6.38926 9.86011 6.7717 9.83485 7.254C9.80959 7.74975 10.2377 8.17946 10.7495 8.19139Z" fill="#FA7436" stroke="#FA7436" stroke-width="0.0979167"/>
<path d="M9.82222 28.5383C9.82222 29.4983 10.6415 30.2909 11.6406 30.2909C12.639 30.2909 13.4709 29.5104 13.4709 28.5497C13.4709 27.5897 12.6517 26.7971 11.6526 26.7971C10.6542 26.7971 9.82222 27.5775 9.82222 28.5383Z" fill="#FFC1A6" stroke="#FFC1A6" stroke-width="0.0979167"/>
<path d="M37.568 28.5617C37.5802 29.5219 38.4116 30.3026 39.4107 30.291C40.4091 30.2793 41.2289 29.4871 41.2166 28.5264C41.2044 27.5663 40.3729 26.7855 39.3739 26.7971C38.3756 26.8088 37.5557 27.5895 37.568 28.5617Z" fill="#FFC1A6" stroke="#FFC1A6" stroke-width="0.0979167"/>
</g>
</g>
<defs>
<linearGradient id="paint0_linear_52_47" x1="21.6982" y1="9.79553" x2="21.6982" y2="11.5857" gradientUnits="userSpaceOnUse">
<stop stop-color="#F4824C"/>
<stop offset="1" stop-color="#F05C2F"/>
</linearGradient>
<clipPath id="clip0_52_47">
<rect width="47" height="34.27" fill="white" transform="translate(0 0.359985)"/>
</clipPath>
<clipPath id="clip1_52_47">
<rect width="47" height="34.27" fill="white" transform="translate(0 0.359985)"/>
</clipPath>
</defs>
</svg>
