<svg width="36" height="36" viewBox="0 0 36 36" fill="none" xmlns="http://www.w3.org/2000/svg">
<mask id="mask0_205_439" style="mask-type:alpha" maskUnits="userSpaceOnUse" x="0" y="0" width="36" height="36">
<path d="M36 0H0V36H36V0Z" fill="#D9D9D9"/>
</mask>
<g mask="url(#mask0_205_439)">
<path d="M17.5 33C25.5081 33 32 26.5081 32 18.5C32 10.4919 25.5081 4 17.5 4C9.49187 4 3 10.4919 3 18.5C3 26.5081 9.49187 33 17.5 33Z" stroke="url(#paint0_linear_205_439)" stroke-width="1.5" stroke-miterlimit="10" stroke-linecap="round" stroke-linejoin="round"/>
<path d="M17.5007 27.728C22.5968 27.728 26.728 23.5968 26.728 18.5007C26.728 13.4046 22.5968 9.27344 17.5007 9.27344C12.4046 9.27344 8.27344 13.4046 8.27344 18.5007C8.27344 23.5968 12.4046 27.728 17.5007 27.728Z" stroke="url(#paint1_linear_205_439)" stroke-width="1.5" stroke-miterlimit="10" stroke-linecap="round" stroke-linejoin="round"/>
<path d="M17.5005 22.1611C19.5227 22.1611 21.1621 20.5218 21.1621 18.4995C21.1621 16.4773 19.5227 14.8379 17.5005 14.8379C15.4782 14.8379 13.8389 16.4773 13.8389 18.4995C13.8389 20.5218 15.4782 22.1611 17.5005 22.1611Z" stroke="url(#paint2_linear_205_439)" stroke-width="1.5" stroke-miterlimit="10" stroke-linecap="round" stroke-linejoin="round"/>
<path d="M17.6465 9.71094C17.6465 11.4099 17.6465 13.1382 17.6465 14.8372" stroke="url(#paint3_linear_205_439)" stroke-width="1.5" stroke-miterlimit="10" stroke-linecap="round" stroke-linejoin="round"/>
<path d="M25.3207 13.959C23.8267 14.7792 22.3328 15.5701 20.8389 16.3903" stroke="url(#paint4_linear_205_439)" stroke-width="1.5" stroke-miterlimit="10" stroke-linecap="round" stroke-linejoin="round"/>
<path d="M25.1156 23.1871C23.651 22.1911 22.1863 21.2245 20.7217 20.2285" stroke="url(#paint5_linear_205_439)" stroke-width="1.5" stroke-miterlimit="10" stroke-linecap="round" stroke-linejoin="round"/>
<path d="M17.4121 27.2884C17.3828 25.6187 17.3535 23.9783 17.3535 22.3086" stroke="url(#paint6_linear_205_439)" stroke-width="1.5" stroke-miterlimit="10" stroke-linecap="round" stroke-linejoin="round"/>
<path d="M9.62012 22.9235C11.1433 22.074 12.6373 21.2538 14.1605 20.4043" stroke="url(#paint7_linear_205_439)" stroke-width="1.5" stroke-miterlimit="10" stroke-linecap="round" stroke-linejoin="round"/>
<path d="M9.91309 13.7559C11.3777 14.7225 12.8424 15.7185 14.307 16.6852" stroke="url(#paint8_linear_205_439)" stroke-width="1.5" stroke-miterlimit="10" stroke-linecap="round" stroke-linejoin="round"/>
<path d="M10.4111 6.02148C10.8798 6.373 11.3485 6.75381 11.8172 7.10532" stroke="url(#paint9_linear_205_439)" stroke-width="1.5" stroke-miterlimit="10" stroke-linecap="round" stroke-linejoin="round"/>
<path d="M17.8516 4.20508C18.0859 4.73235 18.3202 5.28892 18.5839 5.84548" stroke="url(#paint10_linear_205_439)" stroke-width="1.5" stroke-miterlimit="10" stroke-linecap="round" stroke-linejoin="round"/>
<path d="M24.7939 6.34375C24.7353 6.92961 24.6475 7.51547 24.5889 8.13062" stroke="url(#paint11_linear_205_439)" stroke-width="1.5" stroke-miterlimit="10" stroke-linecap="round" stroke-linejoin="round"/>
<path d="M29.9491 11.4688C29.6562 11.996 29.3925 12.5233 29.0996 13.0506" stroke="url(#paint12_linear_205_439)" stroke-width="1.5" stroke-miterlimit="10" stroke-linecap="round" stroke-linejoin="round"/>
<path d="M31.8533 18.5586C31.326 18.8515 30.7988 19.1152 30.2715 19.4081" stroke="url(#paint13_linear_205_439)" stroke-width="1.5" stroke-miterlimit="10" stroke-linecap="round" stroke-linejoin="round"/>
<path d="M29.7732 25.9102C29.1873 25.9394 28.5722 25.9687 27.9863 25.998" stroke="url(#paint14_linear_205_439)" stroke-width="1.5" stroke-miterlimit="10" stroke-linecap="round" stroke-linejoin="round"/>
<path d="M4.9043 11.3223C5.49016 11.4101 6.07601 11.498 6.66187 11.6152" stroke="url(#paint15_linear_205_439)" stroke-width="1.5" stroke-miterlimit="10" stroke-linecap="round" stroke-linejoin="round"/>
<path d="M3.14648 18.2362C3.70305 18.0312 4.25962 17.8261 4.81618 17.6211" stroke="url(#paint16_linear_205_439)" stroke-width="1.5" stroke-miterlimit="10" stroke-linecap="round" stroke-linejoin="round"/>
<path d="M5.28516 25.7049C5.60738 25.2069 5.95889 24.7089 6.28112 24.2109" stroke="url(#paint17_linear_205_439)" stroke-width="1.5" stroke-miterlimit="10" stroke-linecap="round" stroke-linejoin="round"/>
<path d="M10.4404 31.0369C10.4111 30.451 10.3818 29.8359 10.3525 29.25" stroke="url(#paint18_linear_205_439)" stroke-width="1.5" stroke-miterlimit="10" stroke-linecap="round" stroke-linejoin="round"/>
<path d="M17.1191 32.8533C16.9433 32.2674 16.7969 31.7109 16.6211 31.125" stroke="url(#paint19_linear_205_439)" stroke-width="1.5" stroke-miterlimit="10" stroke-linecap="round" stroke-linejoin="round"/>
<path d="M24.325 31.1561C23.8856 30.746 23.4462 30.3359 23.0361 29.9258" stroke="url(#paint20_linear_205_439)" stroke-width="1.5" stroke-miterlimit="10" stroke-linecap="round" stroke-linejoin="round"/>
</g>
<defs>
<linearGradient id="paint0_linear_205_439" x1="17.5" y1="4" x2="17.5" y2="33" gradientUnits="userSpaceOnUse">
<stop stop-color="#F4824C"/>
<stop offset="1" stop-color="#F05C2F"/>
</linearGradient>
<linearGradient id="paint1_linear_205_439" x1="17.5007" y1="9.27344" x2="17.5007" y2="27.728" gradientUnits="userSpaceOnUse">
<stop stop-color="#F4824C"/>
<stop offset="1" stop-color="#F05C2F"/>
</linearGradient>
<linearGradient id="paint2_linear_205_439" x1="17.5005" y1="14.8379" x2="17.5005" y2="22.1611" gradientUnits="userSpaceOnUse">
<stop stop-color="#F4824C"/>
<stop offset="1" stop-color="#F05C2F"/>
</linearGradient>
<linearGradient id="paint3_linear_205_439" x1="18.1465" y1="9.71094" x2="18.1465" y2="14.8372" gradientUnits="userSpaceOnUse">
<stop stop-color="#F4824C"/>
<stop offset="1" stop-color="#F05C2F"/>
</linearGradient>
<linearGradient id="paint4_linear_205_439" x1="23.0798" y1="13.959" x2="23.0798" y2="16.3903" gradientUnits="userSpaceOnUse">
<stop stop-color="#F4824C"/>
<stop offset="1" stop-color="#F05C2F"/>
</linearGradient>
<linearGradient id="paint5_linear_205_439" x1="22.9186" y1="20.2285" x2="22.9186" y2="23.1871" gradientUnits="userSpaceOnUse">
<stop stop-color="#F4824C"/>
<stop offset="1" stop-color="#F05C2F"/>
</linearGradient>
<linearGradient id="paint6_linear_205_439" x1="17.3828" y1="22.3086" x2="17.3828" y2="27.2884" gradientUnits="userSpaceOnUse">
<stop stop-color="#F4824C"/>
<stop offset="1" stop-color="#F05C2F"/>
</linearGradient>
<linearGradient id="paint7_linear_205_439" x1="11.8903" y1="20.4043" x2="11.8903" y2="22.9235" gradientUnits="userSpaceOnUse">
<stop stop-color="#F4824C"/>
<stop offset="1" stop-color="#F05C2F"/>
</linearGradient>
<linearGradient id="paint8_linear_205_439" x1="12.11" y1="13.7559" x2="12.11" y2="16.6852" gradientUnits="userSpaceOnUse">
<stop stop-color="#F4824C"/>
<stop offset="1" stop-color="#F05C2F"/>
</linearGradient>
<linearGradient id="paint9_linear_205_439" x1="11.1141" y1="6.02148" x2="11.1141" y2="7.10532" gradientUnits="userSpaceOnUse">
<stop stop-color="#F4824C"/>
<stop offset="1" stop-color="#F05C2F"/>
</linearGradient>
<linearGradient id="paint10_linear_205_439" x1="18.2178" y1="4.20508" x2="18.2178" y2="5.84548" gradientUnits="userSpaceOnUse">
<stop stop-color="#F4824C"/>
<stop offset="1" stop-color="#F05C2F"/>
</linearGradient>
<linearGradient id="paint11_linear_205_439" x1="24.6914" y1="6.34375" x2="24.6914" y2="8.13062" gradientUnits="userSpaceOnUse">
<stop stop-color="#F4824C"/>
<stop offset="1" stop-color="#F05C2F"/>
</linearGradient>
<linearGradient id="paint12_linear_205_439" x1="29.5244" y1="11.4688" x2="29.5244" y2="13.0506" gradientUnits="userSpaceOnUse">
<stop stop-color="#F4824C"/>
<stop offset="1" stop-color="#F05C2F"/>
</linearGradient>
<linearGradient id="paint13_linear_205_439" x1="31.0624" y1="18.5586" x2="31.0624" y2="19.4081" gradientUnits="userSpaceOnUse">
<stop stop-color="#F4824C"/>
<stop offset="1" stop-color="#F05C2F"/>
</linearGradient>
<linearGradient id="paint14_linear_205_439" x1="28.8798" y1="25.9102" x2="28.8798" y2="25.998" gradientUnits="userSpaceOnUse">
<stop stop-color="#F4824C"/>
<stop offset="1" stop-color="#F05C2F"/>
</linearGradient>
<linearGradient id="paint15_linear_205_439" x1="5.78308" y1="11.3223" x2="5.78308" y2="11.6152" gradientUnits="userSpaceOnUse">
<stop stop-color="#F4824C"/>
<stop offset="1" stop-color="#F05C2F"/>
</linearGradient>
<linearGradient id="paint16_linear_205_439" x1="3.98133" y1="17.6211" x2="3.98133" y2="18.2362" gradientUnits="userSpaceOnUse">
<stop stop-color="#F4824C"/>
<stop offset="1" stop-color="#F05C2F"/>
</linearGradient>
<linearGradient id="paint17_linear_205_439" x1="5.78314" y1="24.2109" x2="5.78314" y2="25.7049" gradientUnits="userSpaceOnUse">
<stop stop-color="#F4824C"/>
<stop offset="1" stop-color="#F05C2F"/>
</linearGradient>
<linearGradient id="paint18_linear_205_439" x1="10.3964" y1="29.25" x2="10.3964" y2="31.0369" gradientUnits="userSpaceOnUse">
<stop stop-color="#F4824C"/>
<stop offset="1" stop-color="#F05C2F"/>
</linearGradient>
<linearGradient id="paint19_linear_205_439" x1="16.8701" y1="31.125" x2="16.8701" y2="32.8533" gradientUnits="userSpaceOnUse">
<stop stop-color="#F4824C"/>
<stop offset="1" stop-color="#F05C2F"/>
</linearGradient>
<linearGradient id="paint20_linear_205_439" x1="23.6805" y1="29.9258" x2="23.6805" y2="31.1561" gradientUnits="userSpaceOnUse">
<stop stop-color="#F4824C"/>
<stop offset="1" stop-color="#F05C2F"/>
</linearGradient>
</defs>
</svg>
