<svg width="35" height="45" viewBox="0 0 35 45" fill="none" xmlns="http://www.w3.org/2000/svg">
<mask id="mask0_2203_1111" style="mask-type:luminance" maskUnits="userSpaceOnUse" x="0" y="0" width="35" height="45">
<path d="M34.8485 0H0V44.8052H34.8485V0Z" fill="white"/>
</mask>
<g mask="url(#mask0_2203_1111)">
<path d="M34.7254 26.9662L34.0321 26.959L29.5181 12.5071L29.0847 11.5241C28.6658 10.175 27.7341 9.04125 26.4846 8.35959C22.3822 6.13514 12.9713 1.10493 9.8079 0.207964C7.09949 -0.559835 6.33388 0.954244 6.1172 2.07365C6.07389 2.14541 6.03773 2.22434 6.01608 2.30328L4.78829 5.1951L4.71604 5.3386C4.11659 6.48673 3.53157 7.64202 2.94655 8.79015C2.81655 9.04125 2.70099 9.29963 2.56378 9.57947C2.74431 9.68707 2.90318 9.78035 3.08377 9.89516C2.82377 11.7752 2.5565 13.6696 2.2965 15.5569C2.18094 16.4179 2.07982 17.2861 1.95704 18.1473C1.92095 18.3769 1.95704 18.506 2.23875 18.4989C2.16651 19.1447 2.09432 19.7618 2.02207 20.3789C1.90651 21.3189 1.79095 22.259 1.67539 23.1989C1.58871 23.8807 1.51652 24.5623 1.40818 25.2369C1.38646 25.3589 1.24203 25.4808 1.13368 25.567C0.866472 25.7679 0.570322 25.9472 0.29589 26.141C-0.05079 26.385 -0.0796642 26.5141 0.122581 26.873C0.613696 27.7556 1.09037 28.6453 1.61758 29.5065C1.82704 29.8437 1.80539 30.1594 1.75486 30.511C1.7187 30.7406 1.68983 30.9631 1.65374 31.1927C1.61036 31.4726 1.53096 31.7094 1.2854 31.9246C0.779786 32.3695 0.635351 32.9866 0.859253 33.5966C1.0615 34.1419 1.37924 34.6442 1.69705 35.1322C2.54928 36.4525 3.42323 37.7657 4.31162 39.0645C5.4455 40.7364 6.9189 41.9993 8.91952 42.5016C10.9635 43.0111 13.1519 42.3222 14.2786 40.3274C14.7336 39.5165 15.2898 38.7703 15.7953 37.9881C16.4598 36.9477 17.1171 35.9 17.7815 34.8523C18.2943 34.0486 18.8143 33.2522 19.3199 32.4485C19.6594 31.9103 20.0061 31.3793 20.3166 30.8268C20.3816 30.712 20.3527 30.4895 20.2733 30.3818C20.1938 30.2814 19.9843 30.2025 19.8543 30.224C19.2983 30.3029 18.9805 30.7263 18.6554 31.1209C18.6338 31.1425 18.6193 31.1784 18.6121 31.2071C18.4532 31.5946 18.1715 31.6519 17.7598 31.6448C17.3048 31.6376 16.8209 31.7667 16.402 31.9462C15.4125 32.3767 14.4375 32.8503 13.4842 33.3526C13.1664 33.5176 12.8558 33.5105 12.538 33.4961C10.4724 33.41 8.39953 33.3095 6.33388 33.2163C5.95111 33.2019 5.56828 33.166 5.1855 33.1804C4.92551 33.1947 4.78829 33.0584 4.6438 32.8933C4.32605 32.5202 4.00103 32.1543 3.69044 31.7811C3.63269 31.7094 3.61104 31.5802 3.63269 31.4941C4.00103 30.3029 4.39102 29.1117 4.76664 27.9278C5.21438 26.507 5.65496 25.0862 6.10277 23.6654C6.39891 22.7325 6.695 21.8069 6.99115 20.8812C7.37392 19.6613 7.74948 18.4343 8.12503 17.2072C8.39231 16.339 8.65952 15.4707 8.9123 14.5953C9.09289 13.9853 9.2301 13.361 9.41791 12.7511C9.59122 12.1771 9.81512 11.6174 10.0029 11.0505C10.169 10.5482 10.3135 10.0387 10.5013 9.45028C10.5879 9.02694 10.7685 8.64659 10.9346 8.25193L12.5813 9.2135L22.3245 15.1765L22.8806 16.5112L28.7886 34.7806C28.7886 34.7806 29.3447 36.5171 30.7747 36.8328C31.4248 36.9763 33.8371 37.3064 34.8555 37.4356C34.8555 33.9769 34.8265 31.6017 34.7254 26.9662ZM4.54274 33.9984C4.57161 33.9984 4.60048 33.9913 4.62936 33.9913C6.1533 34.0558 7.67001 34.1204 9.19401 34.1921C10.2774 34.2424 11.3607 34.2998 12.4369 34.3429C13.188 34.3787 13.9464 34.4792 14.6181 33.984C14.9214 33.7616 15.2609 33.5751 15.5931 33.3885C15.9903 33.166 16.2937 32.7714 16.8209 32.7857C17.2037 32.7929 17.5865 32.7283 17.9982 32.6996C17.9476 32.8216 17.9332 32.8862 17.8971 32.9364C17.4998 33.5249 17.1098 34.1204 16.7053 34.7016C16.3081 35.2685 15.752 35.5555 15.0442 35.4766C13.6358 35.3187 12.2347 35.1609 10.8335 34.9743C9.30957 34.7662 7.79285 34.5223 6.27607 34.2998C5.69834 34.2137 5.11326 34.1348 4.52824 34.0558C4.53552 34.0343 4.53552 34.0199 4.54274 33.9984ZM2.05095 28.4947C1.80539 28.2076 1.6393 27.9062 1.46593 27.612C1.29262 27.3035 1.12647 26.9949 0.953157 26.6792C1.21315 26.4998 1.45149 26.3491 1.68261 26.1912C1.92095 26.0262 2.16651 25.8683 2.49153 25.6459C2.33988 26.6576 2.19538 27.5762 2.05095 28.4947ZM4.71604 11.0864C4.52102 12.3134 4.32605 13.5404 4.13825 14.7675C3.92878 16.1452 3.71932 17.523 3.50991 18.9079C3.27158 20.4722 3.04767 22.0365 2.80934 23.6008C2.72987 24.1246 2.73709 24.6987 2.08704 24.9211C2.07982 24.9211 2.06538 24.9283 1.9932 24.9498C2.25319 22.8258 2.50597 20.7233 2.76596 18.5993C3.10542 18.6783 3.16323 18.4773 3.18489 18.2047C3.21377 17.8817 3.27158 17.5588 3.31489 17.2359C3.50991 15.9945 3.70488 14.7603 3.89269 13.5189C4.04434 12.5286 4.18884 11.5385 4.34049 10.5338C4.78829 10.5482 4.75936 10.8137 4.71604 11.0864ZM10.1762 5.63998C9.39619 5.63998 8.76064 5.00853 8.76064 4.23353C8.76064 3.45859 9.39619 2.8271 10.1762 2.8271C10.9563 2.8271 11.5918 3.45859 11.5918 4.23353C11.5846 5.00853 10.9563 5.63998 10.1762 5.63998ZM24.9751 13.0597C24.094 13.3108 23.1839 12.8013 22.9312 11.9331C22.6784 11.0577 23.1839 10.1535 24.0651 9.90238C24.9462 9.65122 25.8562 10.1607 26.109 11.0289C26.3618 11.8972 25.8562 12.8086 24.9751 13.0597Z" fill="#FA7436"/>
<path d="M10.1185 29.4706C10.0608 29.076 9.97407 28.7244 9.61295 28.466C9.19408 28.1718 8.8329 27.7987 8.42126 27.4399C7.60512 27.9853 6.78176 28.5091 5.9945 29.0903C5.81391 29.2267 5.76338 29.5639 5.70556 29.8222C5.56113 30.4824 5.46001 31.1497 5.31557 31.8171C5.26504 32.0754 5.33001 32.2118 5.59729 32.2476C6.7962 32.4342 7.97345 32.7714 9.20852 32.7571C9.69963 32.7499 10.1907 32.793 10.7108 32.8145C10.588 32.0969 10.4725 31.4296 10.3496 30.7551C10.2774 30.3245 10.1835 29.9012 10.1185 29.4706Z" fill="#FA7436"/>
<path d="M14.539 28.064C14.2573 28.3797 13.9901 28.7026 13.694 29.0112C13.6073 29.1045 13.4556 29.1619 13.3256 29.1834C12.8634 29.2623 12.3939 29.3054 11.9317 29.3915C11.8161 29.4131 11.7222 29.5637 11.6139 29.6498C11.6067 29.6571 11.6067 29.6714 11.5995 29.6785C11.0072 30.6903 11.3395 31.6375 11.8161 32.6135C12.0834 32.4268 12.365 32.269 12.5961 32.0609C12.9717 31.7308 13.434 31.6375 13.8962 31.5084C14.3801 31.3648 14.8279 31.1137 15.2902 30.9128C15.189 30.3674 15.0951 29.8866 15.0012 29.4059C14.9145 28.9394 14.8207 28.473 14.7196 27.9707C14.6618 28.0066 14.5824 28.021 14.539 28.064Z" fill="#FA7436"/>
<path d="M17.9915 39.5813C17.9121 39.3516 17.7965 39.2225 17.5509 39.1651C16.2726 38.8709 16.6048 38.7776 15.962 39.818C15.702 40.2342 15.442 40.6504 15.1964 41.0738C15.1387 41.1743 15.0881 41.3249 15.1242 41.4254C15.2325 41.8129 15.377 42.186 15.5142 42.5807C15.9909 42.5592 16.4387 42.5448 16.8865 42.5018C17.0237 42.4874 17.1826 42.4085 17.2837 42.3152C17.6232 42.0067 17.941 41.6765 18.2732 41.368C18.4826 41.1743 18.5982 41.002 18.4393 40.7006C18.2515 40.3491 18.1215 39.9616 17.9915 39.5813Z" fill="#FA7436"/>
<path d="M16.2001 31.2C16.9512 31.0924 17.6446 30.8986 18.1285 30.2529C18.2802 30.0591 18.114 29.9443 18.0274 29.8294C17.7746 29.5065 17.5001 29.1908 17.2257 28.8607C16.9729 28.9325 16.7345 28.9684 16.5179 29.0617C16.3806 29.119 16.2579 29.2411 16.1567 29.363C15.6873 29.9802 15.9906 30.5829 16.2001 31.2Z" fill="#FA7436"/>
<path d="M16.4383 27.6624C16.9077 27.7844 17.3772 27.8848 17.8611 27.9996C18.0706 26.9592 17.5577 26.1125 17.1966 25.1652C16.8138 25.6102 16.3877 25.9761 16.2505 26.5215C16.171 26.83 16.1999 27.1673 16.2072 27.4902C16.2072 27.5476 16.3444 27.6337 16.4383 27.6624Z" fill="#FA7436"/>
<path d="M18.6628 36.4384C18.3956 36.4886 18.1211 36.5173 17.7744 36.5675C17.89 36.6967 17.9767 36.7613 18.0345 36.8473C18.1211 36.9837 18.2367 37.12 18.2512 37.2708C18.3233 37.8878 18.5761 38.0672 19.1829 37.895C19.2839 37.8664 19.385 37.8233 19.4573 37.7945C19.3345 37.4286 19.2189 37.0698 19.0962 36.7182C19.0239 36.5173 18.9084 36.3953 18.6628 36.4384Z" fill="#FA7436"/>
<path d="M12.2062 43.2981C11.8956 43.3197 11.5779 43.3699 11.1589 43.4273C11.3034 43.5851 11.3901 43.664 11.455 43.7573C11.5273 43.8721 11.6212 43.9942 11.6356 44.1161C11.6934 44.7189 12.0039 44.9341 12.6034 44.7476C12.6973 44.7189 12.784 44.6902 12.8707 44.6615C12.7117 44.2525 12.5673 43.8507 12.4084 43.4632C12.3723 43.3842 12.2712 43.2909 12.2062 43.2981Z" fill="#FA7436"/>
<path d="M13.8675 44.0946C14.0842 44.1448 14.3298 44.2094 14.5825 44.2668C14.6186 44.2453 14.6548 44.2166 14.6909 44.195C14.5825 43.7932 14.467 43.3914 14.3442 42.9465C13.9687 43.2837 13.7375 43.5923 13.8675 44.0946Z" fill="#FA7436"/>
</g>
</svg>
