<svg width="52" height="52" viewBox="0 0 52 52" fill="none" xmlns="http://www.w3.org/2000/svg">
<mask id="mask0_2203_1131" style="mask-type:alpha" maskUnits="userSpaceOnUse" x="0" y="0" width="52" height="52">
<path d="M51.3052 0H0V51.3052H51.3052V0Z" fill="#D9D9D9"/>
</mask>
<g mask="url(#mask0_2203_1131)">
<path d="M45.4454 10.9422C45.4454 10.5151 45.2794 10.3403 44.8206 10.3791C44.6351 10.3986 44.3715 10.2432 44.2446 10.0782C43.073 8.52504 41.9014 6.96209 40.7689 5.37008C40.5151 5.0206 40.2222 5.15651 39.939 5.15651C39.8219 5.15651 39.6559 5.37978 39.5973 5.5351C39.3923 6.06902 39.1775 6.61264 39.0408 7.17565C38.9529 7.55428 38.8651 7.73872 38.4453 7.51542C38.3672 7.47662 38.1914 7.5834 38.0645 7.65137C37.8106 7.77752 37.5665 8.02026 37.3127 8.03963C35.6139 8.16584 33.9054 8.25325 32.1969 8.3406C32.0602 8.35028 31.8942 8.33085 31.7771 8.26293C31.2693 7.96196 31.0155 8.02994 30.7519 8.58327C30.4297 9.29192 30.1173 10.0103 29.7853 10.7287C29.6292 11.0684 29.4632 11.3984 29.7463 11.7673C29.7952 11.8353 29.7463 12.0101 29.6975 12.1071C29.3363 12.7478 28.8774 15.8639 28.5552 16.5338C27.8913 17.8928 26.4366 24.0668 25.7923 25.4356C25.5091 26.0472 25.2455 26.6684 24.8745 27.2315C24.6793 27.5324 24.6109 27.7751 24.689 28.1149C24.8843 28.8915 25.021 29.6875 25.2162 30.4641C25.4701 31.4057 25.7141 32.3571 26.0558 33.2696C26.3585 34.1045 26.7783 34.9101 27.1493 35.7159C27.4032 36.2595 27.3055 36.7449 26.8857 36.7837C26.2121 36.8517 25.5384 36.8613 24.8355 36.8905C24.7964 36.4828 24.8745 36.0653 24.6988 35.8323C24.5426 35.6188 24.1228 35.5897 23.7713 35.4538C23.576 31.2213 22.6778 27.0179 21.721 22.834C22.7461 22.4359 22.7657 22.4068 22.4826 21.737C21.6234 21.6302 20.7545 21.5331 19.8953 21.3972C17.4448 21.0284 14.9747 20.9798 12.5047 20.9895C11.9091 20.9895 11.3233 21.1351 10.9328 21.669C10.8254 21.8147 10.6399 21.8923 10.4739 22.0088C10.3763 21.8147 10.3275 21.6399 10.2299 21.504C10.0248 21.2128 9.71239 21.1739 9.4 21.2807C9.05825 21.4069 9.05825 21.6982 9.08755 21.9991C9.11686 22.3389 9.33164 22.3486 9.60503 22.3389C9.69289 22.3389 9.84912 22.4748 9.87836 22.5816C9.94672 22.8048 9.98578 23.0572 9.97603 23.2902C9.90767 24.659 9.80025 26.0374 9.74169 27.4062C9.71239 28.076 9.73195 28.7556 9.73195 29.4254C9.24378 29.4837 8.86303 29.5516 8.47247 29.5807C7.43758 29.6778 6.66633 30.1438 6.16839 31.066C5.41663 32.4444 5.19208 33.9491 5.10421 35.4829C5.08469 35.7838 5.0554 36.0362 4.75274 36.2207C4.61606 36.2983 4.50866 36.5313 4.50866 36.6963C4.47937 37.405 4.48914 38.1234 4.4989 38.832C4.50866 39.3077 4.73321 39.6475 5.22137 39.8027C6.66633 40.2687 8.10147 40.7444 9.53667 41.2103C9.95647 41.3462 10.3861 41.4433 10.8059 41.5598C11.2648 39.5018 12.5925 37.4438 14.8283 37.3273C15.912 37.2691 16.9371 37.4826 17.8158 38.0942C18.8897 38.8417 19.4658 39.9387 19.6708 41.2103C20.6178 41.2103 21.516 41.2103 22.4338 41.2103C22.4533 41.0259 22.4728 40.8609 22.4923 40.657C22.7657 40.657 23.0195 40.657 23.2734 40.657C23.5369 40.657 23.9079 40.7444 24.0251 40.6085C24.3376 40.2493 24.7086 40.3852 25.0503 40.3755C25.636 40.3561 26.2218 40.3658 26.8076 40.3658C27.1395 40.3658 27.4715 40.3658 27.7937 40.3658C27.8718 41.3074 28.1549 41.6083 28.9067 41.6763C29.0044 41.1036 29.0532 40.5308 29.2191 39.9872C29.4632 39.1912 29.7756 38.8126 30.2735 38.6282C29.3754 39.5892 29.1117 40.6765 29.3363 41.8122C29.5608 42.9771 30.254 43.8993 31.3572 44.3944C33.4465 45.3361 35.5066 44.3362 36.2876 42.5403C36.9027 41.1424 36.6391 39.793 35.6237 38.6767C34.6377 37.5894 33.3489 37.24 31.8747 37.5312C32.07 37.4244 32.2554 37.3662 32.4312 37.3176C32.6167 37.2788 32.8217 37.2788 33.0072 37.2205C33.1439 37.1817 33.3587 37.075 33.3587 36.9973C33.3587 36.8517 33.261 36.6478 33.1439 36.5701C32.9193 36.4245 32.646 36.3663 32.3921 36.2692C32.4507 35.5606 32.2945 35.3081 31.6306 35.2888C30.9862 35.2693 30.6836 34.8616 30.3907 34.3859C30.586 34.4054 30.7519 34.4733 30.8788 34.5801C31.2205 34.8519 31.6599 34.9101 31.8844 34.6771C32.1871 34.3568 32.1969 33.7549 31.9235 33.4249C31.6892 33.1531 31.2303 33.0948 30.9374 33.4443C30.586 33.8715 30.2443 33.6385 29.883 33.5996C29.8928 33.5317 29.883 33.4928 29.8928 33.4637C30.1271 32.7939 29.9416 32.5124 29.2386 32.5124C29.1605 32.5124 29.0433 32.5027 29.0238 32.4542C28.604 31.7649 27.9402 31.1631 28.1452 30.2505C28.5064 28.6391 28.8579 27.0179 29.3167 25.4259C29.5218 24.7172 35.0379 11.1849 35.6139 10.6121C36.5024 9.73847 37.5568 9.02013 38.5331 8.23382C38.5624 8.27262 38.6014 8.31148 38.6307 8.3406C38.5038 8.86481 38.3672 9.38902 38.2402 9.91323C38.0255 10.8646 38.7577 11.7285 39.734 11.6994C41.4035 11.6314 43.0827 11.5635 44.7522 11.4955C44.9963 11.4859 45.2404 11.4276 45.504 11.3984C45.4942 11.2238 45.4454 11.0878 45.4454 10.9422ZM14.1741 23.8241C14.1448 25.4356 14.1156 27.0567 14.0863 28.6682C14.0667 29.3962 14.0082 30.1243 14.0082 30.8524C14.0082 31.299 13.8129 31.3766 13.52 31.3184C13.2857 30.6194 13.0709 29.969 12.8464 29.3283C12.6804 28.8429 12.4949 28.3673 12.3191 27.8819C12.0849 27.2121 11.3721 27.0374 10.9523 27.6004C10.8254 27.7751 10.8938 28.1537 10.9621 28.4158C11.0695 28.8138 11.2842 29.1827 11.4112 29.5807C11.5381 29.9787 11.7431 30.3573 11.5186 30.8233C11.421 31.0174 11.5869 31.3475 11.665 31.6096C11.7334 31.8523 11.831 32.0853 11.9286 32.3765C11.5674 32.3085 11.2648 32.2503 10.9719 32.1823C10.6887 32.1144 10.5716 31.9591 10.5813 31.6387C10.6594 29.008 10.718 26.3772 10.7668 23.7368C10.7863 22.6204 11.7236 21.7273 12.7585 21.7273C13.2271 21.7273 13.686 21.6496 14.1839 21.6011C14.1741 22.3874 14.1839 23.1058 14.1741 23.8241ZM22.7461 33.9879C22.7071 33.9977 22.6583 34.0074 22.6192 34.0268C22.5119 33.7356 22.3654 33.4443 22.297 33.1434C22.0823 32.2406 21.9065 31.3281 21.7015 30.4155C21.6722 30.27 21.5648 30.1438 21.5062 30.0175C21.1743 30.1243 20.901 30.2117 20.5006 30.3379C20.5201 29.969 20.4323 29.5904 20.5788 29.3574C20.735 29.1148 21.1157 29.008 21.4086 28.8235C21.1255 28.4158 20.8326 28.707 20.6178 28.7847C19.8758 29.0371 19.1533 29.3477 18.4309 29.6681C18.3234 29.7166 18.2551 29.8331 18.1868 29.9399C18.1575 29.9787 18.138 30.0175 18.1087 30.0467C18.1477 30.0467 18.1868 30.0467 18.2258 30.0563C18.2649 30.0563 18.304 30.0661 18.343 30.0661C18.4211 30.0661 18.4992 30.0661 18.5578 30.0467C19.0166 29.8622 19.456 29.9981 19.9149 30.5418C19.5634 30.7456 19.5829 31.0271 19.8074 31.2698C20.4616 31.9687 20.7545 32.8425 21.0376 33.7161C21.1157 33.9394 21.0083 34.2209 20.9888 34.4733C20.9791 34.6966 20.9693 34.9199 20.9693 35.1431C20.9693 35.347 20.9693 35.5509 20.9693 35.7935C20.3444 35.7935 19.7489 35.7935 19.1143 35.7935C18.8214 35.0849 18.4406 34.3666 18.2258 33.6094C18.0599 32.9977 17.7377 32.7163 17.1519 32.6289C16.9957 32.6095 16.8493 32.5318 16.6735 32.4833C16.6833 32.4347 16.6833 32.3862 16.693 32.3474C16.8102 31.3183 16.6833 31.1922 15.6484 31.2213C15.4434 31.231 15.2286 31.2213 14.9747 31.2213C14.9649 31.0951 14.9356 30.9689 14.9356 30.8524C14.9747 27.9401 15.0236 25.0375 15.0431 22.1253C15.0431 21.6788 15.2188 21.6302 15.5996 21.669C16.9566 21.8049 18.3137 21.9117 19.6708 22.0282C20.1882 22.067 20.9498 22.7757 21.0962 23.4358C21.4965 25.2414 21.9358 27.0374 22.2287 28.8623C22.4923 30.4835 22.59 32.1338 22.756 33.7744C22.7852 33.852 22.756 33.92 22.7461 33.9879ZM19.2314 29.8137C19.5927 29.6583 19.8758 29.5419 20.159 29.4157C20.2859 29.9302 20.0808 30.0272 19.2314 29.8137ZM32.9877 39.1038C34.1397 39.1233 35.0282 40.0357 35.0184 41.1715C35.0087 42.3073 34.0811 43.2101 32.9389 43.2004C31.7868 43.1907 30.8886 42.2685 30.8983 41.123C30.8983 39.9969 31.8454 39.0844 32.9877 39.1038ZM28.2624 22.4166C27.7351 23.7853 27.2176 25.1638 26.6807 26.5325C26.4756 27.0665 26.2511 27.6004 26.0363 28.1343C25.6458 28.0081 25.4896 27.6683 25.6653 27.3091C26.4952 25.6201 31.0351 13.0682 31.1327 12.8546C31.2889 12.9905 31.6501 13.1458 31.9625 13.4662C31.6306 13.7283 28.4674 21.8826 28.2624 22.4166ZM35.2429 9.23369C34.2764 9.02982 33.8761 9.71904 33.4759 10.3986C33.1341 10.9713 32.7533 11.515 32.314 12.1945C32.0407 11.3305 31.7966 10.6121 31.5915 9.8938C31.3963 9.20457 31.7282 8.79683 32.441 8.76771C33.7687 8.71916 35.1063 8.66093 36.4536 8.66093C36.0728 8.93272 35.8092 9.34047 35.2429 9.23369Z" fill="#FA7436"/>
<path d="M17.8061 38.4438C16.4783 37.4051 14.3206 37.2886 12.7683 38.6186C11.4308 39.7738 11.0304 41.7444 11.8311 43.3364C12.6414 44.9576 14.4964 46.006 16.7126 45.3265C17.6889 45.0256 18.7824 43.9092 19.046 42.987L19.1338 42.7637C19.7294 41.327 19.212 39.5505 17.8061 38.4438ZM17.6694 41.8998C17.5327 42.8122 16.4685 43.7927 15.4825 43.8606C14.6428 43.9189 13.4908 43.1326 13.2272 42.3269C12.8855 41.2688 13.4712 39.8999 14.4476 39.5311C15.6387 39.0748 16.8786 39.5019 17.3668 40.5892C17.3765 40.5892 17.7866 41.1522 17.6694 41.8998Z" fill="#FA7436"/>
<path d="M32.9681 42.0065C33.427 41.9968 33.8273 41.5891 33.8175 41.1328C33.8077 40.6766 33.3879 40.2786 32.9291 40.298C32.4507 40.3174 32.0699 40.7154 32.0895 41.1716C32.109 41.6279 32.519 42.0259 32.9681 42.0065Z" fill="#FA7436"/>
<path d="M15.4142 40.6765C14.8967 40.6765 14.4281 41.1133 14.4281 41.589C14.4281 42.055 14.8772 42.5015 15.3654 42.5209C15.873 42.5404 16.3417 42.0938 16.3319 41.5793C16.3319 41.0842 15.9121 40.6765 15.4142 40.6765Z" fill="#FA7436"/>
<path d="M42.9778 12.185V44.2507" stroke="#FA7436"/>
<path d="M46.4207 42.4659L43.4294 45.508L40.3873 42.5167L40.9183 41.9767L43.4204 44.437L45.8807 41.9349L46.4207 42.4659Z" fill="#FA7436"/>
<path d="M40.1508 14.5604L43.1676 11.5436L46.1844 14.5604L45.6489 15.0959L43.1676 12.6146L40.6863 15.0959L40.1508 14.5604Z" fill="#FA7436"/>
</g>
</svg>
