<svg width="54" height="54" viewBox="0 0 54 54" fill="none" xmlns="http://www.w3.org/2000/svg">
<mask id="mask0_2191_598" style="mask-type:alpha" maskUnits="userSpaceOnUse" x="0" y="0" width="54" height="54">
<path d="M53.7662 0H0V53.7662H53.7662V0Z" fill="#D9D9D9"/>
</mask>
<g mask="url(#mask0_2191_598)">
<path d="M42.0883 7.45057C41.2952 7.0367 40.8543 7.14679 40.2141 7.7858C38.7129 9.28399 37.2154 10.785 35.7163 12.2853C32.5203 15.4832 29.3221 18.679 26.1318 21.8818C25.4759 22.5401 25.4387 23.1005 26.0304 23.7052C27.3508 25.054 28.6876 26.387 30.0359 27.7079C30.2552 27.9224 30.5696 28.0396 30.9348 28.2583C31.3149 27.9903 31.7057 27.7901 32.003 27.4942C36.6751 22.8396 41.3359 18.1729 45.9967 13.5069C46.604 12.8986 46.7069 12.4554 46.3111 11.6877C45.3558 9.83295 43.936 8.4148 42.0883 7.45057Z" fill="#FA7436"/>
<path d="M11.0758 36.9995C7.94337 36.9959 5.37754 39.5576 5.37683 42.6898C5.37612 45.8141 7.93981 48.3794 11.0743 48.3901C14.196 48.4008 16.7497 45.8419 16.7633 42.6905C16.7769 39.5612 14.2203 37.0031 11.0758 36.9995ZM11.0722 44.9449C9.79824 44.9356 8.81862 43.9449 8.82003 42.6676C8.82218 41.4118 9.85321 40.4068 11.1115 40.434C12.3812 40.4619 13.3522 41.4739 13.3301 42.747C13.3086 43.9749 12.3026 44.9542 11.0722 44.9449Z" fill="#FA7436"/>
<path d="M16.5669 33.4031C18.1359 34.3445 19.4249 35.6553 20.3495 37.2571C23.2412 34.3602 26.0835 31.5132 28.8772 28.7142C27.5961 27.4383 26.2878 26.1353 25.066 24.9187C22.2816 27.6977 19.4385 30.5361 16.5669 33.4031Z" fill="url(#paint0_linear_2191_598)"/>
<path d="M15.2124 34.289C14.9974 34.1975 14.608 34.2204 14.4436 34.3598C13.9199 34.8036 13.4633 35.3276 12.9181 35.8851C15.4282 36.7028 17.0209 38.3075 17.8668 40.792C18.3484 40.2888 18.8143 39.8914 19.1573 39.4075C19.338 39.1523 19.4545 38.6827 19.3444 38.4161C18.5442 36.4783 17.1373 35.1067 15.2124 34.289Z" fill="#FA7436"/>
<path d="M48.0509 9.06882C47.2392 7.57855 46.0781 6.4206 44.564 5.64578C43.6423 5.17404 43.3336 5.28983 42.7306 6.25977C44.7834 7.37054 46.3618 8.97594 47.5236 11.0488C48.5275 10.2682 48.5946 10.0674 48.0509 9.06882Z" fill="#FA7436"/>
<path d="M26.0686 16.9059C26.4422 16.8988 26.8166 16.9488 27.296 16.9788C26.6909 17.9359 26.7445 18.1711 27.3347 18.4898C28.0242 17.8401 28.6743 17.2269 29.3246 16.6143C28.7829 15.9596 28.7644 15.9567 27.719 16.4842C27.6819 16.0804 27.6769 15.773 27.6197 15.475C27.5354 15.0318 27.5133 14.535 27.2889 14.1698C26.8788 13.5015 25.9371 13.3135 25.2412 13.6423C24.4966 13.994 24.0836 14.8495 24.2894 15.6143C24.5002 16.3963 25.2432 16.9217 26.0686 16.9059ZM25.0946 15.1704C25.1346 14.6294 25.4576 14.3506 25.9921 14.2927C26.5051 14.3885 26.8602 14.6701 26.8445 15.2112C26.8281 15.748 26.4851 16.0482 25.9435 16.0625C25.4512 16.0761 25.0582 15.6622 25.0946 15.1704Z" fill="#FA7436"/>
<path d="M34.3758 8.78766C34.6694 8.76051 34.9738 8.85198 35.4154 8.90635C34.8159 9.60108 34.7659 10.1136 35.5154 10.496C36.1356 9.84343 36.7565 9.1901 37.3903 8.52253C36.9394 7.85489 36.813 7.83062 35.8269 8.43314C35.7848 8.01504 35.7105 7.70763 35.7319 7.40748C35.8127 6.28597 35.1181 5.4211 34.085 5.39608C33.1147 5.37321 32.2822 6.22022 32.3294 7.18227C32.3802 8.20941 33.2711 8.89063 34.3758 8.78766ZM34.0092 6.22379C34.4908 6.20378 34.9088 6.59905 34.921 7.0865C34.9331 7.57402 34.5358 7.99212 34.0471 7.97573C33.5298 7.95852 33.229 7.67195 33.1818 7.15801C33.1354 6.66767 33.5255 6.24381 34.0092 6.22379Z" fill="#FA7436"/>
</g>
<defs>
<linearGradient id="paint0_linear_2191_598" x1="22.4021" y1="27.3305" x2="25.5384" y2="30.4669" gradientUnits="userSpaceOnUse">
<stop offset="0.128125" stop-color="#A1A5AD"/>
<stop offset="0.33125" stop-color="#E5E5E7"/>
<stop offset="0.544792" stop-color="#FCF7F4"/>
<stop offset="0.742708" stop-color="#FEF9F6"/>
<stop offset="0.935417" stop-color="#D6D7D9"/>
</linearGradient>
</defs>
</svg>
