<svg width="47" height="45" viewBox="0 0 47 45" fill="none" xmlns="http://www.w3.org/2000/svg">
<path d="M33.2438 0.613625C32.7026 0.124978 31.9828 0.0406467 31.6368 0.424016L20.3647 12.912L22.3251 14.6811L33.5963 2.19315C33.9432 1.80924 33.7852 1.10119 33.2438 0.613625Z" fill="white"/>
<path d="M33.3796 0.477869C32.8261 0.0285882 31.9994 -0.262865 31.4472 0.348394C31.1865 0.636779 30.9266 0.924982 30.6664 1.21373C29.5172 2.48663 28.3685 3.75917 27.2197 5.03153C24.9511 7.54537 22.6824 10.0588 20.4136 12.5721C20.3524 12.6408 20.2909 12.7083 20.2295 12.7758C20.1623 12.8508 20.1489 12.9748 20.2295 13.0473C20.8826 13.6372 21.5358 14.2266 22.1893 14.8167C22.2637 14.8839 22.3881 14.8973 22.4609 14.8167C24.3678 12.7038 26.2747 10.5912 28.1816 8.47788C29.4762 7.04354 30.7709 5.60902 32.0662 4.1745C32.6562 3.52044 33.3236 2.89059 33.8446 2.17676C34.2415 1.63412 33.7637 0.86196 33.3796 0.477869C33.2048 0.303068 32.9343 0.573935 33.1085 0.748916C33.443 1.08389 33.8119 1.66897 33.4195 2.10326C33.3265 2.20745 33.2326 2.31056 33.1392 2.4144C32.7526 2.84291 32.3665 3.27124 31.9794 3.69976C30.7083 5.10791 29.4375 6.51571 28.167 7.92404C26.1768 10.1282 24.187 12.3327 22.1974 14.5372C22.1943 14.5405 22.192 14.5435 22.1893 14.5466C22.2797 14.5466 22.3706 14.5466 22.4609 14.5466C21.8072 13.9561 21.154 13.3662 20.5001 12.7762C20.5001 12.8674 20.5001 12.9577 20.5001 13.0476C22.4076 10.9347 24.3149 8.82206 26.2214 6.70929C27.5165 5.27477 28.8113 3.83989 30.106 2.40591C30.5212 1.9458 30.9362 1.48586 31.3508 1.02611C31.6253 0.72183 31.8322 0.385954 32.2885 0.377106C32.5906 0.370786 32.8871 0.56924 33.1085 0.748916C33.2985 0.903311 33.5717 0.633528 33.3796 0.477869Z" fill="#FA7436"/>
<path d="M22.3248 14.6811C21.9788 15.065 21.2589 14.9799 20.7179 14.4918C20.1768 14.0037 20.0183 13.2955 20.365 12.9119C20.7115 12.528 21.4315 12.6129 21.9731 13.1005C22.5139 13.5897 22.6717 14.2975 22.3248 14.6811Z" fill="white"/>
<path d="M22.1894 14.5462C21.4638 15.2497 19.8706 13.8401 20.5001 13.0474C21.1236 12.2635 22.82 13.752 22.1894 14.5462C22.0377 14.737 22.307 15.0103 22.4605 14.8169C23.4015 13.6319 21.3163 11.7241 20.2296 12.776C19.7104 13.2787 20.1019 14.1139 20.4952 14.5445C20.9739 15.0682 21.8958 15.364 22.4605 14.8169C22.638 14.644 22.3669 14.3737 22.1894 14.5462Z" fill="#FA7436"/>
<path d="M21.5487 13.5708C21.3347 13.3773 21.0503 13.3444 20.9134 13.4955L8.30212 27.468L9.07627 28.1674L21.6879 14.1951C21.825 14.0436 21.7627 13.7635 21.5487 13.5708Z" fill="white"/>
<path d="M21.6452 13.4054C20.8382 12.8285 20.1605 14.0443 19.6879 14.568C18.5272 15.8528 17.367 17.1391 16.2069 18.4246C13.752 21.1447 11.2964 23.8651 8.84147 26.5853C8.61629 26.8343 8.39111 27.0837 8.16647 27.3327C8.09929 27.4071 8.08593 27.5314 8.16647 27.6038C8.42451 27.8367 8.68292 28.0701 8.94115 28.3026C9.01591 28.3702 9.13961 28.3828 9.2122 28.3026C13.309 23.7636 17.4067 19.2244 21.504 14.685C21.867 14.2818 22.1469 13.9601 21.6846 13.435C21.5214 13.2492 21.2509 13.5215 21.4137 13.7066C21.7364 14.0723 21.3354 14.3 21.105 14.555C20.7062 14.9972 20.3073 15.4389 19.9081 15.8813C18.6531 17.2718 17.3978 18.6622 16.1432 20.0529C13.8491 22.5942 11.5552 25.1355 9.26114 27.6771C9.15478 27.7954 9.04805 27.9138 8.94133 28.0323C9.03162 28.0323 9.12209 28.0323 9.21238 28.0323C8.95415 27.799 8.69629 27.5659 8.4377 27.3327C8.4377 27.4227 8.4377 27.5135 8.4377 27.6038C12.535 23.0646 16.6322 18.5252 20.7292 13.9856C20.9477 13.744 21.0602 13.4556 21.4526 13.7359C21.6537 13.8801 21.8451 13.5473 21.6452 13.4054Z" fill="#FA7436"/>
<path d="M22.7766 13.1337C22.7766 13.1337 22.9288 12.9508 23.1943 12.631C23.4635 12.3152 23.8413 11.856 24.3085 11.3186C24.776 10.7806 25.3127 10.1457 25.9039 9.47972C26.4944 8.8132 27.1235 8.10172 27.7535 7.39078C28.3919 6.68689 29.0301 5.98389 29.6283 5.32406C30.2255 4.66422 30.7985 4.06181 31.2822 3.53813C31.7658 3.01535 32.1804 2.58991 32.4661 2.28744C32.7549 1.9884 32.9203 1.81812 32.9203 1.81812C32.9203 1.81812 32.7691 2.0005 32.503 2.32085C32.2334 2.63722 31.8559 3.09644 31.389 3.63384C30.9209 4.17124 30.3848 4.8067 29.7935 5.47231C29.2031 6.13883 28.5736 6.84977 27.9439 7.56125C27.3054 8.26461 26.6675 8.9685 26.0686 9.62744C25.4705 10.2873 24.8984 10.8906 24.4146 11.4137C23.9311 11.9365 23.5159 12.3616 23.2313 12.6644C22.9422 12.9627 22.7766 13.1337 22.7766 13.1337Z" fill="#FA7436"/>
<path d="M45.9833 0.613595C45.4415 0.124226 44.7226 0.0406166 44.3756 0.423083L33.104 12.9119L35.0644 14.6811L46.3359 2.19312C46.6817 1.80921 46.5234 1.10116 45.9833 0.613595Z" fill="white"/>
<path d="M46.1187 0.477829C45.5652 0.0285487 44.7376 -0.263808 44.1869 0.348355C43.9261 0.636379 43.6652 0.924942 43.4055 1.21369C42.2559 2.48659 41.1069 3.75913 39.9581 5.03149C37.6898 7.54497 35.4212 10.0583 33.1524 12.5721C33.091 12.64 33.0296 12.7083 32.9682 12.7758C32.901 12.8507 32.8877 12.9743 32.9682 13.0472C33.6217 13.6372 34.2749 14.2266 34.929 14.8162C35.0024 14.8833 35.126 14.8967 35.1995 14.8162C37.1058 12.7032 39.0131 10.5912 40.92 8.47784C42.215 7.0435 43.5095 5.60898 44.8045 4.17446C45.3944 3.5204 46.0616 2.89 46.5835 2.17672C46.981 1.63408 46.5012 0.861921 46.1187 0.477829C45.9432 0.303029 45.6727 0.573536 45.848 0.748337C46.1819 1.08385 46.5503 1.66893 46.1588 2.10322C46.0653 2.20687 45.9717 2.31052 45.8773 2.41382C45.4912 2.84287 45.1049 3.27121 44.718 3.69972C43.4472 5.10751 42.1767 6.51513 40.9061 7.92401C38.9154 10.1282 36.9262 12.3327 34.9365 14.5372C34.9335 14.5393 34.9313 14.5435 34.929 14.5457C35.0198 14.5457 35.1092 14.5457 35.1995 14.5457C34.5463 13.9561 33.8922 13.3661 33.2395 12.7762C33.2395 12.867 33.2395 12.9567 33.2395 13.0476C35.1464 10.9346 37.0531 8.82166 38.9597 6.70817C40.2555 5.27473 41.5502 3.83985 42.8439 2.40551C43.2605 1.94594 43.6751 1.48582 44.0892 1.02625C44.3647 0.721431 44.5704 0.386095 45.0267 0.376163C45.3303 0.369842 45.6255 0.569022 45.848 0.748337C46.0367 0.903093 46.3099 0.633488 46.1187 0.477829Z" fill="#FA7436"/>
<path d="M35.0639 14.6811C34.718 15.065 33.9974 14.9799 33.4562 14.4918C32.9151 14.003 32.7568 13.2955 33.1039 12.9119C33.4504 12.5277 34.1698 12.612 34.7123 13.1005C35.2527 13.5897 35.4098 14.2966 35.0639 14.6811Z" fill="white"/>
<path d="M34.9283 14.5462C34.2025 15.2489 32.6093 13.8402 33.2397 13.0474C33.8627 12.2628 35.5587 13.7513 34.9283 14.5462C34.776 14.7371 35.0456 15.0103 35.1993 14.8169C36.1401 13.6319 34.0553 11.7232 32.9684 12.776C32.45 13.2787 32.8411 14.113 33.2344 14.5441C33.7131 15.0674 34.6344 15.3646 35.1993 14.8169C35.3772 14.6441 35.1061 14.3738 34.9283 14.5462Z" fill="#FA7436"/>
<path d="M34.2877 13.5705C34.0738 13.3774 33.7895 13.3437 33.6519 13.4957L21.0406 27.468L21.8153 28.1674L34.4275 14.1951C34.5631 14.0429 34.5014 13.7635 34.2877 13.5705Z" fill="white"/>
<path d="M34.3848 13.4051C33.5773 12.8289 32.8994 14.0444 32.4273 14.5682C31.2666 15.853 30.1062 17.1393 28.9458 18.4248C26.4906 21.1449 24.0353 23.8653 21.5801 26.5856C21.3553 26.8346 21.1307 27.084 20.9051 27.333C20.8383 27.4074 20.8251 27.5316 20.9051 27.604C21.1635 27.837 21.4216 28.0703 21.6796 28.3029C21.7544 28.3704 21.8781 28.3831 21.9511 28.3029C26.0478 23.7638 30.145 19.2246 34.2429 14.6852C34.6064 14.282 34.8857 13.9595 34.4231 13.4349C34.2593 13.2489 33.9888 13.5216 34.1524 13.7058C34.4751 14.0723 34.0737 14.3002 33.8433 14.5552C33.4447 14.9971 33.0462 15.4392 32.6466 15.8816C31.3923 17.272 30.1369 18.6625 28.8817 20.0531C26.5881 22.5944 24.2937 25.1357 22.0002 27.6774C21.8934 27.7956 21.7865 27.9141 21.6798 28.0326C21.7707 28.0326 21.8609 28.0326 21.9512 28.0326C21.6926 27.7992 21.4346 27.5661 21.1766 27.333C21.1766 27.4229 21.1766 27.5137 21.1766 27.604C25.2737 23.0648 29.3705 18.5254 33.4678 13.9859C33.6856 13.7442 33.7988 13.4558 34.1912 13.7357C34.3933 13.8802 34.5842 13.5474 34.3848 13.4051Z" fill="#FA7436"/>
<path d="M35.707 12.937C35.707 12.937 35.8506 12.7634 36.1003 12.4608C36.3544 12.1618 36.7107 11.7275 37.1517 11.2186C37.5917 10.7106 38.0986 10.1098 38.6564 9.4807C39.2144 8.85066 39.8089 8.17891 40.4034 7.50661C41.0065 6.84244 41.61 6.1781 42.175 5.5551C42.74 4.93174 43.282 4.36309 43.7385 3.86939C44.1966 3.37551 44.589 2.97516 44.8595 2.68931C45.1329 2.40724 45.2893 2.24707 45.2893 2.24707C45.2893 2.24707 45.1461 2.4197 44.896 2.72217C44.6426 3.02121 44.2865 3.45623 43.8459 3.96492C43.4046 4.47343 42.8982 5.07403 42.3393 5.70317C41.7824 6.33321 41.1878 7.00497 40.5935 7.67672C39.9902 8.34089 39.3869 9.00524 38.8218 9.62824C38.2557 10.2512 37.7149 10.8199 37.258 11.3145C36.7995 11.8075 36.4071 12.2089 36.137 12.494C35.8638 12.7759 35.707 12.937 35.707 12.937Z" fill="#FA7436"/>
<path d="M4.60034 15.9309L8.44595 15.0406V16.3202L4.60034 15.9309Z" fill="#FA7436"/>
<path d="M4.66839 16.1768C5.95032 15.8805 7.23207 15.5832 8.51346 15.2862C8.40529 15.2051 8.29821 15.1228 8.1904 15.0406C8.1904 15.4673 8.1904 15.894 8.1904 16.3202C8.27491 16.2348 8.36033 16.1499 8.44592 16.0643C7.16399 15.9348 5.88224 15.8048 4.60049 15.675C4.2731 15.6419 4.27563 16.1533 4.60049 16.1866C5.88242 16.3166 7.16417 16.4457 8.44592 16.575C8.58425 16.5892 8.70144 16.4491 8.70144 16.32C8.70144 15.8938 8.70144 15.4671 8.70144 15.0404C8.70144 14.8691 8.53892 14.7565 8.37784 14.7943C7.09609 15.0912 5.81471 15.3875 4.53278 15.6842C4.21153 15.7588 4.34768 16.2516 4.66839 16.1768Z" fill="#FA7436"/>
<path d="M38.9256 18.1374V38.3128L29.8983 44.5371C38.9256 35.3957 36.5422 19.1622 36.5422 19.1622L38.9256 18.1374Z" fill="#FA7436"/>
<path d="M38.67 18.1374C38.67 24.4217 38.67 30.7062 38.67 36.9909C38.67 37.3329 38.67 37.6744 38.67 38.0162C38.67 38.0979 38.67 38.1791 38.67 38.2609C38.67 38.4433 38.8997 38.0206 38.7583 38.1194C37.896 38.7138 37.0341 39.3083 36.1722 39.9028C34.0381 41.3736 31.9035 42.8455 29.7692 44.3163C29.8729 44.4506 29.9762 44.585 30.0789 44.7186C33.915 40.7979 35.8549 35.5076 36.6446 30.1627C37.1575 26.695 37.2441 23.1174 36.8566 19.631C36.8355 19.4516 36.8149 19.2729 36.7887 19.095C36.7501 19.1907 36.71 19.2879 36.6717 19.383C37.4655 19.0412 38.2602 18.6999 39.0555 18.3571C39.3573 18.2271 39.0965 17.7876 38.7975 17.9167C38.0027 18.2586 37.2077 18.6 36.4131 18.9428C36.3011 18.9908 36.2811 19.127 36.2966 19.2304C36.6553 21.6942 36.6412 24.633 36.4552 27.233C36.074 32.5467 34.6658 37.953 31.4791 42.301C30.9452 43.0288 30.3496 43.7113 29.7178 44.3566C29.5199 44.5595 29.7824 44.9279 30.0271 44.7589C32.6489 42.9515 35.2706 41.1433 37.8919 39.3361C38.2711 39.0746 38.6508 38.8131 39.0308 38.5513C39.2213 38.4204 39.1821 38.2212 39.1821 38.0164C39.1821 36.8062 39.1821 35.597 39.1821 34.3875C39.1821 28.9707 39.1821 23.5537 39.1821 18.1376C39.1817 17.8073 38.67 17.8073 38.67 18.1374Z" fill="#FA7436"/>
<path d="M29.8983 44.5369L0.256226 32.0854C0.256226 32.0854 6.13371 29.3287 4.60042 15.9308L36.542 19.1621C36.542 19.1621 38.9256 35.3954 29.8983 44.5369Z" fill="white"/>
<path d="M29.9661 44.2914C24.595 42.0358 19.224 39.7782 13.8528 37.5226C9.34361 35.6281 4.83437 33.7335 0.324232 31.8388C0.345179 31.9949 0.365043 32.1505 0.385087 32.3064C1.63794 31.7128 2.58707 30.3281 3.22415 29.1614C5.38243 25.2071 5.34144 20.2746 4.85604 15.9309C4.77063 16.016 4.68521 16.1014 4.60016 16.1868C10.4108 16.774 16.2206 17.3625 22.0304 17.9496C26.8681 18.4402 31.7047 18.9289 36.5417 19.4183C36.4595 19.3556 36.3772 19.2933 36.2961 19.2305C36.6547 21.6943 36.6407 24.633 36.4547 27.233C36.0735 32.5467 34.6653 37.9531 31.4786 42.3011C30.9447 43.0288 30.3491 43.7114 29.7173 44.3566C29.4868 44.5931 29.8482 44.9545 30.0786 44.7188C33.9146 40.7981 35.8546 35.5079 36.6443 30.1629C37.1571 26.6952 37.2438 23.1176 36.8563 19.6312C36.8351 19.4518 36.8146 19.2731 36.7884 19.0952C36.771 18.9767 36.6455 18.9181 36.5419 18.9078C30.7319 18.3194 24.9216 17.7318 19.1119 17.1435C14.2747 16.6541 9.43751 16.1651 4.60034 15.6752C4.47267 15.6628 4.33038 15.802 4.345 15.9309C4.82318 20.2088 4.87175 24.9992 2.78245 28.9034C2.19557 30.0015 1.30134 31.3081 0.127581 31.8647C-0.0981427 31.9716 0.00966297 32.2562 0.188436 32.332C5.55994 34.5885 10.9311 36.8441 16.3017 39.1008C20.8113 40.9953 25.3207 42.889 29.8305 44.7844C30.1344 44.9119 30.2651 44.4169 29.9661 44.2914Z" fill="#FA7436"/>
<path d="M4.81025 17.2529L25.6315 20.3875L4.71021 18.0133L4.81025 17.2529Z" fill="#FA7436"/>
<path d="M4.82491 18.8922C4.82491 18.8922 8.36787 19.5842 11.9107 20.2765C15.4661 20.8912 19.0209 21.5056 19.0209 21.5056C19.0209 21.5056 15.4336 21.0797 11.8462 20.6536C8.2709 20.1516 4.69543 19.6483 4.69543 19.6483L4.82491 18.8922Z" fill="#FA7436"/>
<path d="M33.2395 40.1893L17.9159 35.3165L33.4544 39.4541L33.2395 40.1893Z" fill="#FA7436"/>
<path d="M32.1077 42.2181L9.65833 33.785L32.3667 41.4974L32.1077 42.2181Z" fill="#FA7436"/>
</svg>
