<svg width="65" height="65" viewBox="0 0 65 65" fill="none" xmlns="http://www.w3.org/2000/svg">
<g clip-path="url(#clip0_2203_1221)">
<mask id="mask0_2203_1221" style="mask-type:alpha" maskUnits="userSpaceOnUse" x="0" y="0" width="65" height="65">
<path d="M64.8052 0H0V64.8052H64.8052V0Z" fill="#D9D9D9"/>
</mask>
<g mask="url(#mask0_2203_1221)">
<path d="M48.7573 15.6379C48.0622 14.9628 48.0622 13.7253 48.7573 12.9378C48.5256 10.4628 48.2939 7.87529 48.2939 5.40027C48.2939 5.40027 48.1781 5.40027 48.1781 5.51277C45.2821 7.42528 42.3861 9.11279 39.4901 10.9128C39.3743 10.9128 39.3743 10.9128 39.2584 11.0253C39.1426 11.1378 38.9109 11.3628 38.7951 11.4753C38.9109 11.7003 39.0268 11.9253 39.0268 12.0378C36.8258 14.2878 34.6249 16.5378 32.5398 18.7879C29.8755 21.6003 27.0953 24.4129 24.6627 27.4504C22.6934 29.9255 20.3766 32.063 18.2915 34.3129C18.0599 34.6505 17.5965 34.8754 17.249 34.988C16.3223 35.213 15.8589 35.663 15.8589 36.563C15.8589 36.9004 15.7431 37.1255 15.7431 37.463C15.6272 39.3755 15.6272 41.288 15.5114 43.2005C15.5114 43.538 15.3956 43.8755 15.2797 44.1005C14.8164 45.2256 15.3955 46.3505 16.6698 46.3505C17.0173 46.3505 17.3648 46.2381 17.8282 46.1255C17.8282 46.1255 17.944 46.2381 18.0599 46.3505C18.5232 47.588 18.8707 48.8256 18.4074 50.1755C18.2915 50.6255 18.1757 51.0756 18.1757 51.638C18.1757 53.3256 18.639 54.9006 19.4499 56.3631C20.0291 57.4881 20.9558 58.1631 22.2301 58.2756C24.6627 58.5006 26.8636 57.9381 28.8329 56.8131C32.8873 54.3381 36.71 51.8631 40.6485 49.2756C40.7643 49.163 40.8802 48.9381 40.8802 48.9381C40.7643 48.8256 40.5327 48.6005 40.4168 48.6005C40.1851 48.6005 39.8376 48.7131 39.606 48.8256C39.0268 48.9381 38.4476 49.163 37.9842 49.0505C36.2466 48.713 34.509 48.9381 32.7714 49.2756C32.4239 49.3881 31.9606 49.2756 31.7289 49.0505C29.2963 47.588 26.8636 45.9005 24.431 44.438C23.3885 43.763 22.6934 43.088 22.4617 41.963V41.8505C22.2301 41.513 22.4617 41.4005 22.6934 41.1755C24.5469 39.713 26.2844 38.363 28.1379 36.9004C31.2655 34.3129 34.3932 31.8379 37.6367 29.2504C41.5752 26.1004 45.6296 22.8379 49.684 19.6879C49.4523 18.4503 49.3364 17.1004 49.1048 15.8628C48.9889 15.8628 48.8731 15.7503 48.7573 15.6379ZM16.5539 37.1255C16.2064 36.788 16.2064 36.113 16.6698 35.7754C17.0173 35.438 17.5965 35.438 17.944 35.7754C18.2915 36.113 18.2915 36.788 17.944 37.1255C17.4807 37.3505 16.9015 37.3505 16.5539 37.1255ZM20.0291 35.1005C20.0291 34.988 19.9133 34.988 19.9133 34.8754C20.4925 34.2004 20.9558 33.5255 21.6509 32.963C24.3152 30.3755 26.9795 27.9004 29.6438 25.3129C31.8447 23.0629 34.0457 20.8129 36.2466 18.5628C37.7525 17.1004 39.1426 15.6379 40.6485 14.0629C40.8802 13.8378 40.996 13.7253 41.2277 13.6128C41.3435 13.6128 41.3435 13.7253 41.4594 13.7253C41.3435 13.9503 41.3435 14.0629 41.2277 14.2878C38.7951 17.2129 36.3625 20.1379 33.9298 23.0629C31.1497 26.4379 28.3695 29.8129 25.4736 33.1879C25.126 33.638 24.7785 34.088 24.3152 34.538C24.1993 34.6505 24.0835 34.7629 23.8518 34.8754C22.5776 35.213 21.3034 35.213 20.0291 35.1005ZM18.4074 40.9505C18.4074 40.613 18.4074 40.2755 18.5232 40.0505C18.7549 37.5755 18.639 37.5755 21.7667 37.5755C20.84 38.9255 19.6816 39.938 18.4074 40.9505ZM15.7431 45.563C15.3955 45.2256 15.5114 44.5505 15.8589 44.2131C16.2064 43.8755 16.7856 43.8755 17.1331 44.2131C17.4807 44.5505 17.4807 45.2256 17.1331 45.563C16.7856 45.9005 16.0906 45.9005 15.7431 45.563ZM20.9558 42.5255C20.6083 42.863 19.9133 42.863 19.6816 42.5255C19.3341 42.188 19.3341 41.513 19.7974 41.1755C20.145 40.838 20.7242 40.838 21.0717 41.1755C21.4192 41.513 21.3034 42.188 20.9558 42.5255Z" fill="#FA7436"/>
</g>
</g>
<defs>
<clipPath id="clip0_2203_1221">
<rect width="64.8052" height="64.8052" fill="white"/>
</clipPath>
</defs>
</svg>
