<svg width="50" height="50" viewBox="0 0 50 50" fill="none" xmlns="http://www.w3.org/2000/svg">
<mask id="mask0_2203_1125" style="mask-type:alpha" maskUnits="userSpaceOnUse" x="0" y="0" width="50" height="50">
<path d="M49.3052 0H0V49.3052H49.3052V0Z" fill="#D9D9D9"/>
</mask>
<g mask="url(#mask0_2203_1125)">
<path d="M41.5679 43.142C30.2884 43.142 18.9921 43.142 7.71252 43.142C7.67887 43.1112 7.62839 43.0803 7.59468 43.0648C6.48359 42.6787 5.99537 41.9064 6.2142 40.8252C6.3994 39.8521 6.5846 38.8945 6.7698 37.9214C7.359 34.894 7.94826 31.8666 8.53746 28.8546C9.16037 25.7037 9.78328 22.5527 10.3894 19.4018C10.6419 18.1198 11.349 17.5328 12.7631 17.5328C14.8506 17.5328 16.9382 17.5328 19.0257 17.5328C19.1604 17.5328 19.2951 17.5174 19.4634 17.5174C16.1638 14.1965 17.3254 10.0725 19.5308 8.09542C22.0224 5.85578 25.8944 5.51596 28.7228 7.32312C30.5578 8.49701 31.6184 10.1188 31.8541 12.1577C32.0729 14.1965 31.349 15.9728 29.7665 17.5328C30.019 17.5328 30.1537 17.5328 30.3053 17.5328C32.4096 17.5328 34.5308 17.5328 36.6352 17.5328C37.8811 17.5328 38.6555 18.1352 38.8743 19.2627C39.2616 21.2862 39.6655 23.2941 40.0528 25.3175C41.0629 30.5228 42.0898 35.728 43.0999 40.9488C43.2346 41.6129 43.0494 42.1998 42.4939 42.6477C42.2245 42.8485 41.8878 42.9876 41.5679 43.142ZM31.3827 31.9747C31.5005 33.0868 31.3322 33.3185 30.2379 33.6274C30.1201 33.6583 29.9854 33.7047 29.8676 33.7355C28.5375 33.9672 27.3591 33.5193 26.8709 32.33C26.551 31.5422 26.5342 30.739 26.6857 29.9204C26.7699 29.4261 27.0056 28.9937 27.3928 28.623C28.2345 27.8043 30.3221 27.6807 31.1133 28.8392C31.4164 29.2871 32.0056 29.3334 32.4096 29.04C32.8305 28.7311 32.9147 28.2059 32.5275 27.7889C32.2918 27.5263 32.0056 27.2791 31.6857 27.0938C30.7598 26.5378 29.6992 26.5068 28.6554 26.5687C27.2918 26.6613 26.1638 27.2174 25.4399 28.3141C24.4971 29.735 24.4803 31.2488 25.0695 32.7779C25.4231 33.6892 26.0796 34.3843 27.0392 34.7859C29.1436 35.6199 31.0965 35.2955 32.9483 34.1525C33.0999 34.0599 33.2177 33.8436 33.2177 33.6737C33.2514 32.8397 33.2345 32.0056 33.2345 31.1869C33.2345 30.8162 33.0157 30.6154 32.5948 30.6154C31.7699 30.6 30.945 30.6 30.1201 30.6154C29.615 30.6154 29.2951 30.8935 29.2783 31.3105C29.2783 31.7121 29.5982 31.9901 30.1032 32.0056C30.5241 31.9747 30.945 31.9747 31.3827 31.9747ZM18.2681 30.3992C18.2681 29.4725 18.2681 28.6538 18.2681 27.8352C18.2681 27.6499 18.2513 27.4799 18.2008 27.2946C18.0998 26.9084 17.7462 26.6613 17.3085 26.6613C16.8708 26.6768 16.5173 26.9394 16.45 27.3564C16.4163 27.5108 16.4163 27.6653 16.4163 27.8198C16.4163 29.8432 16.4163 31.8666 16.4163 33.8745C16.4163 34.0135 16.4163 34.168 16.45 34.307C16.5173 34.7395 16.8372 35.0175 17.2749 35.033C17.7462 35.0639 18.1503 34.8013 18.2008 34.3688C18.2681 33.8282 18.2513 33.2876 18.2681 32.747C18.2681 32.6389 18.285 32.4844 18.3523 32.4072C18.8237 31.9747 19.3119 31.5577 19.8002 31.1252C20.4399 32.1446 21.1469 33.1331 21.7362 34.1989C22.1066 34.8631 22.578 35.1411 23.386 35.033C23.6722 34.9866 23.9584 35.0175 24.1268 34.724C24.2783 34.446 24.1268 34.2452 23.9753 34.029C23.0998 32.8088 22.2244 31.5731 21.3658 30.3374C21.2648 30.183 21.1638 30.044 20.9955 29.7814C21.248 29.5961 21.5174 29.4107 21.753 29.2099C22.3254 28.6847 22.8978 28.1441 23.4534 27.6035C23.8069 27.2637 23.7733 26.8775 23.4028 26.6922C23.0325 26.4914 22.0224 26.6304 21.7193 26.9239C21.0123 27.6344 20.3052 28.3449 19.5982 29.0554C19.1604 29.5188 18.7564 29.9204 18.2681 30.3992ZM24.4466 15.7256C26.1302 15.8492 27.5611 14.7063 27.7968 13.2852C28.0998 11.4008 26.5342 9.9798 24.8002 9.88717C23.2682 9.80988 21.6688 10.9992 21.4836 12.3585C21.2311 14.2583 22.7799 15.6794 24.4466 15.7256Z" fill="#FA7436"/>
</g>
</svg>
